<mxfile host="app.diagrams.net" modified="2022-06-14T01:29:25.005Z" agent="5.0 (Windows NT 10.0; Win64; x64) AppleWebKit/537.36 (KHTML, like Gecko) Chrome/102.0.0.0 Safari/537.36" etag="25verJ3LZNSPQh7gbcEr" version="19.0.1" type="github">
  <diagram id="C5RBs43oDa-KdzZeNtuy" name="Page-1">
    <mxGraphModel dx="1102" dy="582" grid="1" gridSize="10" guides="1" tooltips="1" connect="1" arrows="1" fold="1" page="1" pageScale="1" pageWidth="827" pageHeight="1169" math="0" shadow="0">
      <root>
        <mxCell id="WIyWlLk6GJQsqaUBKTNV-0" />
        <mxCell id="WIyWlLk6GJQsqaUBKTNV-1" parent="WIyWlLk6GJQsqaUBKTNV-0" />
        <mxCell id="tNz-IM1dfQJWpfDeyYgV-0" value="" style="ellipse;html=1;shape=startState;fillColor=#000000;strokeColor=#ff0000;" parent="WIyWlLk6GJQsqaUBKTNV-1" vertex="1">
          <mxGeometry x="80" y="53" width="30" height="30" as="geometry" />
        </mxCell>
        <mxCell id="tNz-IM1dfQJWpfDeyYgV-1" value="" style="edgeStyle=orthogonalEdgeStyle;html=1;verticalAlign=bottom;endArrow=open;endSize=8;strokeColor=#ff0000;rounded=0;entryX=0;entryY=0.5;entryDx=0;entryDy=0;" parent="WIyWlLk6GJQsqaUBKTNV-1" source="tNz-IM1dfQJWpfDeyYgV-0" edge="1" target="g5a72KPIYyK6Kp0XdIAQ-20">
          <mxGeometry relative="1" as="geometry">
            <mxPoint x="95" y="80" as="targetPoint" />
          </mxGeometry>
        </mxCell>
        <mxCell id="tNz-IM1dfQJWpfDeyYgV-2" value="" style="ellipse;html=1;shape=endState;fillColor=#000000;strokeColor=#ff0000;" parent="WIyWlLk6GJQsqaUBKTNV-1" vertex="1">
          <mxGeometry x="730" y="384" width="30" height="30" as="geometry" />
        </mxCell>
        <mxCell id="g5a72KPIYyK6Kp0XdIAQ-43" style="edgeStyle=orthogonalEdgeStyle;rounded=0;orthogonalLoop=1;jettySize=auto;html=1;exitX=0.5;exitY=1;exitDx=0;exitDy=0;entryX=0.5;entryY=0;entryDx=0;entryDy=0;" edge="1" parent="WIyWlLk6GJQsqaUBKTNV-1" source="g5a72KPIYyK6Kp0XdIAQ-16" target="g5a72KPIYyK6Kp0XdIAQ-24">
          <mxGeometry relative="1" as="geometry" />
        </mxCell>
        <mxCell id="g5a72KPIYyK6Kp0XdIAQ-16" value="Disponível&#xa;" style="swimlane;fontStyle=1;align=center;verticalAlign=top;childLayout=stackLayout;horizontal=1;startSize=26;horizontalStack=0;resizeParent=1;resizeParentMax=0;resizeLast=0;collapsible=1;marginBottom=0;" vertex="1" parent="WIyWlLk6GJQsqaUBKTNV-1">
          <mxGeometry x="520" y="40" width="160" height="60" as="geometry" />
        </mxCell>
        <mxCell id="g5a72KPIYyK6Kp0XdIAQ-17" value="+ field: type" style="text;strokeColor=none;fillColor=none;align=left;verticalAlign=top;spacingLeft=4;spacingRight=4;overflow=hidden;rotatable=0;points=[[0,0.5],[1,0.5]];portConstraint=eastwest;" vertex="1" parent="g5a72KPIYyK6Kp0XdIAQ-16">
          <mxGeometry y="26" width="160" height="26" as="geometry" />
        </mxCell>
        <mxCell id="g5a72KPIYyK6Kp0XdIAQ-18" value="" style="line;strokeWidth=1;fillColor=none;align=left;verticalAlign=middle;spacingTop=-1;spacingLeft=3;spacingRight=3;rotatable=0;labelPosition=right;points=[];portConstraint=eastwest;" vertex="1" parent="g5a72KPIYyK6Kp0XdIAQ-16">
          <mxGeometry y="52" width="160" height="8" as="geometry" />
        </mxCell>
        <mxCell id="g5a72KPIYyK6Kp0XdIAQ-41" style="edgeStyle=orthogonalEdgeStyle;rounded=0;orthogonalLoop=1;jettySize=auto;html=1;exitX=1;exitY=0.5;exitDx=0;exitDy=0;" edge="1" parent="WIyWlLk6GJQsqaUBKTNV-1" source="g5a72KPIYyK6Kp0XdIAQ-21" target="g5a72KPIYyK6Kp0XdIAQ-17">
          <mxGeometry relative="1" as="geometry" />
        </mxCell>
        <mxCell id="g5a72KPIYyK6Kp0XdIAQ-20" value="Lançado" style="swimlane;fontStyle=1;align=center;verticalAlign=top;childLayout=stackLayout;horizontal=1;startSize=30;horizontalStack=0;resizeParent=1;resizeParentMax=0;resizeLast=0;collapsible=1;marginBottom=0;" vertex="1" parent="WIyWlLk6GJQsqaUBKTNV-1">
          <mxGeometry x="150" y="36" width="160" height="64" as="geometry" />
        </mxCell>
        <mxCell id="g5a72KPIYyK6Kp0XdIAQ-21" value="+ field: type" style="text;strokeColor=none;fillColor=none;align=left;verticalAlign=top;spacingLeft=4;spacingRight=4;overflow=hidden;rotatable=0;points=[[0,0.5],[1,0.5]];portConstraint=eastwest;" vertex="1" parent="g5a72KPIYyK6Kp0XdIAQ-20">
          <mxGeometry y="30" width="160" height="26" as="geometry" />
        </mxCell>
        <mxCell id="g5a72KPIYyK6Kp0XdIAQ-22" value="" style="line;strokeWidth=1;fillColor=none;align=left;verticalAlign=middle;spacingTop=-1;spacingLeft=3;spacingRight=3;rotatable=0;labelPosition=right;points=[];portConstraint=eastwest;" vertex="1" parent="g5a72KPIYyK6Kp0XdIAQ-20">
          <mxGeometry y="56" width="160" height="8" as="geometry" />
        </mxCell>
        <mxCell id="g5a72KPIYyK6Kp0XdIAQ-44" style="edgeStyle=orthogonalEdgeStyle;rounded=0;orthogonalLoop=1;jettySize=auto;html=1;exitX=0.5;exitY=1;exitDx=0;exitDy=0;entryX=1;entryY=0.5;entryDx=0;entryDy=0;" edge="1" parent="WIyWlLk6GJQsqaUBKTNV-1" source="g5a72KPIYyK6Kp0XdIAQ-24" target="g5a72KPIYyK6Kp0XdIAQ-34">
          <mxGeometry relative="1" as="geometry">
            <mxPoint x="220" y="290" as="targetPoint" />
            <Array as="points">
              <mxPoint x="600" y="279" />
            </Array>
          </mxGeometry>
        </mxCell>
        <mxCell id="g5a72KPIYyK6Kp0XdIAQ-24" value="Aguardando Entrega" style="swimlane;fontStyle=1;align=center;verticalAlign=top;childLayout=stackLayout;horizontal=1;startSize=26;horizontalStack=0;resizeParent=1;resizeParentMax=0;resizeLast=0;collapsible=1;marginBottom=0;" vertex="1" parent="WIyWlLk6GJQsqaUBKTNV-1">
          <mxGeometry x="520" y="200" width="160" height="60" as="geometry" />
        </mxCell>
        <mxCell id="g5a72KPIYyK6Kp0XdIAQ-25" value="+ field: type" style="text;strokeColor=none;fillColor=none;align=left;verticalAlign=top;spacingLeft=4;spacingRight=4;overflow=hidden;rotatable=0;points=[[0,0.5],[1,0.5]];portConstraint=eastwest;" vertex="1" parent="g5a72KPIYyK6Kp0XdIAQ-24">
          <mxGeometry y="26" width="160" height="26" as="geometry" />
        </mxCell>
        <mxCell id="g5a72KPIYyK6Kp0XdIAQ-26" value="" style="line;strokeWidth=1;fillColor=none;align=left;verticalAlign=middle;spacingTop=-1;spacingLeft=3;spacingRight=3;rotatable=0;labelPosition=right;points=[];portConstraint=eastwest;" vertex="1" parent="g5a72KPIYyK6Kp0XdIAQ-24">
          <mxGeometry y="52" width="160" height="8" as="geometry" />
        </mxCell>
        <mxCell id="g5a72KPIYyK6Kp0XdIAQ-29" value="Indisponível" style="swimlane;fontStyle=1;align=center;verticalAlign=top;childLayout=stackLayout;horizontal=1;startSize=26;horizontalStack=0;resizeParent=1;resizeParentMax=0;resizeLast=0;collapsible=1;marginBottom=0;" vertex="1" parent="WIyWlLk6GJQsqaUBKTNV-1">
          <mxGeometry x="80" y="360" width="160" height="60" as="geometry" />
        </mxCell>
        <mxCell id="g5a72KPIYyK6Kp0XdIAQ-30" value="+ field: type" style="text;strokeColor=none;fillColor=none;align=left;verticalAlign=top;spacingLeft=4;spacingRight=4;overflow=hidden;rotatable=0;points=[[0,0.5],[1,0.5]];portConstraint=eastwest;" vertex="1" parent="g5a72KPIYyK6Kp0XdIAQ-29">
          <mxGeometry y="26" width="160" height="26" as="geometry" />
        </mxCell>
        <mxCell id="g5a72KPIYyK6Kp0XdIAQ-31" value="" style="line;strokeWidth=1;fillColor=none;align=left;verticalAlign=middle;spacingTop=-1;spacingLeft=3;spacingRight=3;rotatable=0;labelPosition=right;points=[];portConstraint=eastwest;" vertex="1" parent="g5a72KPIYyK6Kp0XdIAQ-29">
          <mxGeometry y="52" width="160" height="8" as="geometry" />
        </mxCell>
        <mxCell id="g5a72KPIYyK6Kp0XdIAQ-45" style="edgeStyle=orthogonalEdgeStyle;rounded=0;orthogonalLoop=1;jettySize=auto;html=1;exitX=0.5;exitY=1;exitDx=0;exitDy=0;entryX=0.5;entryY=0;entryDx=0;entryDy=0;" edge="1" parent="WIyWlLk6GJQsqaUBKTNV-1" source="g5a72KPIYyK6Kp0XdIAQ-33" target="g5a72KPIYyK6Kp0XdIAQ-29">
          <mxGeometry relative="1" as="geometry" />
        </mxCell>
        <mxCell id="g5a72KPIYyK6Kp0XdIAQ-49" style="edgeStyle=orthogonalEdgeStyle;rounded=0;orthogonalLoop=1;jettySize=auto;html=1;exitX=0.5;exitY=0;exitDx=0;exitDy=0;fontSize=26;entryX=0.25;entryY=1;entryDx=0;entryDy=0;" edge="1" parent="WIyWlLk6GJQsqaUBKTNV-1" source="g5a72KPIYyK6Kp0XdIAQ-33" target="g5a72KPIYyK6Kp0XdIAQ-16">
          <mxGeometry relative="1" as="geometry">
            <mxPoint x="550" y="120" as="targetPoint" />
          </mxGeometry>
        </mxCell>
        <mxCell id="g5a72KPIYyK6Kp0XdIAQ-33" value="Necessidade de Reposição" style="swimlane;fontStyle=1;align=center;verticalAlign=top;childLayout=stackLayout;horizontal=1;startSize=26;horizontalStack=0;resizeParent=1;resizeParentMax=0;resizeLast=0;collapsible=1;marginBottom=0;" vertex="1" parent="WIyWlLk6GJQsqaUBKTNV-1">
          <mxGeometry x="65" y="240" width="190" height="60" as="geometry" />
        </mxCell>
        <mxCell id="g5a72KPIYyK6Kp0XdIAQ-34" value="+ field: type" style="text;strokeColor=none;fillColor=none;align=left;verticalAlign=top;spacingLeft=4;spacingRight=4;overflow=hidden;rotatable=0;points=[[0,0.5],[1,0.5]];portConstraint=eastwest;" vertex="1" parent="g5a72KPIYyK6Kp0XdIAQ-33">
          <mxGeometry y="26" width="190" height="26" as="geometry" />
        </mxCell>
        <mxCell id="g5a72KPIYyK6Kp0XdIAQ-35" value="" style="line;strokeWidth=1;fillColor=none;align=left;verticalAlign=middle;spacingTop=-1;spacingLeft=3;spacingRight=3;rotatable=0;labelPosition=right;points=[];portConstraint=eastwest;" vertex="1" parent="g5a72KPIYyK6Kp0XdIAQ-33">
          <mxGeometry y="52" width="190" height="8" as="geometry" />
        </mxCell>
        <mxCell id="g5a72KPIYyK6Kp0XdIAQ-37" value="Extinto" style="swimlane;fontStyle=1;align=center;verticalAlign=top;childLayout=stackLayout;horizontal=1;startSize=26;horizontalStack=0;resizeParent=1;resizeParentMax=0;resizeLast=0;collapsible=1;marginBottom=0;" vertex="1" parent="WIyWlLk6GJQsqaUBKTNV-1">
          <mxGeometry x="520" y="360" width="160" height="60" as="geometry" />
        </mxCell>
        <mxCell id="g5a72KPIYyK6Kp0XdIAQ-38" value="+ field: type" style="text;strokeColor=none;fillColor=none;align=left;verticalAlign=top;spacingLeft=4;spacingRight=4;overflow=hidden;rotatable=0;points=[[0,0.5],[1,0.5]];portConstraint=eastwest;" vertex="1" parent="g5a72KPIYyK6Kp0XdIAQ-37">
          <mxGeometry y="26" width="160" height="26" as="geometry" />
        </mxCell>
        <mxCell id="g5a72KPIYyK6Kp0XdIAQ-39" value="" style="line;strokeWidth=1;fillColor=none;align=left;verticalAlign=middle;spacingTop=-1;spacingLeft=3;spacingRight=3;rotatable=0;labelPosition=right;points=[];portConstraint=eastwest;" vertex="1" parent="g5a72KPIYyK6Kp0XdIAQ-37">
          <mxGeometry y="52" width="160" height="8" as="geometry" />
        </mxCell>
        <mxCell id="g5a72KPIYyK6Kp0XdIAQ-42" style="edgeStyle=orthogonalEdgeStyle;rounded=0;orthogonalLoop=1;jettySize=auto;html=1;exitX=1;exitY=0.5;exitDx=0;exitDy=0;entryX=0;entryY=0.5;entryDx=0;entryDy=0;" edge="1" parent="WIyWlLk6GJQsqaUBKTNV-1" source="g5a72KPIYyK6Kp0XdIAQ-38" target="tNz-IM1dfQJWpfDeyYgV-2">
          <mxGeometry relative="1" as="geometry" />
        </mxCell>
        <mxCell id="g5a72KPIYyK6Kp0XdIAQ-46" style="edgeStyle=orthogonalEdgeStyle;rounded=0;orthogonalLoop=1;jettySize=auto;html=1;exitX=1;exitY=0.5;exitDx=0;exitDy=0;entryX=0;entryY=0.5;entryDx=0;entryDy=0;" edge="1" parent="WIyWlLk6GJQsqaUBKTNV-1" source="g5a72KPIYyK6Kp0XdIAQ-30" target="g5a72KPIYyK6Kp0XdIAQ-38">
          <mxGeometry relative="1" as="geometry" />
        </mxCell>
        <mxCell id="g5a72KPIYyK6Kp0XdIAQ-47" value="" style="shape=image;verticalLabelPosition=bottom;labelBackgroundColor=default;verticalAlign=top;aspect=fixed;imageAspect=0;image=data:image/png,iVBORw0KGgoAAAANSUhEUgAAAyAAAAD+CAYAAADCrGGqAAAAAXNSR0IArs4c6QAAAARnQU1BAACxjwv8YQUAAAAJcEhZcwAADsMAAA7DAcdvqGQAAP+lSURBVHhe7J0FgFVFF8fP9tLdYAfYYgd2d2MnKthdqICKHYj62YjYKHahYAcGKKgoYiFId+2y+Z3fmTtv7z7ewoILLsv8d+fde+dO3ZkzZ86ZTCtVSBKSLdKia3XC8qaxMv5Kk1ylpXJVEl090qPrYlgse5Ow/Lm7IsspOQ8qF3ol8i0VKpGXy/utKzKPAqoSySWVjLQqK8ulxQQqFTYBxQPDUwqPlUl3laWpMqg076oqLD0HKpNH1QGrSjpXFlLTbXnbSrcDlUDl8n9xVyuy3FZk2JVBpeSVFFjcXzIq+yX/dQ5UBlWXxlXha1cVrPCmZ7VBMlUGBAQEBAQEBAQEBCyGoIBUFYIaHBAQEBAQEBAQELBUpJyCtRiqY+9+VQn8qb5taWHjp9L+lpZ5y/kh/+X3VzWWd0rICsragFUESyv/ilCVdSeeBsKtTNjJ6V5V6tvKxPKW7YpE4CfVDynpJMkybSUW3Mqm26r8tMVEwcoGvrz+ViaqKI3V8dNWYVReAVm6q5UHiKCqCCH52yoKGzfevjrkR1XlQbIwAlKFXZnvXd70LI9AVJkyqKo8Cqh+WN46WJU0kZyGyoSdKt1VmabKoDooIOSB/+bk/ACp7P5rpCqjlVlu1Q2pymhl5gfxV4ZOVmS5/de0y3dUxbdUNi9Xd1RVfgcYwhSsyqK6Ed2KSk9FFczbL8lUN1THNAVUDVbVsk2V7tWRTuPfzH2yqY5YVdK5svBf58eyxBlPY2X9VAYrKtyVjVU57SsTIZ+qFEEBqQx870DoJQgICAgICAgICAj4VwgKSEDlsCTF698oZUGhC1jdsTLrQHWpb6He1zyEMg0ICFgGVG4NyGqGymRI5UfikkNb2WN4yxd/3FdVp3hFhh0QsDQsb41ckTV5VQ07ICAgICBgeRBGQAKWimQBpiqxIsMOCAgICAgICAiofggKSEBAQEBAQEBAQEDASkNQQAICAgICAgICAgICVhrCGpCAyqGqqCRMQA+ojlgaff8XdFsVdS7Ut4CAgICAaoiggKxskNsrQyioyngIq6qoJIy5BVQ3pDqMMxnUpZUlzFdlfVuZ6Q4ICAgICKgkgji4srGyhIGqjKeqwgqCUEB1RGXocmXSLnGFOhcQEBAQUIMRFJCAgICAgICAgICAgJWGoICsbFTV1IqlYWXFExAQEBAQsLoitLUBAcuFsAYkICAgICAgIGBZgfSE8VMd41MekyWrVX06pP+eMK0zoIoQRkACAgICAgICApYR9N9aH64XzrliYhtbrNQ+3hURlf8msBI/JaDmIyggAQEBAQEBAQEVIZUArvcoF2lpaXqrfyXRS0YI1PjnNB5W5qgB0fp0xu//BRKKln5HSbFqV4SJklUFYQesvggKSEBAQEBAQEBABShRZeLvcX/L77//Xk7oLiwolLG/jTUlpLCoUAr0+YdRP8jPo3+WiZMmqj+V0iujfKQS5LHzJo6K7CMUFRXJ2LG/SX7eorLRlwrclkMs3FKvXPhnDae4uFh++OEHp1Bhp3+mjAQELCeCAhIQEBAQEBAQkAwEcEV6epo88cQT0q1bNxk/foITwFUpyc7Jlr739jUBPSMjQz755GO566675PY7bpe5c+epv/QyJWBJwEmSM5Qe/CZGHCJYePwzwhL3w73qBqNGjZLvRoywNKMAoTgsVQkiKA2XMDH4IV7SQBjco2QtWLBQ8vLzEuEVFRe5GxBPS0BAJZDRUxHdBwQEBAQEBAQERDAlQIXwYcO+kvr168mUKZNls802M4UDYf3td96R/ffbPyHAt2u3hmy33bay8cYbmVCelpYuC+YvkC+/+FIW5S+Sxo0bO6VAkaZKgkHdFZcUy8jvR8ron0bLtKnTpGWLFvYKwf/Pv/6SEapU5C/Ml6ZNm5r9X+P+kry8PE3XMA1/oTRt0lRmzJghf6nbJk2aSK1ataR2ndqWToNGtVDd/fLLGJk1c6b89ONPqqRkSGZmlnz11TD5+++/pVXrVvqcac5/++03GfXDKJk9Z7Y0adrE7AsKCix+rowIjRg+QiZNmixZ+i43N9fFFSlCAQFLQ1BAAgICAgKWD5Gw4XtOTaDyAohenVDmhCh6UxMCVxwrWmBJDr8K47Nvi+7LYUV+T8BKBQMOFOfbb70lG2y4obRs2UomTJgg6667rtH1O6qA7L3XXjJkyFB58403bArUL7/8YgrDlh07yuRJk+SWW2+RRSq0f/bpp/LDDz9K40aNpVmzZhquhhzRypP9n5SXBr1koyZM9fpR3W2x5Rbyqfph9GXRokXy9TdfmyLQbo12cvZZZ8tvY3+ThXkLTaGZP3++PPfcc5Kfny+/jv1Vvv3mW2m/YXupW79uIo4///hTDjnkEKlbt678888/8uKLL8pHH31sU8m+/HKYjB//t2y11VYW32effiYzps8wRWX8+PHScauOcsnFl8gBBxxgcfXq2cvC/GfiRPX7pSpcG0ud2nVS1/GAgBQIU7ACAgICApYLKBX06iLUFxcVO+FekZ+Xb1c/nQNFhCkhuC0pjhzphakdvPP+VgRsHj7h+ziqUD5S+dP1ZvvwvWFqvI8vYJUGZQzNIPiXqsa5yy6d5KeffpKFCxfqu3TJZCREaXjQoEGy7777yimnnmJTtYYPHyHz582Td999V+rVqydnduki3c7ppoL/BHnm2WdMUTHahzz1OnzEcGndqrV07dpNuqjb3ffY3WgXBeHII4+Uiy66SI466ih57bXXVAFYIJlZmXLSySfJ+eedb0rBW2++JW3btpPTTz9dzj//fMnQ9I7+efRidFhcXCTHHXechde6dRtp166tdNX0duva1daukC6UjzPOOEPOOfccOevss+Szzz5zHQz6xyiH1W/NE95dcMH5lt56deuZQhboPqCyCApIQEBAQMByoUSF7wcffNCmaThJzQn8w4cPl++/+956czMzM0yAefaZZ+Wxxx63Hlpgeof+mBC2oqBBkwZ6cIcOGeoUg6qChs2Ul5dffjnxHSv8ewJWLpSkTahW+PUcTKHabbfd5PXXXue1c6PK9XXXXSevv/G69OzRU/r27Su//jrG7P/86085/PDDpVbtWtKqVSvZdJNNbYSEsCxs+0+Tc88919wfdNCBFkbLFi1NGfj4o4/khRdekHPOOUduvfU2ef7551UZKJFmTZvJWmutJekZ6Tb96YorrpDZs2ebYnHvvffKp59+Ijk5OU4hiEiS8Bj9aNSokT1nqRKzzTbbSnZ2loWToXUVRevMs86UPn36CBNknnrqKZk8ebL5BSjcTZs1lY5bdpSzzz5bTjjhBPn5558lt1Ytp+y77AoIWCqCAhIQEBAQsOxQoYadfx566CH5+utvTP8oLCw0QY156eyYw7z2gkUF8vZbb9viWObQM18cv7i3efQVCexecFJTUlQiRYVupIERFL9LD72yfrTB78hjdvpfrH4IG3sUoOmqLNiiWX1nxgPn0aiMhRG9Z0THh+VRTBpcNDb6U7t2bWnTpk0kSKZJiSZMU1cmhEVhBazaSE9TUUnLlzUT0ET79h1k3vz58vsfv7uRP8Vdd91pCsahhx0q3bp2k3XWWUfpT4tff1hnwZVwqBPOT5oK845G+evQoYN07tzZBPrmLZrLbbffpsq6WzOy/fbbyxabbyEH7L+/3HjDjbb4fVHBIhP4iQMae3LAkzJFFYWDDz5YTjn5FNl1l12dsg8tRvSIgpOlaQHUPfwzIsJ7aNgrGYzmrL/B+nLkEUfaVK/mzZurspLl4tPvz87OkcMOO0w6H9NZtlUF5p2337F1JSgxAQGVRaCWgICAgIDlAgIJC3L/+vNP+e6770yIQQlBQEFIQliZN3+e7LLrLrLV1lvJlltumZgjzsLcDz/8UF599VWZOHGiulU5St3Hhf68hXnywQcf2Nz4774bYQJbiQpwRar4fP311/L666/L2N9+MyGOtDB1hNGXV195VcaOHWthjKEnWtNVp05tmTVrltl5xYS573PnzrW59V9/9Y28+eabNr+fOfjcDx061NJJepgP/9nnn8vAFwfagmJ6ghHKGjZsaOFpFDLmlzE2r/6VV16xXZCwt2+JlJaAVRBariiWrMFI10KGlhhx6NRpZ1Os/RqMb78dLruo0M8aijFjxthuWdBpx44dpV+/x43WmBI1XN3tsOOOpgBAMx6s+cjNyZWTVXk499zzZMj7Q4ymN9lkE1NCmO606aabKg1+ZvWAkQqMDwKFv8NGHWTXXXe1NH057EtTkOOgc6BI0+qnSzJCQhjQZ4YqV3wXNDtt2jRTMDrqt7z2+msyadIktXdKC6MkBZoXU6ZOkYMOPkguufRSCwM/RuuYgIBKICggAQEBAQHLBoQMlXwQaLjZsuOWKsB/rXdpJpQjkKGIoFjcfffdNh1r0sRJcvvtd8gXX3xh8+fv7cs0kU9t1x7cjBnziwXtRhPsVp5/4Xl55plnZObMmfLKy6/o/dOmoHz88cfy3LPP2XkHjzz8sCpAf8mCBQus5xf37Bo0btxf8uLAF2XAgKcsPtLAlJJ//nHnM6CAkN4/VXliisyQ99+Xb775Rs4551ybVoYS8tJLL8n9999v/tlelWktM2fMtGkwjz32qE3B+t///me92gigt952q0ydOlV+/fVXua9vX/MXsOqDNQ+MFLDuAtrMyEi3EYs11lxDZs2cZYJ8ly5nGC1efPHF8t5776ldttWP3Xff3Xakuujii+TRRx+VrbfeWo49trMK8ulG60bvWp9mz5kjfe7tI+ede66cd965cuRRR6py28CEfNaRXHjhhXKf0uJ5qpygTEO7nDtSgmagQZxyyik2Etm9e3eLh9EMRkBMCY5girfSKp0DdARQDwoL3VqUAq2vfCdpbt++vVx37XW2voN1IdRppn35URDqN8o/U7DOPussmb9gvrRu0zqKJSCgckhTwgv6akBAQEDAskFbDgRsBJ9+/frZFKtx48bJMcd0lgceuN+mbbRt29YUEXpuUUb6P9Ff2rZrKzvvtLO8/c7bcskll0j9+vXl1Vdfk/fff0+F9vushxWBimlRvW/uLW3atJVDDz3EenMRkGbMnKHhP2C78DCvnpGQgS8MlBtvukl22GF7G/1Ye+21VcBKlyef7C/bbbe9CWwoQFddfZX0vqm37LjjjiaAkbbRo0ercHeRvKECFYIkgt+VV15p015e03S99fZbcs8999hoCOlmFGXEd9/JHXfcLm+88YbcdtttNucfZQrF5OqrrpaWLVua0sRceQRFEzJB6PJbtRBJR4hJ7PzEKAFb23og5M+dM1caNW5kUw0Z7WOko4EqDijErLVAoEdpRlmFths2VDsUD6U/woU2UIZRYllcPmfObIuHLXH9FMV58+bJnNlzrK7UqVvHFIE5qrDUrlXbrd1Q9ygGc+bOsTAaNKivqUuTnOxsp2xE9FdUVCxz1U39evUtLYz+uZ2rIMxSq88oS2DatOlmx+gLoz/EPUe/lbrEN/Gd0DijQyxAr1O3rilVlmcRuQcELAmBHQYEVCVSqfPYJdt7O2+f/H55EA8vIGAlACFk3rz5Nq98k002VSXkB/nzzz/sHULPdttuZ+cn0HtLL26hCmw27WneXBN0GtRvYDS75ppr2oiD9eYCvXDHdBQW7B5+2OHSvfu1JkwhNDECcnbXs+X0006Xm1Tx4LwCZB7CREBjTn1hQYEqH9vZaAYLaj/86CM7vwBBTRNnQpJNP9EbhCtbgJuVacJio0aNSYWtccnJzpG6derKlClT5NLLLpV+T/STsWN/lVq5tdRnmgl/JHbLLbZUBWhH6dqtqxx40IEy7u9xJjwGrMJQGkFoh5ahFa98+HJFEK+vwj7KBLTZsEFDada8mdEh53I4+lKo/2aqkJtCEtEedOiVEJQIlIpGjRrawvLWbdqY8oGCTNzQZ4uWLaQea6gYjVA/tuuUxu+VF+JgOmCLFs1VSahjikJWdpb5J74oGaZQEB+jGCgwmdmZpjgQTm1VRjIzMvW7MuwcEta0GP2rckG9qKt1i3Tx3Xwb54OwBoo6Z99FtkRxBQQsDUEBCQioKijztYaJf2XW9OAy1xZG7+294ZkGCHcwfmPazBPnPdfKmBhYpGthqUm8j4fFfUBAVUJpNlOFIXbQsV7QevXkqKOOlE8+/sR6TBGeXnzpRXN64403yWmnnSbbbrutCU2+x7agsECFpxLJz8+TRg0bmYBkVUXpOD0jTdq2bSNXXnmF9L3vPlmjXTu55ZZbTGjaYIMN5JprusvlV1wu119/vd5fYySOUIRSAFAo7rzzTtlll11sWgzTWvzISLxC4NoJmEwzKTUlhCk2hIXBJQvYWd9x9dVX2y5DxxxzjMyaPdvCsoXtGiTnLRx4wAE2WsIoSP/+/S0fAlZtsIsbRMJomyMWRy9cTRBXgd2TE/Ti1nbg0IH7jIjm/GiYN/beArTbBPxak+ys7IQfFAFTdhU828gHiovWP2idba7NT7ab+sWCd1sU7sPWq1eWcQed49enPStHw8E9/1r3UI4M9pwuaWrnR2QAcdqCdpKv4fE+EVdAQCVArQgICKgKKPNF2WDeLVdb7KfGM3hTDqJ7mDvCCYwbhs7wvTFv3nsmTu2M7s1bMnOPlBCUDxsSV4GPbVFBFE15eEUk5csY4m78fdwuFaK0/CssKfyA6gctL8458AIJAhDz25mK8flnn1svsJsmUktat2plbvree68UFCyyHYLYupOD1KBZ5syzUN0EGXVnwo8Gy6nQrO/YYP31ZZNNN7HFvQ0bNbRDzzhPAUXkT33PQnUTxlQhQiHgfAbqHtNemA7F+Qqc7Dzsy2F2boOnNWJjtAQh0+w1WqZhxQU9FhIXFxWZO06Y5iTol158yUZY2NELN0wN+3vceBn1ww/qpqkpWizctdGWgJoHz4v9VenJUa6jGbtGArw98w9tY4e1dw8d8hzvJOIdfvw74N/Foe9wh9KccBsZn4YEvH/aFDXl3ic5NVREtuqWtsb7MaVDYXYBAcuIQDUBAVUEGoLJkybbNIxDDz1UDj74IDvw6dTTTrO54oWFTslAKCkqLLLeJOaSs9AVwYlGIi86IyHRKPhrBGtH1A5hiF5n6ynOTJfvv/9eBqsQZ+7V+PbF3DhfiWtymHEQHgKlyZRxkwqRvd+G0hDZ2agOSPYbDy/+Tu9NWfNI9hdQvaDlA63Ub9BAtthiCxPYmaqC/YEHHihrrb2W1KtXX0488USbbnXoYYfJjTfeKIcfcbgpA23atpFLLrnURjaO6dzZFr2eeuqpSrdRkxTRKMoGZyscedRRMuDJAXbWAtNMzjijiwwePFiOPvpomTZ1qlx11VUWd5vWbUyBYKEt9Yv1GYO0frE1KVuF7rfffqYYJQQwjS4rK1vWVwWHRbjQPlNKrOdYw2NUhsXGTKtZY401bCrZcccdb9NuOu3SyTobGFWhJ7h5s2YyaeJEOeXkk/WbjrFD49hVaEn1LWAVwNLKj/fLa8CyPMftInilJqGIwHrNbcwRr/x7byqCf2dhuNty8Hbxd6ncBQQsBWERekBAFeKP3/6QE048QV588SUbdkfonzVrtvTte68dFLX2WmuboMOOKqaEZGaYsO6EJr3m5tjiRYbR2cqU7Q7p0UVBwc5XVz+XHQGHnrQFCxfaNBbmCtu0EXVnIyz6Z9uh6jMCPoawcLNYo6ENFwoLozEIYMRHY8Q3+PC4IsARN+nGPWEi0LGFJHPmWZjJdBZ6pBECecavj9f3ljFiY6M29h21LL+Yy5yXl2dug/BWzaG0AQ2z5SdzxL1QT5kimFPO0ArPjERQpiglKAfYg9laNxgprFevrtUBow2jOS36qOzZZSh/Ub7REgvbUXSgFeoJi36heQtPPXEgInPcbd6++qV+sWic+sK8eGiNxew2bSbSdQryCyz8OnX4Bo1P00R6SMvChXkWTl19hi4Z0UHZqluvntF0A42bHYBq1aqt8Wsds4XE822dS+Mmje2b7QwJj9htwCoII8zoCiIaNUR2xqP134+AJNw7a0fXsTBw7mm9vL3juyjlCRKK3rmA9KJKBTS3cMFCo2/o3YfBu/iIi/Fp/YPWbS1LFEZK8M6/j/wn3EbthJ86bDuDBQQsB4ICEhBQRYDhs5CWrQnffONNya3llAMUjvvvu1922aWTzZkfNuxL27JzvgpPZ555pi2q3WfvfeTNt960LTy/GvaVNRz0tnLK8qiRo2SPPfeQiy68yObLs10pC29Z5Nj92u62kJcFr5MmTZadd95J+vV7QtNSIh99/JEt7r311lvl3Xfelccef8x2MTn66KOst5n0eVhjpa3gG5ruAQMGWDgnn3SyW2Cp9sOHj5BevXrK+uutL1dfc7UJgkOGDJF//vnHznJAybjgggvkvcHvySeffiIHHXiQnNHlDPl73N/yi6b3pZcGSX0V2m6+5WYT1pgO8+orr1h+8a3Xdr/WprewVSWLfTmdt0eP613jSwJ9QxhQvaCtRzkBCkTCim9avGKC8O9HFkywwhGvvF+cOy96ccKTp0tzE73z7hGALLw4vBsQDzc5Dp5jYSa+wdvplTVcfooJdghwJuBFz2aIPnIPVC5zwiJ2wIfnEbkLWEURlaVNp1Uw7RB4WucKzXK1ziWlefxAp9y7usD6jTLaZitd1lHF4cJjdyzXucMoN7RVqj/Um4Ryo5g6Zaq1B/BW1omwloOwAX49bXOieadOnWwHuR49epginpg6RXAuSgd/r1fvHxCu/4533n3HOhrYNc69VJMcTkDAEpDEvQMCApYXMGV6aWkg6BUyAUrtS0vTpLCIkYds+W3sWDs3YM0115BNNt7EzhTgACkag6FDP7CFq5tvsbntcHL3XXdbT+2OO+1ou/5w6i6jHGxV2qF9B1MOmJbC4ki2GOUwOBqHkSO/ly++/EI23XQzWXONNVWpmSZff/ON7LDDDrLHHrvbrkJ//PGnS3QMHNz2+uuvyeabbyZTJk+RoR8MNfv58+bL8889J3vusac1qq+99ppNu+LMhFtvvU0232xzada0mW1vym4oLPplTj9KBmc83HP3PbL22mvZtpKcmk0LtWDBfBnw1AA7bZetWmmgWbC8/vobyG677SZzZs+2aWs0uAH/EkvKQgh0eWHEHcka0X0iPLN3f+ZAnxMjAdE7AxfSh/F+FdSlxDVymoyE8hHzZ8B9BX4WQ+TWC1iG6D4u5AG/LsTAK996xpwlPhEB0Ntz9SZg1YQWJwqpVzSgF0byUEqNntXCjP7BI/1uariHTj0t4cYrLdY+6HtTPjx9EK4q1rwjDmtPIvfGC0kHf5EiQHIyMjNl+x22t2mALCovLooUHdyqA2iS6yeffGK7XLEzHSNz5sYC1n/9NhQhO+kf8EqjM2UDmo7C8lN66VRj2u8vP//i3GmaaRN8unAfELA0ZPTkZKaAgNUcS+OXEateMtTRnFlz7NRmtuRcsGChzNbnkaNGqbD+tc1Dnzxlsu3ic9nll5sywNkIf4//2w6revvtd2QNVRh6977J5p0P+2qY3HLrrbaV6Mcff2In4jJCwpQsRhs4y+DDjz60KSjsxjN12lTZZutt5P0hQ+Too46Wk046SZ+3li9VGWEh7oknniBbbtnRRlzmzZtrcXjkLciz7Ur33Xc/Of3002Sbbbe1g6ZYTEuPGfPcCW+vPfeSV1971baKHPvbWJv3ftnll8lmqrRw+jOjLXzLjz/9ZNs40hATX48ePTWs7WyxMBnF9KqJqjTdesstpnCM/3u8pvt9G/UgThYyc7bEEYcf4XrpKIBKFULAYlhSvq3MPF2WuOLlHb9WFEay21RIfuefqfzcV/QepHq/BJhwtwzuA6o/UC4QsOHXnMtBJ5GfyorQzaYD8DRGIZg+y8YF06fPsNHhcX+Os22b2Yaagy9ZK+imKLptfQn7999+t3BZ44QisKhgkZ2zwRRERjnY4he6mjhpokwYP8GmrbJxAhsocN9UeTHpYOorGzfgDqXfnYaeZierH3zIwTZiztoq2h4M5+pMnz7dzgBh2iCjO3SMMRJN51WTxk0ihSjNpnrNnDVL302WH3/80aZ90bGFUvLHH39YHrBJw2IjkwEBKRAUkICASqCysgTCNoI889AZUfjj9z+sIep8TGdp2aqVnR9AQ7HpppvY6MYff/5hSgULWt9+8y0b/dhqq62sh4kRBrb1pJF7++23ZKONNtaGa5IqFF/K559/btfvvvtO1l1nXZujTmOx6WabyhtvvC777LuPNG/ezGQrlI+hQ4doGG9bj9WYX8fYqMNGG23kEq1gXvAdd9whF154gc3F5xRfpkHVUkWhZ89ecoCmY91117WeM0ZXWrduLZMmT5K2bdpaA8T8eBb5nqbKC43pEFUmbGHvogLbvWi99da1RvLXMWO0UZ0hrVq20sbvH9l3n31NeaJBRDFjmhjnRoz7yzWgRx55VGJ3okoXQsDKgS+TpRmAPJLqXbLxSGVXEZbkxjpjo2lcyb0M3l9l4lhWrIgwA/4zoHjAIxmhhi+z89pnn31mmy3QmQLvo8OGgzg/GPqBTXWis4mpqKxV+lX5/nPPPWej3SgHo38eLQ8//LB03LKj+WcK1W+qgAwfPlzd/ChbbrmFjSCffdbZqogU2GgDHVCff/GFvDzoZVtT9aXeN1BlhZG5k046UY484khTdui4GTHiO/nrrz/l/ffft7VKa6+zjnzwwVDlw+vJ8SecYO3Rxx99LN9++62M/XWsnZEzXhWrLbfcUv784095csCTplAM1/cffPiBHSQKUffr97jtRDds2DB58803rUMLP5YvX38jYzXN8H52w8vOynHVINSFgAoQ1NSAgCoCjdQiFbjZLeeiiy+2swfOv+BcOeGE47WhWlOQo+2wJkVi7m1MKGKhLIu3bQg+YtpecGIovnbtWpKjjRXrLzbcYENTINhlC2aP0M/QPkpNhhqGyxmex46eqnF/jZO999pbjjr6KBuJsWFyEMXPwVMs5CUNNmyvf+zaxaJyDp9C8aCho2cLNzzjzjcudh/BphZoXhA2jS9psgWLasGCSaYKuOkHzj1TC2iUH9fGjW85RNPHrkn0yAVUAcqKZsUhOY74cyoBZGlp4j0kszSDu1RuffhUHyU0myqjsAPbAGmKuwsISAWlD8e7RL74/AtTCs477zw588wutv5h5MiRtpU0O7VdeMGFdkYMowhvvMn00VLrmGHnt8suu8xGMxhJ5jBLNiRB8UBJGT9+vI0snHNON+nW7Rx7Zm0c/lu3aS0XXHC+XHvdtbbZwYeqDJx62qlyzrnnyJprrSmDB79r7hg5YeoXisl3330v5+p71hfutvvuNmJNOwBPhoczjReyP/qYo62NOvfcc+WQQw6RU0851fj6K6++Ip127iRnqfLTRb/zC1V06Ej77rsRtqFDt27d5NxzzrVzf9iG+ocff7B1ft00/ZdccrFtSf2RKjTWhqWq+wEBEYICsrojVeO9upmqgjLbzOwMKShiu91o7qzCdgzxAr9luBPwcVNQGB1UptZuNxHm7Lq5wfRmITghNDE/l+f111/Ppisdd/zxsv9++9vp0nPmzpH8aIcqRhMWLcp39xoFuxQx5N9how6y6267ql269O//pL23xiHqmWYYf9ddd5WBAwda2lhvwgFvjL4cdNDBtoidE3OZUsD0gVatW9vwvkunE+qYMmDQ8LDnu1lYTo8cjTVTCVjMvnOnnfU9Du3HlCuG7sePnyAHa1yMmNCL1rhxk4SbgH8BynlFgiLCxOsScS6t6FK9X5a0xt2m8kf4au8PA7U1RSjG/l1AQCVAZxE8mG2fN91kU5t2RCfKNd27yz777Cs/jf5Jpk+bbqec02EEH2UNHCMPG7ZvbxuBwOPq16tvIwaugynNRqbhtfA+lIvHHntMHn30EVvLZ6Msf/wpO+64k8UPHTNSMXv2bDtDBzpmC2qUId+ZA69nC+nrrr1WFaGL5YYbblRe/4TtQgevpjOJ78BdTna21glNh/4NHTpUcnNypGmzpqaAoCwN++orufqqq+wAURQQOp5oa7bfbntLD6e6Mx2XHd84z6d5s+bSqHEj23Hx8MMPl/ffe9/qXcCSABOKm9UP/04B0TyjIlChWB+1WH5iAqoH4uURyqVCwMi9iT9XBjQqCN6tWrWyLPa9rfQ+IR8RDlvbohiwuw5KSZ06td0Wogrm/tqiQxxEzzB+/DGdCsbPlKd11l1Xumvj1+uGG2zBN1OdiINTc1kYSUPnF/yiQOy+2+7Wc8e6kXvv7SPNtKFhulMCGj7zlhlNoZeOMxXuu+8+O8eA9HTu3Flaa8N2ycWX2PoURlCaqmJhJ/AyKqLpJc1MO4Mf0PCwGJ0pV5wBQePKCdJ33X2XHHnkkTYNgEjpQbMGURWrLTtuKUdrfKwn4VRrGmVGRhIjRf8GFEZc//Pg3hve10Tjv8/D38ftqgBMc7IFqgj4Pmwj+piJQFvhdxHyKCnWZ6z0HWFRj5JNSWT8c7kweYy9I3xzo+Gx8xyCG/RHmthJTt+69+bZXVZp1IRvWNEgj7xZBkAnCPHQDPwKwR0mTkdP3sKFxtPpPGKKFmHDM+HFjPzS8cIz2zJDe1QJFAbrWFJDnSlUhYB1FvD7li1ayh577CE777yztGjZQuNmoblbk0H88ENaE9JBmIyw8J6psrybPHmK7YbFGVTHHHO0XHnllcabSYfbxl1s90PWEcK3mQo2ZeoU2WjjjcwdYbJbFlNw99t/P+nWraspHdiz1TZKTH7+Iq3DTokqKCywNBA3B+Ji8vLzbGOUxI5xKxrLUabVBp4HGWWsfvh32/CqT7zbwicVRKhMECXPJjjoeypbhVg983zlgxKmrPSixePKxy8Si96ttohlg12jG0gT2i7VGxj+ksjYA/cwZBi6HWamSkBaiSolhE64GgZTkrKyMtQ4RcQaEG3PclUJYXib3jU7/0Idc+YACgq9Uqwt4YqyQjzMNaZBadG8hYU7f/4Cq3OcXzB37jx9F531oaABJGxMgwYNbJEg05tsL3gPkqjh0qOFO+Kihw576jWN5eTJbgE9/mmIFmlDREPIokau7MTVtl1bU0BQPFh0yVQEpoyxaJ30oJwB/M7XvECRgUfQiUGjyOgKPISD3/IW5tnaEFPfyH/M8kDzl/RZgxiVr79a2awGIE+BjcTpJxt/Bv8mX8k69cuCWQ7U5GTytddeRzp0aG/0Az0x/e/XX3+Vdu3a2a5sTCNkHjxrg377/TejDaYS4g6622yzzWytEb2qhM9UFBTVjlt1VNptaLvIUS/YcIE4dtppJ5t28tNPPxntUh+23mZrfZetNJYv333/vb6frvWortxzz922UQLp+v77kZZetpVef4MNtP7luG9axYDCZz3gyMQUaVQmqwlZLxs0T1A+qQomMPt20OdVRfUges9244wWnH/++crLsuSFF5630QjWwz34vwfliiuvUFqtbzsJcoAl6/nOOvMsGfzeYI0zXY4/7ji56uqrbBQFXnT+eefLYYcfpnVjDXnuuWflTHWbpYrMo48+Kvvuu6+1DdBpt65drYzZufDJJ/vLCSecqH7a2igLPJkOocMOPczimTBhgq3lY9t3ePQzzzwjn3/2ue0wyFSrrhrWCSecYKMac2bPkc+/+NzWHLZo0cLyg3rDVDCmb1EXWQdy0EEHyfPPP295xtSq00473UZ3zunWzQ4d3blTJ3n22WflrLPOtLbg/gcesJ0UDznkUEeTKwJJ9E2dNh7ny7C607+lU1sfo8dojeNqiKo5B0RDgHj9AWZoyzxTaVBMsnNy9OqGMW1ff+gkTiwBKxZRCSNEwtQw9E6bTKLvjATS/j0ZlIMFl6qAiSu6XRagCawAOMFMlWi+X/PBskKtrAfLBHi3raIX4JYE8hf654p7aD+RvwrsrNGjzYvZwaV9z3E8Hi8cY5dwnyLzcFfO3jN99UJaSIc1vNhpWNgx5crFbS4dVIgph/g7F33CztJLuvgeRmnocY7SYXeaXnoKBw16yUZoWKhoChl+9A94t1xRciJr4xuJtGGH4T6enkoCZYiGkx3J6K200SbCjiKr+m1+lyOR/wJLrbaWnKhxtjs+n/U+ufbtrBeqFJI/K4oXWmLaHkrGFptvYZsjMN2PM2S+HznShCEWyLL7GefWcIbMJZdcYtMCOYvmrbfeskWtnTsfa6N8jLy9OPBFue3222zDBE4UtwMH582Tyy+/Qp544gmb986J5ijqjADihwW69NCysJZzCehBZpEvCad3eNDLg1TBmS2ffvqJLZ5lOskeu+9h07KYEsiZNasi2D511uxZ1slQjk/ovZlEwS2NUP4NUtH8ssSXyn9VwnEcYiF//IgFsshSFZDYZ+D3xRdfNGGcEZEDDzjQDp2F7kYMHyF3q4LLSAVTXVnjwdqQiy+52M5yYsoW6ynOO/c82WLLLSw8RqSPOeYY2WnHneThRx42uoSPHnTwQbbOgrqEIt6lSxdXtvqO9RbQOxucsHtg167dVN4qkEMOPUSGDBlqHU/9Hu9nZ0rR2cR6xBnTZ8gT/Z+QSy+91NZ1nHjiiVYP2OYdd0yTZVSjSZPG8sgjj1hdwy2KPryb6VRPPf2UKSpswf7aq6/ZzlnIEWwicrl+K3WSqbacM3XEEYfLGWecYR0EhhVVvFHZ0M4UFCyykfQyJEe6LPQYx4pIPGlhNIvdILNVvuDAX+yUFldUXlVTLJsCgksyKOaDSoFQhebNjgpoyFQSpnIwraNJ0ya2Lec222xjQ3lOAHB+ETQSYQasUPw46kcZ+OJAa/BhML533IFCqDwZlEeyP1+YXFMV7PLGlSqs8nZpCMXlULl4SlWKY+qSicNaHWCcm6swdeKJJxnt5hjNVq4rh158hAEYCg2cIZJxEbJtEXpMaqT2JdzxORUpAcuQZXyDF+yZ6oWQwtQVOgES4YHy2bd43B6xNBi74JkL9TeyTwW+l/nG8Ac79DByRxgmEOMdkype/w4/GP+8jOCUa3ZxefLJJ+WnH3/U8onPS6a8l1cB8R+dnKgYnfh0J5DKj7dLhSV9sOahel16lhA+5e8UsTSlzXXWWdd6QqHtWrXrxPJ/CaHxKjnZahDEWHh6ySWX2igXwjC9rhzG2afPvbL//vvbiMg/E/6R+x+43xSSXr162agHC1/ZxY155s8++4y1DTvv3EkVmhdM0dhiiy3MP4rrHXfeYdP33nj9DVuYy7RA6AjFh7nxe+29lwl/7NDGIt6TVAG66qor5Z57+tio4Geffqbx3Gi9xtf3uN7et99wQxk5aqT13qLwrFIg/7U8PvrwI3nl5Vfk408+tsW/nAnhp+1YXcUdSFseOk941tuo8FNpvKk6h5YlvtLK8VZiSRHT0uF5jf4wgWnjTTayzTj23/9AGxnj9VKHuKP8ZqSWM5KYbsUoN+0o9Qo5aNzff9sIBiPE7CTI2rhZs2aagA8PZMTBbZnulENGoZGRuCecCf9MMH+NGzW2ciwqKrRRPRQJitIWkusNdM52vnVq17bdD3nHTootmje3sPOUDiZMGG9nfjRV+YuRZKZEMWrBCDajhw0bNrIRQsKnE4HptKSREUTSMHnKFLctb+NG9h3UIT/LhcNn6aCDpzPd1/Pyf/6ZqGkpsXyhDSRfXL6vAOg307nEukOUIpS8H0aNslcuf5Npann5fHI4Kei/UohnBGGUSssWzZRv7Smnnnq6zQxIS48UNl6vqHyrZqi8AqKucOqVBogWgoX47rjjTnn++edsGBw3GOvtVLe4YYcdFjmh2bNoivMLCMPCAqtJZq8UaL6S574MEDwZKmabP3pNKDcYjCt2b5aONBVgUsGYj1Zurhy4VwbuI5NovFy6lgYnPi+ZYZhwbeGXISGQaVrclZ8lhxNPj91pIHwHcmrdevXk+uuullNOPlUaNW2u77ShMZdR0KngBVrLF0VJdCUe7HhM9hwPlHv/viL7yiLyQ5J8cgw+3Mq1+4sjni4QT9uS7kFyOnj27+KIu1tG8L3Ugfy8POuV7NPnHpkzZ7YVAfvz+/phxaEGWnPRVZwhvC976yjU0b43/JbdA18ffPil4nroStQ+8ckm0LknC05veUovV5ccPCmBdKNbaNX5TQW/4xouXFpVISvSzFGLunVry4UXsQPOebZ2h/cZGUkN4OJJKA91xyGVZ515pikM7NCGYJaT40ZX4PUcmmlT3zQsTru/odcNcqPyov3229fOrGHqVd++feWRRx+x3dUY0XjhhYHynCoFLIb1glHv3jebn8HvDrZFvoxaeDz99NM2zQRBjd5orvvss4+NtryswjmdC0zvOv74462X+Zqrr5Hbb7/dwqUnvPs13W3e/FK/t7pA8x3hi6k6vW7oZcIniUf45Zt8WXvAtZb10yCB0kiJME6bgh4dcFkeODX+rUJ55eLFVSVcqhPSEq+lvgNhCdXAWgCnemh7qCkr1basdp1sOeigw+Xuu/pIsxbK232gPhyu5SKKriCeVOwr85FJ7ownV8xuXKJ5H8XryhWZyj0nkBx/RemJh7ek9PIekyoeUJlvBUuLZ3kQpcHzPKaHsV6RUczi4sKE0kNeuTVmSi1RXchQz/Fqwdtk3un55ZJgMyUSmVE5mOuk+mN0q+lEqdxa+eC1116vPGt/SUsekVt6klZpLJcCgrZPwf7++x9y1llnyVfDhtmiU6ZZcEJz23btLIMhBD8/l+FIzjygsbv22mvljNPP0AbLaf/8LUbwAcuHWGnS48HOGrfc0tvK7pRTTpHDDjvM1hnw7Is+zSoVHKoiaHlHjD4OhDD3T0OjdAF3ZD6jIqEM2K8vXMIoNtool9AkMCJhYUewcMpxD/dO1Vs1ZfbOjzPu25gKtfSdONJK3WhQqQoqKGzFxaXy8+if5YH7H5axv/0txx7bWfo++KC60AZegyUpsdQkwaUtgbjUCP4LOvdJ8klJfq6BmD1ztlx08UXWO9xho/YmDG+88aZudErBpzuFgMyAcpRf8aICUGwZS8wwGrvoNgGUcq6e3h0tenXHYAmJYjYFXS9qp4xZX6m91U11opd4G2a37lXFsDColy5t1ImF+QUyefIkuUsFrx9/+EX22nM/eebpZyQ9M10bQ9Yl4VD9EkEsvoowf64qIF26yEMPPyy1tQ3A/+jRo22eO/nPTjyMbLCl8x233yFXqsBwy803y/4H7G8HTo4a9YPc26ePPN6vX6SAdJJBgwbZiBXTUFAmKLO77rpb9t57bxny/vuyzbbbmKLCOqKff/lFXnrpJdsRqFmzZjJl8mT59LNPbU48U0OeemqApildpk+fJscfd7zN42frURQOzwOvv+76xAL16odYIUMEmkjykjYUpY+eU7Zu3W677TWfVNVQWvJClweit1cmlgVGf3Z1gJowHvZ+CbzcdSItjUgBbsq7M76elGbfXnnwTGribUBqaDlrPTLBVP0wEvrssy/IB0O/lEMOPtKUuPU3WN82KyiXjKrk1YQbT2byc0Xw7ny6lv6plQt3RWNFpCMKE+WbM1NOOeVkky233rqjnHPOObZ2DFpARrXR3lg9cPJLeXpMpqfkemOs0PNmD+winlwRnJ8kfwofneOxJTJ3zkx5/sUX5eWBb2uac+TlQa8qT9zGZi0kkvlfyAsrEcs1BWuRNmKTJk2Uyy69zBaZciYBe0ozzYrQFi5YYM7nzZ9nygoLc9nV5oUXXrCTQhkNeeB/D9h2bUYoBKr/ZgL+FcjvoiI3DWisKn2dOu2sDdYia7BYPId9+SJXJm7agpq4dQQqi7kvjc+vLINn/ib8l9IA2p3Z0Fxx7ytsOk5M6KORNKsEzIVaUt/MV7lK7iqzU0wcHLmUr+gWpDmI+S0XTgro6/JONA5lDgyBD3nvIzmv2xUyd16hvP/hUNmww8bKKDKtpyQ5/WVIiq86KCCrGQoLiuQjFTRZIEmj9Hi/x4yxu/NRtIQoIqPTIr1Aj5Sno1ajKytfV25sawxssaD68fZGAJgoQFvDYrTo6Z5IeM+/p3cUEFVwkzQJ59b5AwiLaSjPUXgei5Oy+lzMLg7CZG0AI6EaFunUsLkfPvw7OffcK+SP3ybKU08+JQcfcogpINTfSvHjKN6iwkK54rLL5ZjOnVXB29gOXHtRFQK2cGa+PDsBEfYXX3wu77zzjtx99912sCVTq3bccQebgnXXXXfJUwOesulcjGywpoR57ExXOfOsM21ThacGDJCzu54tA/TaseNWsuuuu9hoLmtLvvxymFx00YXmn1P72fwAt71797bT+9kG9eGHH5Hnn3vODlC75557ZONNNpZdOu1i7dd3I76T2++83X1QtUOU0Vounm+zLoDF94zmPfbYo3LwwYeYfbLykeDzJUp3Rjzu2fNsu6iVo78y8N4JUc6PvY3CiruEPtNMSSizNV4fKQ6u3Yj7cMAmkTaDD0OvkV8bcSmlDpTB/LnbBDKVH/vvsTDjHiLwBWXfWGp8YMT3I+TSi6+Tzz8ZKd2vvU569Oyh9ULbn/gQQ+DV1QsUoZYvHQ+33HyL9L65t42G9lP+zkYA9lJpAAXE+Lneexp0k20iOtN747Vm5+miPDwPd4q7o0kH3Kf242GjbDE/jLi5q28HrIbZ78L5+XJd95vkkUeelGM7nyA39b5Z2rRtZ+4NNZwGK/95mucUJjuekJHskvD2O2/bYkAIYeuttrYeLOYUcnLnPK6L2Olmvttxp3ZtOfnkk+XII4+weXsnn3yKPPfc81YI/AdUDah8TFsAAwY8KfPnzbNRKuZ8M8+UionSh0EZodcHYRumbNckk65umEKRgbtkk5kl6fqOhXzMD83ITNfw2OHJmcysdL2mSbbaY9IzSyUrR+2z1b3ax016BmsUGJLUayY7N8UMz+o3Q91kRob7cm7KudUwvcnAePcpTKbGmVmk8Rdoji3UDMzT9KhQmlYge+3dSS674iKZOXumLVKdMXOm5WtA9Qbzn5nvz3qcHj17yvbb76C07w4/NLpXWsww+sxS+sSwKDUnurIoUOlaCQnap75YneEeAoNjGr/SBsYaFr2qXbrSmYXPFWd6NQM9anWE9tMzlNaU5rRaaRyR4Tkynia12qhJU+FK65PWK2+or2WG71A3GnZmlvpPaYi7WOMu0PtCvS/UuIv0e/Jl2+02l+7dL5Oiony59NLLrLMiIRTyfZXhyeqePGQaxNNPPSW777abPPXU08ZrmObJaCuj3vvsvbedws8uPEzHpS2oXauWzacnb9u0aWtlRbPNCDm8iKlcbOe59977yOWXXWaHubGzUN06dTVstpvWvFRhcbddd7O82EfdsaiduemMrNetW0+uQ7Ds0cOUHdYkrrPuOrYG6KSTT5K333pbtt9hB/l1zK9y3vnnRR9UjQEdKj2wnXCvXjdoW1skV155hba/B3gH+l4JT925R0e3+IFumdphV322xtyXr9JZ2Xvcq50KXXRKmXLBFfpWWjNaNgPfVHpWY370nTdG81EYFg783PPmyGSqO9qFhOFZw3VXZ3BDW0I99SbetmTRtmRrFOnKt9Pz1eTpvZqMfE1HzChfT89keg4b5GDodMiXzbdoLwOeekyat2wkT/bvJ3//Pc7WXEQzd5wJqH7Q8mFLeUZMWWDPNMS2bdsaX0e+wSCvmEwSPWPSlV7SlcjSlV85Xq4FbDSebKB9FHZHu8gjZtQOwzvnpmKTrsZkmTS2Oi5yvD2dKx3DxXot1ittQYnUb1Bbrup+sRx+1P7ywovPyrPPPLta0V7lRkBw4V1p5nDsPqMfLGy67bbbbNEVB6WxLzZKBz3wdi10V0ZA6J1auDDP3n355RfWE0UvDsPn/sAxGvCAfw8WHXOQHCMeHGg0aNCL0qlTJ3uHAKC1xO4dvCC1BDLAeYkK5amcLFZkiBEeWiF50ooNldGQud6AxePjqSwo56cM3GM0rUtAOS8GwomExAqhbqwXnCvuXSDFRTCNXPnl5wmaj5fL96PGyONPPCX77LufCUAVU6rzn0AYAVk5INujrH7t1dfl/PPOkw023MB2ZlljzTWi9zFHBp69SYVke30uLYzuUwE6c4KXAe8Wpz7ToxzRlnI6uxpi9p5OE48WQOKhPMwRBj8VuCln78Km/vGXlpYp//wzRy6/pJe88eq70qfvvXLyyW7nGhScJRB4GTT4UpQIbfynTZtq60Fq16trSgSNPkDwnzljhjRs0NAW4zLVi+lxtB0oKXRasSkG5yCQ2n8mTJDmLZrLzTffIueec44dslmHxbTNmmrDnSkLFi7QtKfZtC4VefV7Sl0caljPQRzYMXqCUMJuW4wKN9E2aq6GhbDCotoZ06fbLj9NmzWTRo3ceTvVE2VlWKLK09dff23boKJgPfjgA7L1Ntvq91GePv3qHv5u3iK/Cf5eFlZ5YO/oiDvy13hhgmYQzOw2slfDs9KgubdfDL9c6QOOwsOpek6Qkz1z48J2iPwnaDqCaQMe6ikRCHDhl7UlaqwulXOkSH52bpmWWFyUK8cdc6YMHfKZ3HzLHXL66V0kS2kykZUB1QsUuZbNwOcHymmnnyYXqHxzw403aJGjEPspV/Hy5j6ijSTjRviUd9k1gnnnvYKL3Tt3zqi1EXTkpkLw3hvg4yiLizcutekqH5fKZ59+LUccdqLs0mlvla8HSKOGDS2u9OyaTYyV/jq28aTXaeI/E23Paxg2PU7s0c4uCwsWuBEPDrwxpUMbFkY6MCge2LNVWl7eQmnfvr3NXWUv6gcffFDfL3AFGy+zgOUCjS3zXNkZZvTon21ocrvttnP5C1IxaOwSxlmVswPl3sWMR+K970mIGi0z2gDFlUtzW94Y84gbTwtmeFZTLuLyxi2STDJx5rIYYu6ID9jV3WdoemlM11t/HVXetpfZc+batqITJ06UGTNmKtOoQCEL+G9AsUXFPXr0T3YWS6edO0k7hrOtnPTHeAzGPSaMeeaGAOIm7kifTVFlnQajwGXGueWqxpSPyJjyG7lTe+iJP6NLb+w5Cn8x4+NOYRJhpHi3mAH6jdxqveRC6G3atJY99tjdRgVGjhwl06ZOsx52OosW866IW5kh26J63axZc1l7nXXshGR6Hr0btvZkfj2dVMYDNGIOXGP3HxwwYsHIhuWMfk+Lli1NeWmiSkz9Bg3s0MpWrVslFBp28WF3H78OEYPSwXaha6+1tp1DgLJjArmGv9aaa8naa69toy6tW7exNKCYcMjbhhtuqIpJ42qsfJQH6ab3d9y4v2QDzVPOaUD5cEKROjCjP/6ZnxhPc/fRtZwp8w/ftkKK0bGzi4y5SzhO3NoNz3qLO7PXJ1dGdltmKkIsGjNRmAlj4kpkzE5v+Unwfso85saMOVL4QPWbtD6WFLuD+HbYYRtVavNsGt/s2XNk6tTpUlTIdwdUO1CciuEjRthWymxqxHbypnxY2YJYOZuJ7pmGCK9O4rvUHW8cqTj//Dlwx9Ryc+6tlm5SwtUPb5wzRkPSbflCLeVtyG2chTV58lS3Y2OFYdUMREVaGbhCYeTi+++/N+a3++57iO3BXMj0FTGlg8YLgxLiTbFWdt6xnztnhBQVFckmG29iBfrcs8/ZYVMctFbTM3tlABKHsc6bP992/mnbto3NlabxsopGRYyjXJ7rA/+JmpYE3xCkMgbvj6u/13c0ENZI4NRSuHSTlpFksNerN5XZutG6sog32cTtgV4T34HR9xaf3jEVINsxIBa/ISRNnz49sc4poBohIgm2oQT0mrsijtMj13jjxEWv1A0v0CcZJ+Q5Q+NFYxc3rlHTa7m4CM/Riwl4iTjxn8Ko/0R4cYGvQhAZHBmFyClFpMPde6P+CYJOiRL37EK0hBqfbq55BNkzgu0Pk5w3163di5xVmBReu44D/+AucdhuNGQBU3WS3HqDUmDv9CErUjSYFsVII20F6Ta+gfJgyoKKBFzxi33MeCTu9IavRlCxXW74rDJnqxQoQ0ZtaFNbtGjuylMN9nG4cudDIwsP7OLw7qxwk42CrF6S8e7iEVnmks9lvNyUAm/sWd8zMuyNtQ0Y3vt7jL6yKLRWRNf4O4fo2cKI/HMfN9hZugiEe6Yw0qZwAGyO0lmGKiELNR+LZd68uWrmO6dxJD8H/GdAjmT6ZdOmzawMteZH5QsoKDXl6BpoHfH0btbUHfcmgcjC6o/3Z/RTBuKCppW9mjHZRJ8XM+rP9HqM+XPGw+6jQEg6HZ50yrABDtMrObNo0sTJjg9HSamJoMZWCgiwMD72UWe+7qabbiqzZ88y5YKpVjT6KBk28hEpHv6edxx0A1gASaPEH7sxcZLnX3/9ZQqIbScYL6WAZYeWKI09DS4NkxfGIGJjulqOCVglpBJwq1ezciMokaUz7sVSDJdku/Km7Jb7io3+VGBcsswYlkIs3s9i7nwgfDNuYsaDfFLOwDZ5Tnlz+ccWowhuKCHsu1+Wln+BeBhVEd5qDngS5cXhX9Y4LQX0NMGTyqaxlIcJt9HVWoulInLj3VqZWghLNslCU0oD9Gq06p+VkrXhojMobheHCd98B9+pz2b0mdOSkV/phWOUACGfnQtZf+GqBj/q2L4hBRKBORNFkzDUH3sHuKYwvoy8AuG3cMeaaVfJZejKo7xdRcAdyor5IHz9Dgtf/1Y1wM+ZIsd3cM+oEPe2exPfY+UU8VB9ZuOEsnLTGyvLMmOKi17d4+K8112cvTOE45UB4PMQC2cSrxQIYjaNivY+iqsM+E02oOw5vq27j99kh+jegosHGUdC+qvIgQsT3k4sLAko1rDpIJ01c6by9gKNzLkzlCUl4L+EFie0RKk6Pu/owRVQVNb2HF39fQzqw2i/qIj1cPhzhWvCvt6zNs1oVh/NyoIoTwDQDQZHFj/0vcxQf0qf+Cc9yBWkjVlF8E12u5sxY5ZLTw1F6hY3BSgoCogtFsl4dhbBzqZcMdUqWv/BDgVmFqnyoVc3KuIMvWycll6g7pj/y57t9OighNBLvzAvz5QZK3Ar9IDF4PNlKfnjK5arfwjT8aL2GYzQRe/nIuderYqpUFbrcK92vt4lC2cWroujzB3xuQrlTZQAg5smpQw/LcOu3kT9vjG4xscbJ5CVuS8zKkbYO4t8cVgeqDsLQ68l3Dt/ehMZhbmrANEn4ATlDdpn+Bdadb1m5VO+3IglJyAFfP7E8yiVnQK6Kyf4LgWZqliaMJbkIUHD9qDvlHaMJpWmUhm33od7d2WkztUbR3el0J5d1V6Nu9Ljj6FO+PvIj4VDvBi9TaSPa6wOaThpaWxpjiDq7RG49eKh35eGUUt7q+HhMiPmCAUbnozyYVOxlF/z+a5D4l8gno5U4L2aRFJIoEf83sO7W5ZkEU48LMJIFXZ1AN+V4ts8LVpbHN0n6DMCz/AoOpRcGxCHe8aNCTv6iG+nnJEZ5WmbUebyRj1oNXHXGH+2jHQG6nJ0mKntCOFmqRe9sltVxPednxhIhI2E6HuqIe/NDf6dn3TzT9gRfUfvXbxql+brTRwEnMror130x0/L0bDYvIWzVBYV5NmBmt5JzFvAf42oHCh5T/quDiytgPDh4OhdFfcMpooqzUBXSkPQVnFRifFBo6lipTveWdCO1qBdmgqj4YgW8Vuq92ZnbYCPK/kaA/XU6py+1bSwEYRFoz9UW9a4IVfPnjNbr26GUU1Eco1dImikp02bZgwOoCzQSLn1HSgZRTYdyxad67NbfF5kmiYMDyXElBTNWMJCgyW3oR+2TuRkTk4LxY8TggOMIXsTzxLuk+1SIubAalIUGIyXqxI7jP3tt96ViZMmS2Z6llbMbH1HGWO0knlmTyVTuxJtjEr0+u7g92TM2N/knXffkw8++EiD1PB9xWSxuxqrmIRj9lR9wiQ8BxXx9AlbV9GNmVjF1Gf1bw0ONRLBTOOlkv/w00/y0ccfq3ue9Sv4HO/XvpfpJsVKd1giXKbJ9Omz5aWXXtF3/ntw5+b0u7xIAoEa4kKou1rPo15Zu8TC0PLgTdxUAuqMJHlTMYg/blYTJH+qPpvMEM+KsuLS7CQj9Z9yja/JSDKFRYtkwYJ58uBDD0jv3jfKddd1lyuuuEJ69LjetjplShI87Kuvvrbtw4nTTQGEVl3DkxDMSAPxKhL0Ys9OmHPsDAEP+oMmqRM0Wmq4R1DT+0UFJfLFsK9lypSpjtyU9hk1NqXG3NPrB9/UcAhLwxbJku9GjJaPPxpmbly8CvwTCHlA5cKpfne63qOf8c6JnFiXWk+bE/LSbDdDeDaB2OjJMgDX3lgaymf74vDBc7XEJAG7coEqsKusicPb+XCWBtK/sqBxwUOhHyt7y6+yDzdBR2nNG8cPnT8D/BXeGZUXbTKHNF551ZVqrpYrr75GTXe5uvu18sGHH1o5oxiw/SzG+K7amcJJGCgySitm9FUJdhE/h6+79JFonwC9Vb5pvbka9zuD35WFi/JtZO7dd9+VPL3nU+ywNWQI/XcmitvCVT5vyoT/Tr1VsPaUHY+efLK/rYMxaxJlacKvrw8YUJYmuy/HMCKkMUXS0bh1DtDGZPC9xcrb5ydmbSS8paJdb+9NLPiAZYTPO5/fS8pLLXYclHUARteIYLQUjX8/9MjDcs3VV8u13a+Tq6/qLtdcc61cftkV8t7g99URdYq2XGlGaYjNKaZMmSZ//P63Nf/PPPOMzJzBLB99sPKlfkGfjldDa8g906axboi2BvolYRjoKbpStyx9Goi2STY11wIskx1IL/XMtklXw2YdmaoQ5+cvtM79mgpyaemI8pTtzZg2BWBuTMUqVOWCufFFpmQU2EiGn35FA8Y+8eYW5QRlBQVETV5enrnNzlKBV8P1u6/Q+8Z2eDYEvyQCXA1BwwRzZ+pPmVCsBlpepryKPCGUKGNGoGZtD6NTblizRJVByofpdYU2jctN71BfGi9/TN34dvhwGTdunLRvv6Gst976ifQVKy0UaVmXsGWz+vP0gbBOeF5ot2F5ZSDmXu2KTdBiDqSjHfzaCFt+QRQvjaPIB0M/lAYNG2saNByTpBi5KbEwFqk/7ul1c+61uczIlVkz58p77w3VSD1d8e3qP2qAlgyYg/3aN9Jw0/CRzgKN799iabGv9qCIMZpRfpMLaNQEcy2PVKCs/J2rIOWNUp3xGBqC9wYPlv3230/22nMvOzukRYuWcuutt9ooQE52rrRu00YaNmpkvhDSWaRKY0VvGdFDxpB0kT4X6zsUElPGlb3SuNE45S9EmMlUP5G9CnC458wSqw4ImhrO9GkzZODAQVKrTl2bEkKdtHj1r7i0wL6boAs1uJJiiFJpXP2OHv2b/DjqF3uPscAwpoARZwzQMMbf2w2uHH3Dh32+0kT/K/xL76sT4HkITW7ed1Rm5B+3WoxlNK3AiT17E8Hc88w03Ez57NNP5cCDDpL99ttfDj30UDlI7/fX+0022cTx4yLXZhcsgtfjFxpNUwGc3SzLeLIVYxQuaSlSuoXM6CRalO86e3jN5hzMY587b4E89NAjMm/OPOGsjs0221xycmpFdUfrS0mGxkmd0XpQrMIftGwKUKYUah0rNEUsXXm8o/e3VIH5+tvh8o5e2amKNJmipPS/YP5CR+4kD1hisfDGv/BXB1vbpe9xwSto3qbcqmzJd5Mv5VA5aSlgWUGxaCF42YZreb7OfWSsM4WOEi05dQfvSrhN+NGrlh9rega/+45svfVWsu9++xpvP/CAA+XgQw6WzTbf3NqRYqagWkc464Ky5JuvvpURw7/Tsi+xbbrZvp3OVjNaL9lQiXafOgqPf/yxfjJmzFjzr9FpvOyuRn2ijfLpAXFaRDoxqovg7Uk3RoPTD2OEhDhtVlANxTJVKc56YPcQKuasWbOMABAeYZw0lF7xoADidtyzrzsjHG4qVoEpIEUInmpyc3Ntni7gmUJ2TGQ1BvQIyAefF2pHvnNCMD1KlANM2CosjValYRRuVy+w0FiZ0K+vnnxygJ0YfPXVV9t5L7//7s8ISJPfxo6VG2+4Ue69915bs1NLy+6HH36QP/74Q8swQ+YvWCA9e/WSiy66yA4UozxZ2Prsc8/Jk/2ftB7mb7/9VuMqssYLOnhXBcALL7pQXn/jDUsDieCMmK+/+Vau7X6tnH/hhfL+++8b/UCDa621th1++UT//jJnzlz3/cUZMmTIRzJzxjyZ+M90uefu++Tyy66S77//wRQZ0pajaS2PpeSZMQOXV8boImsAgyBPyjOZgBUJlF5Of37t1dfsmbx3SgRlZFYGe1aYopgMrChPu8Fdqe3QtFXHrWSXXXexrcHPOOMMOeaYY6yeMT3073H0iFFP0m23KE7Svuiii+Xll1+2XtK//hpngl73a7rb+SPj/v7baBu6Q5F/9JFH5NzzzpPvRoyw6V4IdpyX8f77Q5TuL5LLL79chn7wgQplJVKndl3ZcouO6jdd3n/vQ62XtZVJ52hjlCNPP/O8zJqzQGbP0jrWo7fc0OtmTd8UFZo0LlVCMtKZhgWtRt/tPz9VPkRY/A0KibNlpDtlHq5OWFmfr6T4+muv27bRTO2EruGdcRgriv4qA8ouOyfbTo3fdbddZceddpSddt7J7tuoUv3rr7/aifMP00vcvbvR9vvvD1W+311uveVWW5dJ+0440KaxOv35+ptv5Morr5THHn9cCvLpXCyQ74YPt44iFPapU6bIY489JsO+/MoOnRw56kf5YeRo28l9+rSZ8uUXX8nTA56RCy68WOtLb61f4zWOdG0LFsmLL70oV111tbUJfCbxsiicnc+YlrLOuuvaN6kHS8snH3+s9e4aO+CS3QnNvrI0i7PIOe0DI31G7/ahXPxVfyoZZMAywOjJ5TMGftqnTx/bjczsTRF3ThOIysgZHqMy8wVkltFFTU52lmy73bay8047226gO2ld2GXX3aRJk6YydOhQmTptqtHY/Llz5OVBL8sD//ufKs4Py0033SS//Pyz8X12eH3woYdkpMo5V151lVyk8sj3331nna8jRnwn9913n3z62WcabZq8qTLMZZddJq+9/rpLj4Hvc99Jp6+l19Ls3rnb6EO9dQTe0dFWU7FMCgijFHvvvbfdc3osPYQoFn4dCApH4t56h52y4Xqx3cgHDTZX9oxnN4PGTRrbgTIcVkiDR+PMmoQS613UQvHKoQf38ed/i6oMq6oQU4jjoFGqX6++9WAhiJ1yyilWichPCDdOp2RdZYEAQ6Ugvymvvvf1tRGRo48+WhWQs+TSSy+VX375xU4tfuTRR2XfffeVddZeRz795BMrs09U+EKpwP8dt98ubbVxO/mUU4XhyNfeeF0mTpood991t1WkE044Qd5+5x1r7Ji+9/HHn8iff/wpp5x0ivz262/6PR/YKNnAgS/KIGUIxx57rJyqYXGK/tRp0zS1afLBBx+awspOEcOHjzClZMKESfLMsy/IXBXQHnnoCWnRvJ10PuZ4DeM1GTXqB80QbYyzOek5ylzLIMg/qcYnI0U+Oobnrss6PSVg+QH/QUF486037ZC7L7/8UunVjUAZr/DwxbvEsmVqkROwqVf0ltHgQc/MBd99j92tXjEX/LuR38tC23AgzbYNpyf51NNOU5qbYOdM0CnQufOxKtjtJrvttrvcfuvtMuaXMRCIPHD//6RBg4ZyycWXqdLxlClPjCxy+vffqqig4O+9zz5y+RWXyz8TJ8r0mTPk2Weft964v/+eKL+MQfnPlB9HjZGffvhdxo4dL9de20v22ntf2bnTLtK79y0yfvwEjYt58q4ee/pMRbtlcG7s5OqKEEh7pYE1kxttvLHx2M7HdJa3337X2lZoko6mBH1r2XoFu0IYDVAHnN9XX3nV6I7rq6++qjz3Y6NB6AZBi9GJQw45RHr16ml8/thjO9s2+S8PGiTZWblKBtSPEhsx+UR5Prz4+OOO1/qYI//T+gAv/vxzd9I9dWHgCwNV0dlZ1lxrTfsWtj9+9933NEHpKiMUqeJ8g9StU0fOOruLbLb5RtKzVw9VuubLo489KuNUmT9OeT6n39+lSgXxPqIKPNeTTjrZTn3ve+/98tef4+Xb4d9pe/GhtlOkt7UpIYvy8txwZGWg9dnaAL0w+AIv99PLAflXg2W/6gHPp/V/yy23lAlKkyeccLz0f7K/TJuu7T1F5BHn8eWQbE94riyhm8HvDpZXXnnFaP/lF1+Ub77+xjrJ6Xji4L+5c+badKs6dWorfR0se+21l9HtU08/ZfSMHNu3b1/bgOn008+QE088yTpgcY/sut/+B9iurs8//7xN3T3l5JOt09YdMbEw6kiIf0gcS67L8PJybVsNwzIpIDCaHXbYwYRgts6dMmWK9WDDKBFcveJhox9aaKZwqEHQpPfSlJLIDQ07xLHRRhtLixYtXCFpZtPjYlN2bCoQrDbKfC5qzI4CiZ7/takqpAo7lUkGdjC5uIFWPb16f/rMsCAjFSgG99xzjzRr3kx6awNy3/33qbb+i+Wtd493W4jL4xIJ2LlBOWAkCgG9YYMGcvjhh8tWW28t22+/nZUTZfzee4PtbIVtt93OThfmfZYK9bwHdsqxNiyUJ4eRMeR56CGHWiXiPJLOxx6nTGYrVaAOkBdVwaByPvPsc3LwQQdLR7U/44wzpf8TA2T2rDm2t/dxxx8nW2+zjWyj8TRu1MgWfltWaHjKXuz0499++93y5cfRP0mrlq21UZ0oDeo30jAPkfbtN5LNtXEdPHiw7RTDFC31qgH4/LCHyFSM+FtjCPzpN1u+LtlrpRBPxZKDq7zLGgfNauhsY2X0jMBtvvnmcsXlV5gizihFfATQBHAtG/hMahgVJXo8UWDpgaU8UUZQTKhnLFKEbzEHl8aMd+xQwrkTjRs3krPPPlvWXXc96zTZZ5+9reHaeZfdZZdddpMhQ4aqMMQiwrlywP4HagO1qey91z52kBzg/Ikjjjhcv2Mzdb+z8T2KFEGIsy5yc2tp47am/PTjaE1bhnz//SjZb9+DZNTIMbLpJpvL5ltsLh07dtT417c1Kh7GGk1qwkR5UlH99ySkr8kyyzeFvxpoIWKPASsAmv90jnTo0F569uxpyu8111wjjzz8iPKz8UaX/MHPrWhixWllFS+vGOjVh8eiMLz00iAVwpwi8sFQRttcoXfo0EF26bSr7LxTJ2nbdg3rIIKuOJeA9pzCN6f6R1vPtvn77bu/0t26qgTvpUryeKP/vfbcW2lzlDz33HOywYbtZeuO2jZkZskWW2wpzZo2s7pr01mUBx980IFy8KEHy8YbdZCttuooU6dNkRmqeHPG0rHaRmy66WZ2Aj51EH9seLPTTjvb4YsoRN9++526nSpffD5MjjzyGJVJdpKjjj7G8snXryWDDHSZaFXDDFO6mO5VYvWcOmTZ6rPWOU8N7y51MQRUhCjPrMNZy7lt23aqdN4lhx16mI3M3X33PdY5yXQmymexKXEJpMp46gpT+0psvRMjEq+reePNN+WrYcNs6j8jIrVr15JBg16yw1B3VtmGjlXOFGKkDZmU+kX8zZWGTz/9dNlI6+iOO+5gsnA9lYMbqVyy4YYb2OgcyvmRRx5pCv0JJ5wkQ7UNYBQRucjLSAHlUXkFRCsgFbzjlh2toR0/Ybz1qMAkmLcHcaBouBPRUTLcPVOuUEKYx4YQyxxqRk6YvsOBVF21EWf7Rw6kYitIKj89nYRrjDcyngFAEMZ0sVLOyCt7l8LY+yWYcu6rAkuJM2VcWMe+E0MemVGi9Xa4owHSJ2WUpTYVjl7UFwa+YCMBB6iwf9VVV1mvKiBPyUN2G4PxLwkWjxrbFEBBWVKxqNbEjfDFdcyYMVY5Yc5U3A7tO9joFgePUW7qUM7pdo5Nlzr88MP0vqtM0kaF3r127dpKnTp11UmmlntjU5j4pt9VgaAiE37t2vVs0RdTEFBiW+o3IpFlZefYaAo908zZzNR4GOpv1ryFCYtTpk6T8frdhx1yiMxR2nr0sce0wdrRDlm78cYbZPqM6SqO6TeSd6p8lP1ZEioF8sJMRHtu/rG9KgPPXvbzJhnJ74NJbZIBeSl/QDHlNOtevW4w5ePtt9+yEcGhHwx189KhV3WHe9YbLQbKKKncoAQLWw3+/Tx8Tt3OUPqqr4IP84RZPEgj1KNHD4uza9euNuUwQ/nVtttuK9k5tdR9lmypQtevY341pZe6V79+A01Ommyx+ZZaV+dYfePU7nr16yk9afxan3JzczR+XJWawoOgts5aa8uUyVPkrz//kj/+/EPW22A9GTv2N3n4oYek0047meDIVK7ZWv81EEu7kSU/PiMh2sWQlAEG12Noi9BTeUoZTkCVQPNWs92u8PXLL79MPvzgA9txkhkHKA4UmfEeRarSS4bRgBrWbDKd9ZlnnrWptZyyfP31PZVvMm2v1EYxoEfKHgG/SZNmSoduIbeLzvFJtyFIuk01YQoiStKBB+xv6wDh7x06bKSCWHv55utvZc8991I+XSrZmYw4a93SgLKVd9PxQxvTuk1rycxWBV/rRno6PL1U8hYyg6JQ2rVpa3WjWbMmFg9tGDuzHXfccSaQ/qgKOSMpKCK/jvlN1lprHQ0DAa/YDsFkVsWSwddQL6gfWtus7bOsMgWEd5oVFp5yA8uDKNud11TA3puAZQbnX0BznPuTo3zw7K5ny1tvvaV8s56NeN98882RIK8FowUFTS1ZoKfAtPTUSe1adWz2xZNPDbARaKZtn3fB+RYWMsb+Bxxgsy7OOuss64ClEJF/kDWQawBpQ+6g8yk7OkA1S+VVoiEdhIPM+s+kidKkaVNJV3+MrrCDFfKRoyFPRAFxVF4BiZCVkyXXXX+dNNfKzrx/5pHCMOgdcYqHUzbcSIebbsXcfT9KMm/+fJk6ZapplzvssKNsscUW1kszRwnM3KqZv2C+2ZlgDGeIgedku5oGhHkzSUSLYIBdhlYeemepRM2bNbeh89dee9Xy5bTTTjPF5K9x48wPDNkv+l4SyFLmQhImjJiwiMtXdMqrjjYEM2fONEGNxVHTp0+zBsIWkyuKVdmsV6+u3KIM4+0335Rttt7GRmeystzaEIM2Qpyc36J5K2sEGzZopJW0QCt8rhRq2dfXSk7PGQsX6RUuYeKwpiORE5pOX/6MeDRq1MSmZM2YPt2EwPoN6km3c85SgfR9efnVQfLSoJeMyQCyEwHPnewLIH9vlgyTaS0RbpGuMUN9TiiXZIEPNuDfQ/OznNKOIY/VkPeUBcpw/yf6y1lnnyW9e/eW+x+43zo3PH2YIJUgnNTwrzO0Pjkp0EX11ddfaRxpJsCxKQZA0Omw8UbS/8kn5f0hQ2z0dsSIERYG888LVRArKsqXCRP+0YaomYaDQkMPMvU5w5RrBCditfj0qtRo8QGoHHEP4Qest966UlhUIB998qGGUyKtWjRT5auV0fdbb79hytfjqmzv3GlHo2knQAF/XRI0LiJO5I/jq/AWes7d+yhluFHjHwNWEMhfLTo6nzgF/s677tS29npTOGlz2QmKMoD2jQehLDqmlBLwaNxxxQDK1PN0wjI+poiHY7tP2ZXInB3IUJ7crl07eeyxR+Wdt9+xkeXrr7vOZkQgII7/e7wqDs3k62HDtO4WmVLvOwE8LdGOsEjdkyppYdMG/Rpt07JsqiNtP2bo++8bPdKh9fhjj8sdt90hnY8+VurWrq/tQ67Ur9tIZs1U5VtTS6fUApUtatWu7QKuFGhPHY/wecqHo2gB18nk0p0ACS9nkt9jUrgx+zJDfaa+emP5s5gbV6fjZvnc8C3l3aSKr3JuysdXuXQv7iZu4HmJcDT5AGWAqd/s4jZy5Ejr7HlTZQpPu55euZpf87w4kDnzVP7URJjfEqU/7qH77JwcC5sOLUbuKH/WH6NM+OCIxbpkNB4XJ7zcTe0CSrqSzcwRvaetoLM9X2VhDrQkDqMppW54+/KAb4vXzZoGV9MqCTIRoYD5bizUJE8HDRpki5BRHNAEbQcAFUQpIHpGjOFog8qVEZLJkyepsjFH2m/YXo477lg5/4ILbC3D6So4n3rqqdaDTi8jc/+Zj8c0noMOPMjmqB566GFy2GGHyxGHHyGHH3GEHHXUUXKkXo/g/uij5OhjjpbO6u/4E46XE086SU7R8E4/43TpcmYXOVM13LPOPtumTbC49IILL7CF0hddfLFceOGFcvFFl8jll14uV15xpZmrrrhKrr3mWulxfQ/p1bOXTfvofVNvFa5vkdtuuU3uuP0OufOOO0277nN3H5sjeP8DD8iDDz0oDz38kDzy6CO2EO/xfo+bwIL2/ZRWpmeefsbmHb7w/Avy0osv2cKrV1V5eOMNBIq3bZcPFpi/N/g9GaJCDsOHH3/ysXzy6Sfy+RdfyLBhX6lw9LWM+G6EfPPNN/K9ViB6yjhPhTI5/bTTbagRJYStNK2R0oqwOLTK6D+0nago+mzDnLyySu2YEnYoPGd2OVP69+8vEydNkm++/cbSigJitU8NYWAHPXBKaeMmTWS6Kizp2rD8/Msv8q42Wn+rYvTG629YmdCzZWtCVJCaNWOGDNK8OOzww6WpNmIwLeKFOQnb1ik9mUCq6WVkjWd6jJme9cKzz6lguKF+SLFstfWmMu7vX+W7EcOkVq0sefrZATa8b2FFDNN/27IAfoPCxHQD0uCZkROGsbBHZ8hub+L2ye+CSW2ivEpmvBGZ8YIf+2ekDr5x2223mUB08skny/Dhw+0906fM0RIAKcC35s+fZx0lnHDPYnHmk/dQ4a9N2zbWILlGp1ie1fqLu8ZNmkpurVoq9HBqeLGNxjAllTUh/Z7oJ0cceaQKT+wQlG/1eJ4KaA8//LBstdVWUqTuoUVThCNl2DocIppnC1PShAC30447aX15TZXofaW4NF+2234L+fzLj7ThYwOKIulzL4tvpxsd2va8LodiSH4ug+VvVBf8FDQnDCDERP4igQAkFYdzUhmTjFRuVnfjQR5rRjNqwAyBo7VdgxaZinVGlzPkU20HmK6VKAzzrz9WZmWF5QQeJ3SxXXh+fp4J9XQUQmPY05EEzy5fz1xiNAW2+xSPRqZ6S+/0KSefonx6kDRo2EDG/jrW5tWXKH9++pmnZI0115ALtT1HOaejEXqiQ4D4ElHoDfcm1EGzaoUgyKhI7Tq1ra1EhhgyeIgMfn8wX2C9yK4nOU3eHfyujBnzi02hOejQg+X++++XqVOnaNv4uR0RsMXmW7h4AHHGPy0FfNvoOvxQsvRZ0+3Px6GDIAELT38WM/5d5d3wLbbmJDI4SeXGRiRjZvncYMq7sTKPuXHuKuMmOb7lcwN8O+zcOzfwH8ofuQXa3GH77W061o477mg7E3bv3t3W3vHOteUWhIP6iYMgcQdvXJi3UPLpEFfeyk5tefmLVGEeJz/9+JNcdfVVFiZrCqFxDmJFoTbaIK1KG8TDaDidUdQdX27Q9nSlO9qGAw5gavlA22iEaY+M3tSvz+wOOpSgJALDxFE+zYsjypsaCm3zyhVhxcCVGu8cJQLtlJ1fUDDWWmstW5DD/GXA9rxMJWB61lzVBhGQp06dZoxkm222lmuvvU42WH9960FEUKB3kcYagZdpQ2iTEKFp0MXu1ErXODoDEWC4t3cqnMJEIF4vNFuB6z/+SaN9g8KHyRVYmGjIkb2Px7uJx5lwZ/Fj7+4J2/xF770fM7jDQVJcpNXsvd9YHOaOF+bH+bMbwDcRhn4TxBlPE8PaEyf+I99+8609b7/D9taDRI9CWrpvoLi6OKi0xVohn3nmaduiMbdWrlyvStcll1wsbVq3sXCZj3zG6WfIuuuuLR999JEJelRscKwqkShCDRrUMyVxyuSJ8uQT/eUfTQOVj0W2TLe74YYbrELOmDVD9tl7b9lv332NMSD4PfHkE/KbNmb0rnU5q4vUqV3L1rZccMF5tpaEdD722OMqhO0vbVq1UQXvYVMkaRmLiwtNuUNZbdq0seXN1199LW+99aY2tgtk8y02kc6dj9LGaaq8poIcU/6S4ap3WeNtIKs5JK40R26+7W657to+st8BB6kAuIPRFrSapcpXw4aNnEBggA7Kyg0ksxcL1t3GkIoJJaVnNQL1NtFoVQheup4sG3ldVGCjbOzehgLM6OvNN98kF110oYaVOtdpoRDOGLGboYqycwIfSTelBmWB0UOEni232Fxatmwl3379rTz3/LPGc1CgL774EqP1W3r3lrZtW5vdoSoYsXaJsFBImP4yadJE2W3X3WTvffaWzOwMG7W86cYbTIHPW5Qnl1x8sdzQ83opVR72wAMPSq8e1xudwSNefGmgddZwSFq+uh0x/Ft5/vlXlP7SNbxdZbfd95SPPvxS8hbOl0MP30/jLdBPg/8paJRL9c7qOjYoKdAW02Ny5YXn3pBTTz5PttluBznwoENsG3TipX43aNDAeLHjPerLgonRJUFGtxWB98luyGZMwOIwYQx+wNX4W7GNYtOTO+zLYfLlsGEqHM2Rc88510ZIsrPdNJGEkMKVzNULc9fvv7+vnZtBW+CUVG0vi4tk//33tZ5fOruu07YYnoUw36VLF5vPPmbMzzJ69I9y2GGHWFiMiqRruOx4xagyaYG/n3zKSdKkSSNTjBASmXryyScfm1IxZep0+XDoEDn7rG7yhab7jDNOt7bpjz9/V8V6R00k5y5Mlnv79LVpYYwiDhz4ggwZ+q7svdeectrpp0ujRg1VRhhui4RRoDbddHNTxuikXGONdvLKyy9qWr6w9ueoo46WjTZqr7QLYWI85ZEh0G2cp2q7V5wrjz48QK656kZZb/3N5eDDjpSiEs5c0Da4mPVe9VWeqWXtq8+74kiY9DBeRf3y0FttiaMHD97H3Cjc5g8+HH1HcpPcOGvnhl8LJR4XiLnxWMyNInmzicq4IdjkNFXGTWXTZFBncbcWlv7Df4qUxyIv0saT96zTsM1oVJ5Anvnwgw9ls803tfco08brLCwXHjMoUFr++utPydLw4OuMyBEWUwg1UdKhfXvbkpeZPMO//Ub23GsP6XtvX5VBakvjpo3ksCMOsbK/TcO55ZZbbBQwU+O6+5675fzzzpf33n9PPhg6VA5X2mFd4mOPPybjxv0u6663lnQ+9mhbu0pHqdEePNloEhOlk//SbFmQVyIbrLeV1r3GMvjd92zHTnZQhB8zFZ31vjURlVdAQJRnBs1DeoPfevNNO+iItQc8ozgwnxnA9Fzv4ny7z83JtTmtrFUgQ23xJz0PEdHBYDiQkD33mf+XAOUFtAwhVu8+Yb+iEc+hqo4zylOKwVdE9336678x+m6nyDhYr4nmnX/vR6DYiYSGCcGdHRnWWWddm0/J/EoTSmAg+IlCsikiJnCUF4JZ2E0PLE5JG4PyqubYPcqiCSIWfWwIFDttpShrtTT/KKAMc7J71kMP/c+mY+GWucBUbGPshEwDaYK4+rWwSKdTqjzzB+SJha/xYu/glFDbw13T5t4z/YB3CHFunYoLy76IF0nAjwduNGwUkJJs6X3L3XJ9jz6y6257yFZbb2NhkGcoqPTAewWEPHFZURa+T6EJFmqsHJOYuOaU/hKnB/kd4MscuidDrF4oXG8lPWtio6quF7NUZs2cZbTONrj0kF59zVVy2WUXq4c4TZXP2dJotz3+LHhoJyqrhFDHOwX0Y3UOqB9Hu2nyrTZcX3z2qVx48YWa1mhkIwJhl0XJjRv9oPGzcLn4e27VsfOT8OS8MQpo9EWdoB5Td+hwKYjqLsROmgv0wveqSXyvD4sro0LEpTRbWlueffpVOe3UC2SLjlvJIYcebtNf6SWnI6NhwwbmB97h8qg8YimsGOrJ1wEPwkmWR8zO3Rriqa7JoIj8l/uyxzBFz/GZIuVdGap0zJM333xDefovxucZxb/11ltUYHEbh/ie/ChAA7eMTqTrjdGTZSjvUUKUhtAo9B86pkOLDj/ihm/jLw1h21iTpos6aGG79BmMbqF3Xjl748H6R4cfvBghkLVQ9t74svdHmlw4vCspxm+GCZzHdD5aLr30Itl9dxUSSSD0rG5QnBD+GB2n/bOqan+4sYA0vbjNs3ANFgcvzQE2CldXUEAee+RpuezS62WDDTaTnTvtKrm1czXthVJSVCr1VMFi3r+bwqz+CSIJBJ9sjaIeh481jmQ7vKQIvsaCUlvaB0MXKCIcxgdtjB//tzz7rOv8oWPkfRX+6RgyGjQ61XKFt1ruquEfmtAbaJQrj9ZZqzeUa7bKI8g10BAzd6hHGdAwfN78RDSrsKmx6p+6yfk5pI0OIp5d5zcyE3VFZRFoljQZkao/My4tFrClq0ivRFJH5s0vlfbtt1bZuaG8+85gU0DoRMvLWxgUkAR8/tmljKmxddqjjzxq8+jYV5ktdhH4IBSCb9WqpU25uuTSS2S9ddezxZcwUXp3fHnww4hJyxYtpX6D+la45aDuCAvj4zUiXgngWxPxVmGshGvX6Lvske/y8VhENEpOsDXBxb3Bkb33ghh7Ul991dUy5tcxcs/d91jY7E/NDiL0trJoHIaf5oUTvY+fNGtRxRBZx+zVD40SjZWWm1cciN83LO6EZueT8qXhYToJaXvhxYFy3bXXKjPJU+bBonj9Jv4sAa6nj94F6r37TuydwuDSiFu+1xmfHy6vsOPqDQoUo2p6QwOsafIjYBkoQDjxH27f5fKjPPCsbktypPfNd8lNvR+Qq7v3lC5dzrJvY0pNLVWo6UVk2NZAEBq2+yaHRLCRHcoHf3Foc1rOpuwrAjwoX/7c6CI2mosqFCGcsaboy2FfytVXXyOtW7cyHvPzLz/LkUceIaeeeqKVP+5dpuoPVwtDaUvpLqGYIpA5R/oe99QxV/9Y1wbtZ1pvFq+V9rThgXR+/GGU/PDDSDm2c2cT3KC5TFVK6W2DLFEQnKLEYVcarJKWHYJGGBombhzNW8DWOJZ1CFhCFU7xsPRBz0rfmhu2/q4EWicQo1kaOtzzE/m1DHPfY/Ru9sxzri3PPKUKyOkXSteu3aRHrxutI4PpB3QWtVS+zbWM9604JCskltzotkYh6aOWlLe0n5mZ6TZLgPOToFPO9GCnp1133dWmDufmsguh8jhPL9AP/FjpytEEdmW0RcbyhzBvJG9u4mlwGc8OWFkmWOkjvB4FxN5FYVhY+hjxM/g38SK8MY2JtAOmLyKkOdpzcHzbkmjxEhR1G6WI7dyfVzmiabOGtgYgO4c6pm2D1nOmshQXF5hyjA/3ORo736th2roqoklTBcROquYeR7FvM1AJERhrycMPPindr75R9t3vMHnk0X4ye+4cSzvnVLVRXsK0sCWVEcEnv0mlgPiYK4Il292ulojnL7SW6OjRnJs9e5bcfvvt8tprr9nunNAUMzEeeuhB2XDD9VVZVGUgy4hJy8rTenSxsiNvnQXvbeaK/sGrs6g3VnXURt0WGS91io/B6MeBWwsfwtMwoXfCYkG61Tm1tnYEHmx81rvVqynGfoqs/zbaCgKqIwvySmWDDbcxBeSdd1UByc5RGuS8vJqtgFjWLxPIOzVGMBSIFgBC2BVXXiEDX3zRtg5kKPe++/rK/SoA9+//hDz//As2/5khKio0jTG9LRjCgnmhfDAdAc0WAc9Pq8DgnildME2YlF1hEikM7xE2WVDtNN0y4+xhYmXGhZnamBt17xkQf9yb9hyZ5D9nnxx3mR3+/Z+H5QUNhlYGu5px8Vl2a9w24kGe417fI6CQPoaj2ZWnyxldZIstt7C8ZqoTo0lMw2JeLESMUOEaBY1Z0+CijyqnRRIz9lLfRVff6OCOxsCUD/0W/bFnHwYNlR3opGlHKCeNjIaxTd2Vl19uQTO87/rIVPDSyscVxSMnK1f9Uen5ZsgS1whnzg5liSv1XD/bMRFNljO4d6RMI6W5bbTEjlvpafS+cc3RZ3p9mVaF8KX2JewEQ8OmppheQHrFXPiFBYxw6L3GR/oKC5TRZDKKRDpcGZAriYY/BqOVyOiPM7hTk0b+LGZcecaN0cLqboye3JW8pE67fCUrXb6xpWi3c7rJQw8+JNddd6088UR/mxry4w8/aj4yrZPTbp0wBLFAt47+9aoFTUOHO2gX+kqUF8a8UMpppkzToCDsYbAvVj5Fb1eHDhtKZ1U+KEvoztxqWrk3oUhpN0sFeZ6hU6qORqhRKG1D12qgeaN7s6d+ubgZiWS0kKvvMIAuM9KzNGwV7gr1G1Sgcu9IM+FHNK20XqL3xSXQNh0H9KhTZzVsazCVptntRaOltw1+wlQf6hb8l2dLEkqXC3r5TDJSuIlnu5kUbmqEIR9jxniEgnaUfLd7LRfKAcWDdYrXX3+9TTkaOHCgTXO2jQ/UHzyecoqCsPI02DPlbAXt7P07oO8R4v320zh3ghl0Bk2z5g8aVDqH/lSBcJ1MUTjq1pUT9wQHz8o0/siuVnwotMmicqKHr9PGUc+IE36KL4LimwmaT3f1XGSPPfeQs8/uqm1FbQ2f+o+STfxK9xqGqxOOjqk5xjNNQfG0zSi4o//SEozexwz1zUb4NT52NdKorbOgSPkE/ou0TtHhYPyGP02U8aIUJo3Kk2SS3aCQJfP3ZJPsZ7UwfHdkHF9PM9lPS9Hogx0ymarPuUtM7eOQTmQdO/ohPzp/Lkb/1qkT8TX9McM7wnP0DQ1RlhjqgP7gN4obw7RqaJkgnNijbrxRujberHd45B4a97uHEhZxWBUxXqy0ZvKL+lX+K9CeGfds9Ig8oomx09gt3QpNR3RX47FsIyCpgG81VFa2QJ08ZbIRF4ImcygpHJQIBHrc0eC7AnIEQU8DDR2VkP31mc7C4nXH8BxIIkJ8KnhBHSKDmRkt8oNzqC8GIzKu6sfD2XBT3i3wNi7m8vETlss6dcVVLzYUp1feJRA54cdbJ+JMAZy7iuKGpO37iAsOrd5g4AgyTGsbPmK4PHD/AzJz1iw595xz5MCDDooYWoZ88MEHct5556nwv6Eqgf0sjwsK8qVO3Vw3GkJMJMgEl7K8ttTF8qesHGDGLg0u/fw6VmHfz32kqGBcCPY2AWzj9hZ9VK78uncKC4d41dhrfRPPUwOheb8ExL9TsMqgjEa/zzEN7HEUpVnDg6UQh4p5di1LAL2Ppcpc2KIyR/rey+jHLdLzxt4mCMD4YILMK23dqrWtmzHaiowPKDnFDkap0b1DqaYv2bVlQUAC5I6NYingDyy8ZkOHV159RTp23Epp/Vxp3769ubz++uvsoKgbbuglJ594nBQU5kkDVUrIe87XYK9/R7PAlxc8pqxcrM4l3OAC2oFWypcdsHKP7qElFpOXPfOjT4Snt0Yedkc4ZeGX2shkHP6dd4fHKNREulw8kRxoT2lpNOCAOBN3anz41BF3X1KcKwNfeFvOPPMiOfX0M6SX0je0zZoD+EybtmydXcfSHMuKZUKU4sWQHJy113Gog4r81jTAf6Eg+C68f9rUabYhx6tK26yv4GRldoukXX300Ufl3HPPtW1DWZBbrEpDw4b1rLzg+y48pYRY5sXzEe7j+H183JWr2if4dxKwskC4Ub/liIEXjpOyVTpUXp536UPCIvYCb4lw7EENwht1jLYcBcG983XGpZsHszCoCqX2yhcsDm/PNEOXJheut4/qQJoKqspz8xaWyNNPvyzXXHmDHHLw0dL3/v/JvPkL3LEBqoywpotdGWk7rfNAg0muB2UpKUOSE8Ni9J0C5fOthkMzkr84kHFQQFhfzGGBbOYBunQ5XfbYY4/EVOdzVNaxQwVfHiRrrtFWcnI4f6y2Krn2WuuRL3sHowBoJFFaaqP8FnvX9kcwPu3qDi6tTib8KKzwo3rCPY9GnBFdGZwbD8f1XX2zqy9ku7g8oHNz0aJS2WTTnaVW7Sby7nvvqSKUpUpwzR8BqTIFhIykIWZP+gn/TLCGzBaSKzEYc8x0vS2AKTxUcBtp0CvuWPDYpHGTSEGxABMwoa48TSVgC8WVWRGHFxr4c0J8edg7C7cscCOwGI15+GzxaXF+Xdhxoow/WzoVuDOFKXJvsfAuevZhVwT3HXoTc4/BnuG+P//8Qy6//HLbzvi222+zwyG9ksciWNyyGPeuO+8yoQ1GypqQ1q1byoyZU+WP38eavYvHpS2uhJB38WFQvk9d6J+rtHRX2YhMTFHRR4vXVTD3fWVvnQ2vnRf33sN9JUVMOhxDcEP7EXMopTeOm3iIzo2NQtGA6/uIvFy69NnSwztC1gSi0NF7bb1+GP0e68VD+IvS7cgmXWwf+6xcbdTryA+jxsgvY/+S63vdIGcoM2R6woL5C6k80rhRY40v3fJDA7MUxhmgzeqJwb41SdhEFEhG+S8NoCjJYoQBRliZC8w23pyZwDRDRjqyc7KN79BTzK5yG23UQVo0byy1crOluTJwess+/OhDLbvyZwU4+nfl78CVEkgqPH32NJYKrg6pobMggitH6liZR+oRNOdj4Ltco2avE7BaoekynkiwRpyE5cKDrlGweefSrzfpBRY+T9Ck9S4SmMVHLaZOMYJDHc+Rv/+aJSNHjZUzzuwiPW+4KaGA5Gt+0utYK5dtg/8diN/lgwNfkQwTXiNHlg18d1J+1EjwzfqdlDHC10svvSR9+tyrSvWWNgWJ0TXKm3eUP3wd+mckZJNNNlH7RbLe+uvaZh5sDsKoCDsWlkEDNx4YQW9KIr6abvQagfw35lw+071Sbm0svdXqpqxcXKg2+qbOoDrKMIOy0xtzFvFzo+8oEdCq0S9JwxVpwp3RcETves+UXni2o3cXB1MHzZkLXejEppOMcMyNhpOWTpwuLIco4siuhDUe6hbB758JM+TXXybJvvscJP36PyXzF8yzhb+FBWw7X9u2lXffXqbcxRH7rAQqswYkFZLDqcmwfCTvjLcZFahdiU3jZ8tltvzv3v0a2X///WRmYhfLUltzyY6j0Pp+++2nPH2h1K2dI23atZHp06baGljoIA7C9ruaAWiRPyN3e+sBj4bIVKa0cna0rpRlZePeYu/qBHaExeieySvqB4O9j83VH8d7nVhQFp+twdJ3hQUlsqgwTT7+5Htp1XodGfze+0EBWWYQSpTrCAPTp023MyMI3pQPXvpSUaA42GFcdevZmg92z7L5+YCwlpaqeClXFzi6rDqUySyJPGFL2RNPPEnWX389Of/8C2SdddZ2zFHfWQXQPxgmi3HZkpdtRM86q4vtz167NgubFsr48eNs6gVIrqwuIq0skb0rBkqPiqUfaHE4xEepgDUALLbChTZKDJ2DkuhD0qMM8j1WvrI6u6gBsTj4RzlwFdfLc2kMXZrgxSVyq3AkrEZfOFYBfPjKMqKw01SR4bOMaViaLLfMOF+EQ7gM1SPeqZ+0bHn7nY/kzXc+kOt69DAFhLmZCxbkGVPjPBymDToQpksBIXNnsVj6HLC3xjigUrByiwydFX369LFNDTg9/9DDDrU1CompjVE+I8Cxq9vBBx8kO+6wjZZCiZ1czllEnKWAkEY58O9AiTl6cICuXFPjqYkbhK+Yp8Xg1mg4egKm10Jw6pmLSx8BcXVugKUFf/qeDhuz89HY1YWB4uDS6cAURre7jMsfk9DSipS+YmGXVR53BdQreoFLsuT7EX9J//4D5dQzTlUF5Eab+sPoKtNuOBTPdjW0/CdNGpZP1zKAFMaxHEHUKFBWlLMrdwfsBgwYYIozpymz/TydSZADwhc8nbnvKNcczLbNNtvaGiemTbH7H/5Z90S7SkeUxaG8kjjKKRr6rNZGpWlqb3QTwSnQFZWOozH8Gn1DV6yzwMLexqD83dfFRHjwvJgjS5c9u/fGKZU/m8Cm8dhIotEp7zHqWHlymmRq7Hh07UBp6SK9uh0ygQWJf4tfbRPpMGvLT8ItsmjS5LNPvpXXXx0q++57uDz48OOyMG+OmnlaD0TbzKa2GQ55T3kRe/JMDOKjI8oCj67x3A6oAPF81KyjLDiWgCMMTj3lVNlzrz2lXdt2RstlnZJuuuxNN91kZ4Kce+452v42UbookkaNGxjv+nXsWHMLjF6je6LztGC2SlcUmV3NFVQNZeHGuTPWiXLkZQ6jJ0oX49zYr7uNwqPeEay3VKN+oM/SYuK0l+YWGkfJTkvLkkVKbz163qXf0UbeHfyecDB3UECWBYRCZgO9pwGjIbMtBDUjER4wVGTmnzINiK3UYLJ+eHOVR9XkZOq8iMImX0f/PFrWXWddO3TJiN6De3WH0MHWoVddeZVtN9erVw/Lb166zjFXoXmm9K1S2E100WdPFl4RAQnW6t0vBq1oCDr62toNhetx9W6p6olIIrtk4JZpImpMaMK4Ri5BqvGGUsPxIZlNLF2u8QJRumPfbfeWBho+vU80pvoOoc6+kW/Jlt6975aePf6nCsiN0uXM06w3csH8PJsvuuYaa5Ypcz4lPkGgLDkOvIu/D6gcyEc1EydOtClvjRo2snw0WlV6t95b3OjlmquvsSlYPZXuu551hpJEkfVkQhr0qDoFGL+OrhwdYDydABqNMrjGB39x22Q40SiR2AjQrUsn9OTisbrkHCuce+/OgfhJj76zoLCnXsShFMc7XvFxfE/aIr1PBKzAQfy79J11EjC3P10GvfSBnHLShXLKqWdKr5vcInR4NulgW2xGp7235YalP4Z/E1ZNgM8Pvbpb98subggq9PICysDowfiQWcgD999v60KuvPJKOf/8820bXjqW4EFuTaVSFkJTJLTZSLWFH0VqdAJl0QkTs+Oi9vw54ckXUuyepHBRd/6tA/TlDdC3iXoCf+WKDwwPuHO07Hg6z+69o39vR2rcdzj4MCJYuCq52be6MMy7r9cattWpJIUfd0VFrtPokYeflisuu0EOPqiz3P+/R2RhviogC+fqmyxp3bp1xDdi9dLiDPjX8EUZK5Z58+dZ20qnNOvoLMehSWvvKU6lWRVgzunaVQa/N1ief/55WWftNbQdFqlVt7YdXkzRly8i6NnJJcZzeRnROX/xBLh1G1E56zvcuyd1qTdOnVd6iyfa6NfB31HfrM6VWSjUDzSUcM991OEu2bJgYYGsv8HW2rY1kXfZhjdHFZCCQlWGF4RF6JUCmUzeUsbKANFUGzRqYAcMtWnTRk1bE9Zo1NqoHbtdNWzU0EZBXAHVAPAdVWFSIbJnNImDIGvZrlaRfcwfeU9PL0odox+TVGBjPQ5Tt6yRUgXQDRkijPkFcKq127Xs2a0lUXemzlO02mCkq8ZOD6sU6jW6L2doCNSowId73Lnt56h8mMhPOm4LUho3fxe/9A5gqMjKQKziOgIjTc7oozEDL6wRh7oxE3v27/iQRKYp3cEAeM29uadRJL1mSQbpj8ZnDIv1PSq8Yq9h0BNG0+6nKHBvwWKAvyaDAIKpvIlDi6M10wmbNLaF0UabCn/lPb2VzZo3tznzrVq1MppnK01zY+4i+rGWykegZViqdMcuJZFxdFdmjL6MvqGRuIlonnulbUc/3Jd3W6rhcw6P2wobN95fdI+9vnf1BqN1TP2Y4V4bPi8yOgP9adjpWmdQOrgKygdhkVZ1ZUatjea9T76Vq3qxziAUMvcGIYv88wIXxuWD85YIIph/Z0BEshSNy/dSo2umdJo9f/ZSs155DOWiDFKVk8ay5ZZb2pRalMNGenVntZgn+zE+zrRnNRZBHNQBtbOwPSweVyfwy0YZLK52JnavVcZNb/I0Cm17fo2Qh6DGe+ygRzWl0TVheIcbAJ0RNXHrB6jfMvrH+MwC3Lu4jc4xSvdWn6hXqmTYOVcJPu6M1TUjXg++m/UyJdqW0sYxO4NNGuJxkSbsXL77OuFeJJlUSHYTzOIGRFlqoxx6rVunrnUs2cGvkTuynSnNnl6LiwplnXXXkQ4dOlgHNvTPdC1Ownfu4Yt6qz9meLIbaCuSPyLaSDdTHBlG5BjpYpMdjKMpUVkFucf5Z+dB4oAekE3g5dCdvlZDEiwZOMKgX1gYPPOF0CcfpLd8sYWr6WEUz+LEnje4RYXhWrMRfXIVgYy1ArAcdtBb5rOh0SEIY2zb0qqNefWA5mUZH4zlMXZK2yVFJTJr1iyZN3eezJs3X7777js7tCfBPEH8vpJwldlVOsfMMfH7mJ0JP5EBJuTHjLNcsmGqVKkK/KXKiGzHKu41SG2AbcoJQeMs+hb3mwzyJ5ZHHuY49s4uDAsZt4gM0EhMGNVvYg2Kb6BikRmd67MTbrFw9qmiTYB3wVTeeMTvPSI6AIwMQvfQP8UyafIkmTx5suTWriNpNsKqwpUKG14As6vdO/+OyLk644SiyBpjTrCLG9cwJu6NCDRB0KUppiTOC1kuXGcXwRG1fzDjwsSwixu7Crnd29hdCOGwzPAtathlxRtaMLPTq4/UIiZo7GKGtFq9UsN7q1v6StMevSU15ZIbfc6ym2SkcrM6GQ+Xye7Wl5PCdRBFea/CL/dsejF79kxhtzJ4Oic3I6h5uOmBsQAjWBnGoeWbUCqXAYmkRzzXA3GPKavGPxM8nrTTwQNfJX6fhkQoCt45Y2tI4Ovmnyu06fi+M4SJW67l4ze6T1CsN1GcCVonzMjYPeKmq59R/1EEwlYLrQhOuKQ+MqUmKo/IezkTiy6Y5TAUEXm7WLlGF+haaY7pVfB21qhNmjTJtqLGDzzd7yboaN11miSRaYS4JXRL4Xn6UZjMEje4dzTK1L80ti5Xt+kan+fTRv/qLG4Sia8IvLb66uMoUzU0VMeHeVeeOGskopyvYjg6KIPGQg+7xbaUsglYMqyuemYIlFgRvjhtnvUh2Ddv0dwaJOa607tgvWc49QSdEHoi4tcLAnZFxhx4Zr4kQ+QWtCUyMth7w3tfwVIbg/tINZG/csyfe/fsG4iKjP6oB+8vleGHOFCmSLg3IO6Q3pCIWfCosOkOifcxJD0GrEBoXrOZgts5Za41Ugzf00BNmPCP1K7NNp5aZka/eOCqN54uDErj0V/CrRkaAH+N6o0FEtGkGZ69UWf2uwQkO+B5Sab8Q+wK/H08DWVpKUPcb9wAdau3tIUmAKuBrJ0LnrFy10ob/MdMSjeru0mG2lk+c0theHdqFhUU2iGErDljy1gUEZQPnDulw6HsrjwiylYgcEXlGsEpD06ISh2C8+FdJgSmqIMJIQl7d8UAwlOlQgW7hNHExuV/hygsNUZi+uOu3mDv+K4Z7s0Od07oNMHTAoTQvEl+xqg73BrPVqNhkXemiNGzbeHyTtUSFD69K0sHP2qxJJiHmAlYJtiom5Wrb7ejF3plc53Zs2fLnDlz1F2m5ObWVrkmz9y5XbHUj3PtyMmDsjW5x5tUgFYx0KmWf0qGFUf0rBdLphnS7JQRb/THmcitu2LH1R74iaC0R8cRdlYdHC3yVW7qYM0GX171SGR0QJVD8xUa9/kLE/XDxAhcnIEArCJHoIJH1G3PDmXPMaepQaWoxJ9LlJrFW5sIhBOlwUefbAx6g5aC0I+xBi+y82aZ4NOSygDCSza8o/cDhqLPmgcJBU7flc0XVYPzVPDBx5HKLmD5QNZr3tMrlpWVaTvp2fB9lMluhMyVnStWrlqGCaWC0S2MCh3mNo4S9YLxIpx/T9je0Mb5aRrqCmV9iVja+xh82mOC2uL+9Tn+PfZNcbe89/e8w6BsM7Kn32aLerUBNif6PdFnue9Ngv/kpZlkpHITzOLwPD3+3oqBMytKpWHDhsbfHU1rKRb7EWmlUrUrKzErTDP2PqIJ3+MPL7MpiGZU0ImuqVEWljMe8YR6mnIG/m4uE074KYMLhd8yPwbj6xqW5+9meEf43uAvEbAzWJVD0vuEAf5K3pE/1G+m1iD0URciuyhfKwWcJZuAZUJC6YYMfT0Ampfz5s0z+YW1wvB31/Hnp8dpOWk5QmKLZ3uMbqAlTz8J2tLHcsAiFnHCxMPxYWE84m6T34F4RD6OmFtLi3NjVTu6Z1e48uufaiYq4jwBqwKUVmGcrKNp2KCh1Klbp8IF/TBcWKx/GVdQVhyoUVSiyFiDElW8JRmr6DF/xgD+LVLEYwb4fPF5QnzECxh2pYdEXSfyEAYRS9PKyMqAlKAnk7M96tWvFynarlQ9eTulIF7WsWfj+JSpt4uAXw3KzSt3xmjS3HD1xvtLZZaEVO6TjKU/hX3cROkvlybs4ibZj0+3/nOAIYdv2qMaf9gbQCizvCMdUV4GrFxQBijWjRo1tN5ep3woB1Li5t7WLdg/gjPvIoPwkhCiPQ2rT0yFZen9LwkRMZTrYPL+vHGjFWW82/PROJy7ciZSlBZHKrs4lva+DImaTrIV5AUKh32JZYy+TQiYlQw37nwZvAVUDije9VXxYMMd4+9WTI7enVH60jKz4rPXlGfZs7mnUKgfVraeznjGb9xE9ks1yUh+H4sjYUDs2ehdlV3Sp4Y67NIKcFNRfahZoIgCVmUo0VoPgi9JaLuYhovFt3Ulnz3NCwuloABTgGN14B1HFJ9oTLyJg0qwLBUh7l/9xSs4lSr+XJEp13h5A5aUzlSI3MB8/GekMuWAHyyJs0SKCktl4QK3rSU9MPS8EN7Se7sDVgZolBDS/D2L09k+kx7iuXPn2BamZVzeNVqufOMMPnofGWfr3Xjj3XItMzR0znCf7KcCYwIapnxYrjfMm5j7lAY/EYy+KzJJboAlmN7vDJk+Y6ZlT916brcro28F9M3hspYlASsfVkSx9QdadFzh65QR8+EXKT/nnnVxxo+iMjblxIqawvMFiEXcxGmJcla7yK+rI2DphY/TMoNfH2acdxNeLC2+nsR4vo02mv/ypmJE72jPlgWJT3IjRwsWLNR4xDaryFA+QgeejSgtMe6AlQItKzbdSUCfqQMo4/D12XNmaVkVWWegmyINLUFXSktaL9wxAcnl6OkQe9574+k0Gd59BPOmP9DHkgwOqQsJw3PkH2NQdUnt3RknLh6r89qO2QgnyarhCApIDQQVskWLlnZA219//SVjx/5mu31kZJQtWnQEHykjes9UDGfoYaPR0+qgDYUJVVb/ll4brKGkQbD5tn5+btwoljo5nHep3ifbeXdLNrbAkeuSjAbnjLo1g517N2nKdPnllz9txxmM4x36zphMQLUCZKFYo90a1mv8+Wefq6A229E65Kt0B40bbRidegO9MnLoDCMDjkbjJgp8sedk+BZmKcbqVdyQwLhRu6UZkmBGf1IaTSdXHPlv1fuSqE7Mm79QRv30s35qujRq0tD4RuLb1J95jYNoA1YuYmUAy+Hcp/XWW09+/XWsTJ0yTW3hRfrLmUuefm3Dggy9Qtd45CfZJAP6UD9K+1ZHrKzLu6NtMDeRwQ9xpdn2p5HhndUz9+fCwEBXkaFuWdBE4ogqQbJGd2UmcpgC3h5PjldXZCxgc6fCHgKfGm3ZVMEWGfv7OPWeLmuts4YUFOZLYQE7z9H+8Q0B1RGbbLqJbRf+2aefKfloSVIBbMRPCxReSun6Ytd7A/QK3cUNtBEZ29wmZT3xbrjnolc6fJcAS4HRWHSf0jhZAwWkqLBY/h7H+VR5Krc1l8wMdmfL1GiyLbqaLGuQswE1CdQPZagdO3aUAw440BYv3tunrwpicyIHFDmNR0akYUPhZcbqsvUeaAXifWKKBkILt0v4M/96jXof7LmEeLxBAWLhWI6GW8uZ0tp2LS3JjQxTDbKUlWRpiHFTvlFhoHVpplg/gOQvyfDZGqAyggxhMz7bnK80U/3myLyFxfLQY/3l3cFDZettt5Ntt9tOChYxf179BFQPUH4YDy2bnXfeWTp16iQffvSRPP3UM5KXl+/oEuLWupGgebi7a6VSwxi/N7hzjRECihKY3XthjF2rOFDK0TenhycbpXmlKQwnkDujbqkTfvefxVA+3vIGUMf0u9RJiSowJdr44qMYe7VzKde6oukq1jqEKZVaUqL1bEF+mjz17Evy3PMvySabbSm77bprdE6Tq8MuawjYovGBlT2nMrxXkGJvAv4FyM9YJlIeHbfcWnbddXcZ/dNoeeihh2yjkYxMBBVPEw4m/Kv/hMK9GH15OoqMFbjemuEeP3pfTmAjVH2nYSFAGYzQoN/I+LYFHq6Ga6naWydAIhyu1BVvGMHE8C4GoydLxBKNkZ8Gn4q3Y9xseucO2ZFqvaigWEZ+P1reev19ad6sjRxy8CGycMFCU+TY5cim+wRUL2h7XlxcKLvvvpt1rj700MPy0UefqJ0K8TbkF5WZlrE3cETjihBCgs4w8F3lv2qgUePNJZmqx6hRnmxG5QAn02C8e+hb40GhSWloE6yWLN2QLJWTfvllnFx95XWSocS59167S1YW9KfvmfrLZ9VgZPRURPcBNQFK2cWqUXOGx5prriUvvjhQPv3sU/nzjz9lgw02kMaNGjkZLCJshvpYy+UOr3J2ZVUEZ64CWgVOCBvcL25sUWu8wUphcFNazNUbVRawjxnjF5oeRlCZo57KOIESAUzdVmDMv96k8u8NaShWpqI5ZkoITKeoOE3mzlskt93eVx6473Fp0qyl3HP3PdK8eUvbiUaDtoXP2VlZtug/05/gnwo4jkOzKmDFAbqp36C+rL/e+vLYY4/JF59/JnXq1LZeYxbx2uJF6MaIAw/QmxZKzKB4e/pzz96oFxuph3Yi2qTuJEzMPmbMr8bDSf7QG8qx1YXIJOi/nLIeuYU+o6s3Er0v0WuxpSVDG2BHvyXULehZ30PXprz7rUx5r+7mLSjQvHlabu59tyrUpXLHbXfIJptuqu/JwTSbqkkPOrTNibyVBrSNCagaJOelPjOSve2220q/fk/Il198KfPmL5BNN9nEzgJB8HE8Ed7o+HkZH0ymy+Rnz2/Vjxk8478sHKsTKuwVFyEIuvvy9E97ogb/EU1b/bLOLo1DadW9h7YZgcA4+nb38Welb/Xr3ac0mibiYkTDvi+l4duoG2X+5s/Ll8f7PSuXX95DZs3Kl9NPO1N2UQWchb+ANhEFpG7depKt+QpMGU9F2xrHYgh1YMUgEuwbN26kZVoir776mgwdOlRq18o12Ya2mXVs0Crl4qbSRVflzUxNd7S9uIHu6UjSi9E2NJ6udJsGz9Q7o3slKIyjKUwZTy4z7p3RZRI9x43xbuXVX37+rVx+yXXywYfD5cgjjpKu3braiBz0R5o4xLt27TpSt15dcqDGoepOQg+oPtASpbFgbuFXX38lF1xwgfz040/SomUzad9+Q2WsdfRddNCTurMpJwpjsthCElCFVXhnZ+q6k9jUpIYpKnZ17txULhoi58d4uN06dx5uwWQZ3Im87qAoHz+NiaU3ARiNinIVJ8eiUVfRQyq40F3Y4iq9hllUVCxTp02XMWN+laaNWsnxx58kF110iSkd9CiSjjmz50jt3Fw7ZLNWHddIpQRZEQftccCKQ1TcbFf64IMPSp977pa8BQts6krTZk2lVi1tpEqKtOg9bTnFwryVY4V6H5Ep9YID+1hHRcOHEAitQAcmqEVucJ5eAUEm6pT+MFLB1dU3Z+3T4uDeO+LGlId3ZQ2rEhh/hMVIT3Z2lh3oxWnmpJN47bPUEzuhL1y4SObMmSs//vir1MqtL8cfd6KdHJ9fwCGGLpw5c+dYY962bRtt3Gu7yCqD+CcEVB2SyAAe9cQTT0ifPvfK77//Luuvv660bt3KlBDos1zvvdIQtOX4sFNOylBWWI5nO2aFG0jT7QznGZgLw2/962gXO3ssB0uu0R1z28vHl3DP+/hHKco5NWjc9AJXAK25iT8X6+JwI0Mu7eQNyvXMmTM03/6SRfklqnycJV27nmP1Ozc3x9pMpvdQd1q2aKWCXz37BvveFN+ayJ44Ao+vYpSVLR1HWpraPk+VXr16yTNPPy25OVnWwdS0aVMtx3RtvznsEl9ltOt2z4rD0SLl6mjEyUvQktGoRslBh3n5i6y94CBOWgwnq5QVuu0ip39xePmnPO07ODpSo+/mz10go0ePlnlz86XDxpvL/fffJ+3WWFMWatvFWqTCwmIb4WzWrLm0bNUiCqFmISggNQ1amp5hUqE4DXfs2LEmjL38yksyceJEs6cOWGOCW3qprA65ygRBWB1SR5wP4AgEi7KKlxIRJVmDoOFGspkiCpW6p0qKRZUAT9G76AUUaVV4CaTp35QPa3EsJcVliAKyPNFGu2nTJrLhhhvK5ZddLVtvva0tVrRDj/hTN3NViKPnpW3bdpKTy5BuCpDI5E8IjdMKB0pBUVGRLSz95MOP5Pbbb5Vvv/3G9pOnQOjhKg8KP5mSYoUXXRgVsIXZCu/aCT88O5uMChQQ18jpVWnHlIaItj2Jc3UHXXloPBUoIB7UD1/HqDuWAv0hLIbzLQ79J2q75V7fMxK0UYdN5KyzuslBBx6ktD1fMm1hpzbc+n7u3LnW+KJcBwXkP4SWl+UnV8oveuSHs59G/TBKet/UWz786EMrQ+v95U+Zt1MQPLBTb2rn7KN3NjoRwWjNuG7kpoLOnaiTyfUup3LgABs16DVVWsxr5N2HYmmMM0gWE0e3qUCosWAqjbr1asumm2wmRx/d2XqdWcxfu3YtKSos1PpdZB1NKCCtWrYOCki1QKyEtSwoDwyK4sCBA6XfY/3kZxXk2ZgBOFZb5sfID7qN6NDRraND9+zolUcrZjMoG4x4ODfo9PB458d7dJdkVGAdwUKxO5SlVq1aydFHHSunnnaajTgXRh3DtBe2cdCiAmnWvJmd7VYTERSQmgotVVe0VBoVeFRw+uWXn+109Hnz5tqJ9IneLKucdqueGLXgwVXAMvLQawXCVRy4N2HM/vlRY96cX+wIPY5ycfCbiD96p8/mx+wjEI8F7f2WR+RN38b8VAAXvRtRQcjMyEiz/Nloo41t+BNlLDsn1w51NOVN/xYsXCAN6tWX1q1bS0amxlFRNMkNVGicVjw8SVD+Wl6cID1y5Pd2gBs9SlnMmTfad8b+tNw9rCjxiyCnf5T5sGFfybuD35Wzz+5qvc0GjSdBu0ZsboVSRfC0nKDZRET2rz+xqXz2ruKwHNx7OgnYipsNJ+6//35TwLbYcks58IADVGlO04Z5pnU8TJkyRWbMmCHz5s5Xuq4r22+/g5x++hlSu05tc4cARrzkEUoKtJ2TnTS6Z+laApb2PmD5kCAFvYGGtIzh07Nnz5GffvpR/vjjDys3RsAcKXoPSsFWJp6fu3sHx4zce8JLRKJIwTn1dSxUC8auiwEKj4cVwfxH9trmlLnxofAbDy9FGEnAxdJdEabWTb0wvYUZAOuuu540btREBcxitXejmaSIZwRbRpNat2kruXolfJdHKZAq8orcBvx70BhzUUKmLEuKSoyv/aDK+D8T/rEdP3NrseZOS9SIQ3+g60hx9mVTTik2WizfUCMbFRcVycuvvKpt/UI56cSTjM8iR0EMibAjcEeIprjoXep64dz5NNXKzZZ27drJWmutY+8A9Oc2AxGlQ3a5E1VSWkrDRg3NrqYhKCA1Hb5mRKU8bdo0mT1rllVShuqpMFQsD9ejmrryVAWskrrbCmFz9KN7rwwtDnXhHVUJNDCLRlmHMRhlSVr7MW7aFU5KVQkptt51hoJbtmxpvRasPfNITtLSvjVgRcKXhjZGytinTJ1iU5NY12C7BFlXGU0F5Rs1Kgp6uxg5XFSwyEYC/vrzTznhxBPkpJNOUoH9dHsHygQoB5uOtVR2qhSh/4u5MotlpZYoFPWGkkR9Pvuss1QhzpS///5bdt11V7nwwgttasn8+fNsamGBfhPXefMW2I4/62+wgdFyZpYTRlmIqxljI4CNGzc24SwBkresSQyoYkRlDp1RNnphzQLTimbPmi3ZOVm2Va/xdaUHa95VwPIjbuURK1sLN5Wbf4NU4UUEtNR6UjlYKPqTXBfjcG1I2ZU8wVAPTJHTfEI5YeoO9Yh3CHxNmzenKhiiy2LxVCRoBqxIUOBqYryppLjIFJH58+dLrVqcGVLWji8L4rTCKNjNN9+sMtN0uevOO40ICgsLLEzaDteGOHryfrCP9IelwFoc84u8w8i63VvHgnPBt9Sv39DkjOycZViLtwohKCCrAyhhjNZXhu6nTp0qc+fO00pbbD2nVDQqD8JGWUNF5XB3vLNTR5cAP8XEkZMPozy8GwJOZuRxuIoc1UJ1luzSvSqvOP0bEBfpdvE45kLQvpeRfm0pVQEvI916GYsKi0zxgDEwzSfeBi2WViyqJpkBywxfGlxLJW/hApkxY6YJ35Qr82zZ7tC2FLVeMAc3NVGE/ea/H/m99O59sxx99FFyxBGHmdBi0xKVXmz+L4TioX78Oqg4LFzoK0Fj5UEY5kt/orvKweJ24VKvGbV4+eWX5bbbbpMnBwyQt996Sz788EPpe999tmsMtGtxqaGn3Hp+LU0IY4WmiMxfMN8O/2JqAIJsuQQT3TIkL2BFIImCoFvlU/Tao2CzxoFnlA/OUEBI0iKOUD0Kz9Egqfn36amoTiXAezXxKWMmnOpfwp+FwZlPhSYM1qtXT5o0aSI5tXJ5FaU1cpoUW1V8Q8CywpdBLO+13OBvkyZNkvx81vCwlW2G8fjF138sDsrVaCmiEfxi7rnnHhs9hqca76dtUDi3jjY8jKpQ+iulgADiIhAfnuv0BPBzZLNmTVvYAnRkj5qIoICsbtDSZphy2tRpttgJjd718ruatJhQFaGylXhpDBlySxV+HITjK2S1gE1Lc+mGEdSvV9+EtJzcHGMecSSnOCgg/yV8aXBVelI6Z30DCkh+Xr4U2mJFyhbadoVkJBfR3eQpU6Rnzx6yzTbb2MgCdQVnCRpWZwyZu4YnqjfxefUrGMRpSoT+IXCiGM+aPUt69ugpxx57rGy3/Xby9ttvS//+T8pee+2pdscZ3WaoW3hAlipY1H1Gh8gCGmsWsDPfmMbX4LMQkEUumwL+M8QLBGiBILPohdE9NsdYmLfQelKZQuholV2ooJJkvzUfvj2ibvrONSNj6ip2JvDRbrHoOEfq1K1jnUtMwaIvIfKSQPlpaoTlwg9YmUhBx1pQ0Pq8efNk8uTJpixQxF6gt/JeCrwbyhS+Dg306dPHFJDevXvbe/gmV/gtSIwyesQ6spYGiw25grsoeYSNgRe3bNlKabIWttbp5RxEpoYgKCCrI7TEmV+Ypw0Vglj+ovzoBZQdCVdA3f2XjVb1IU16U9KNIdXKzZVatWu53mGQxAySU1xOAYnfB6wE+NLgqkb/ma5CL3HewnyZP3+B9XgCT/PQHPdTJk+RW265RdqtsYacddaZJpTQK0W5WyOkwj+NHLvJ0SvGLjquUVp5CoiDSzenwRcVuTNqhgwdKq+88orccEMvyczIlPfef09eHvSybLTxRnLMMZ1ljTXambJCDxvfSy95Tk62rfeo36CBCWK+gU1kISCqQL//MeIFAsoKBFJmih09wdA4U+xMwcRNsrfVCNaGJX2/1Xc1Tklz9aeeKh+sh7JR7Qiqt5VDUECqA5IKJQYbxZ0/30YErQ4or64sEnKPgql4tPd33XWXjaowAgJP9GHi1k919LB7GwGvLE1ozUxqLuDHhMsoHFPJmE5bbnnKsgS/CiAoIAEBSwM1xNcSeIy2SnHGk4Axk3h1qohTJFe5GsRRqi2WUi76GlbIriNsNnDqKafatX///tJAhfKEF3VH4wQYTYEO2CkqK5upXEm9YSsc9JZFtyC6Z2Hmlh23lHPPPVdOO+10mfjPP9ajdlPvm+SLz7+Qa6+9Vo448ggVVPPMP40134SwyrSzRo0aOfpejEzVIh5fqnwMCFhVAb0Hkq5eWJ4ySeUnWZNMhfQkT+qFNSCsAXzksUedlYbDKAvKyAo5m4NkJtoQTY9XUFBCVnbf1kpADfykgIAVCOUNKZWPlKgE0wtYyYiVnTF7d4s1xcrZM3373qvtVbE88MB9tmOOOdJGwaax6C3Tk1hDhdDOLmksELRpXITBVKyVZly6EyYC9ozavPfeYCkqWmTbjmKuv/46OaPL6XLrbbfInXfcrt9SbIc0NmrUUJo0biJNmzSV+vUbaFCxwMoh0HPAagTPH7wJWIURZ5QVmcVBW59Yu7rSUHF6ahqCAhIQELDawmZgJYa4S+X111+Tt99+S2677VZp3aq1uEWHKn3ohcaIKRsL5rODVIGNjHAafrVqLzSppPGggw4UNo5g221GNRjdaN6smZx88kmqWN0vQ4YOkWuuvlqmTJls34hCw6LlxNqP6vRNAQErA8n07utAqAv/HZYn31P5iZdjRSYF6HSyabpRO+EHJyrupKkaMG0wMXUQU0Ml9aCABAQErH6At9OoaDtCo8L6jtdee01uv/126dmzp6yzzjr6jt4v19CUcsibOlyUv8h2imJNiK0DWrHtUCXgW6jIpLkF6W1at5EDDjhQnnzySdtKmPUhLLon3R07drS5zSy0PP7442Xo0KE2DcsOsrNMiYILqP5YUjmFMlw2hLysfvD5/m/zHz69NJMCtoaK0e/I6I97UYH7KgfR/dtvr8YICkhAQGWQkklF3MHmxi8Ll/CBpQw0YGVAs92PrLMF7W+//SbXXHONXHjhRdKpUyfh1PtynF/dI8Rz4jTb3bJou9q2DKo0cbL5DjvsYAcostUwaWZxMtPGUFDWW289ueKKK1RJOUC6du0qTz31lJ17AqzHj0+Lf57lVZxmMQH/OZZUDKGIlg0hL6sffL7/R/nPKETlp1xXETQ6RlhslIWo/6NvXxkICkhAwNLgmQCGGpNsEkxiOQXSuLdqKtOu2kiRwdGFtmXkqJFy5JFHqkB+le0SlZGeZUPvwPd8seMVAnxObrbUrVs7tv4Cd3GTAt66gtcO8TCWxVSEUmnffkN59dVX7RsZrcnLyzcFhGlWtevUkbZt28ppp50mA54cIO+9964cf/yx8tNPP6h7DVeNKSJ8I99qMCIvD5+EJSUlICAgoMrgeZ83KxAavFsHUjYavkJhbUoKU0ORaFoCAgL+I8QZTA1mNtUGtFmaz0y7GvL+ELn++uul+zXd5cgjjjThnLUQLDx0p9JmqNDO1o7zbJMURhIMy9IYeacruWwZ+Vh77bUTu1vVq1fXtqj0Uwmystjxqolsvvnmcuedd8rOO+9sJ6f369fPtijGnd/xK9HOJ7f3/9G3BQQEBNRYwE9XA54aFJCAgIDVB5EAXVRYLNOmT5M+9/ax9R6djz3WDiFzwjkuGPkoMQGcReesj+A9+7Jz2m21RqRg+EbM9pJXhQnlCWWEqWS8ZuoZn8IuXq1bt5YuXbrIqaeeagpInz73yIzpM2xbYhZf4s8QFI2AgICAgCpAUEACAgJWH0RCeX5+nhx/3PGyxeZbSJ97+kh6hpOsbd6todRGQ2bPnin5i/KkUeNG0bqQVQCMziSN0HBAF2s/OA+EURDe8n0oXNhh2NWLqWgPPfSQ/PTTaFugPnzEcFusnp7BGScEFJmAgICAgIB/gaCABAQsNxDjlmYC/nNwOq114OtV7xfOXyiPPPKINGzUUM6/4Hw3osGAgQnu3LLmo0Tmzpln7hs3bqoCeKbzv1SzvEgVVtUZppQxnYzTdVEkSvQnLd1NNXPNgL5Xw7km6667vvTu3Vs6btXRFqq/8cYbMm+u5kXQPAICAv5zJPO3FQnCj4vJ/nlFx7t6IJ6zAQEBlUGQw1Y9oFxouTH96H8P/s9OOL///gekSZOmttbDZhhRrmoYBclbmCcL8/LsYD7bbndFYSXREkoHChYKSIMGDU0ZMURKF6Mj3KOQ5GTn2BkoV111tVx5xZVy5ZVX2g5hs2fPdn5ANCMrICAg4D/FCuWhyYoGz8l2KwArqV34rxEUkICAZcVK4D8BVQRl5AjfLCRH+XjllVft3Iu+9/aVxo0bS2Zmhhlb1qHlitu8/HzbkrZp06aSmcX6CRfUCsFKoiWUD77NplzpN9nARxykIzIZWRmSWzvXTkjfc6895ZlnnpUFCxZIt27d5IcffrD1MNZyrCaNZEBAQDXGSuKhKxU18ZtSICggAQEBNRYoHkjeGRnp8sILL0ivXj3l2muvtTMycnNyygvRyvTZbnfO7LlSv159WxfBCeE1AvoZfMmyfA9KS906dWXjjTeWW2+5Vbbffns5/PAj5M677pRFeYtcgAEBAQEBAcuBoIAEBCwrVmTPb+hVrhqQjzZNiBUdIl999ZXccvMtcm33a2Xbbbe1nZ+cRI6gra5KSqUgv0BmzZol9erVk+xcfV9VZbGkcFZmeS8rtyd/1E9ubo40aNhAzuzSRW688QZbE9LlzC4yftz4svSvzO8ICAgI8FjpvGclRLia8NOggKxqgDC9CfhvkOj5jRfGshTIEvwlwg5YbkTrOVA92Onp66+/kvPOO0969OwhRx99tGRlZlnvvldAMEXFRTJ7zmypU6eW1K6TSyjLyR1TlO2SyjTxLoW/agJGTVgXUrtObTn8sEPlwQcfkLZtW8tZZ58pT/R7Qhap4sb0toCAgICVjiXx138NGhPryYrgn1cwj16h31R9EBSQVQ0QpjcBAQHloe0Cioed56GYPHmK3Hbb7XLQQQfZQYO22Bqu5+uPOitYVChz58w1IbtWrVoppilVL4XgP4FmCfnCyNEaa6xhu2N16tRJbr31VnnssUdt0X65bOLet9Xx9jsgICAgIEARFJCAgICaAYRerzvolV75s88+S7bfbjvpcX0PO8uCMy0SUPe4YXcntuJlmlF6ZjJLDMqHgXxVpQ4Frn6DhrY72CUXXyLvDn5XXnrpJTnv/PNl9OjR5RWOeFYGJSQgICAgIIaggAQEBNQMmJDsbhcsWCinnHyKHa534kknSkmpSsD6jilZ5kYNuznNmT3H7OrVres8lkNQPsrBpq25TEYRsRPUW7WWe/vcKxn6zDS3L774QgqLCqPF/2IKn1uFExAQEBAQUIaggAQELDcQxuKmslhefwFLA7tYMaLx0EMP2la6119/vbRp3UZzOc0EYVv7oSguVndz5ti0ovr160lWTpYrinKy8vKUUdzPyvC3MlGWPvIRk5ObI+07tJcbb7pRzjj9DDnn3HPktttukwkTxlsek+8+zy1vvQkICAgIWK0RFJCAgKrEkoSrIHitOESCLbLuHbffIc8//4I8/fTTsu666xqXQ9Hgz6OwoFCVlUKpU6du+YMGy5wsjpVdttWFXlKlwxQQMlYs/1qrknfEkUdIv379ZOzYsdL5mM7y+Wefu5Enn6eEU12+KSAgIKAcPIOKm4AViaCABARUJZYkwC7pXcDyQ9uJEjvKXGTgCwNl5KiRcu+9fUwwtgXltCPkfcTt8vPzZeasmdKwQUPJ8dvxVgYru2xXRJjLgyWlQ/PWRkM0b1nA36FDB7npxpvkyKOOlEsuuUTefONN2yWLTQHCVKyAgICAAI+ggAQEBKzyYE3CG6+/IVddfZVcd911dtAgazs438PLvcVFxWamT5sudevWc+tBApYfKCbeRMjNzZU2bdvIWWedJdded61cfc3V0rNHD9viGCXEK4pBFwkICAhYvREUkICAqsSSBKsgdFU9Inn2o48+kptuukke/N+D0nHLjpKels6mTSobq3Ss/yw4t/UhKgg3bMQuTqqAZC6jArKyy7a60MsypMOmuqWlSb169WWPPfaURx99VCZOmihdu3aVIUOG2k5k0Q7JoT4EBAQErMYICkhAQFUi1hu8GJb0LmCZUFpcKkWFRbbGYNbMWXLHHXdIly5dZN/99pOs7GyVbUtV2E2zXndTQEpKZI4qHxnpGVLX73i1rALwyi7b6kIvlU0H7qI8TVdFhJ3Fttt2O7nmmu7SrFkzvV4tH37woSxcsMBNyaJsUCAjJTIgICDgvwMMLNn814Chxk3NQlBAAgICVi0oH05T5QLMmjXLFj937NhRTjnlFNsO1tZGR2s/6I1n9AN33Dds2ND81UBeXj2g2Z7Y9Yp7LYf111tPevbsKffff79c0/0aOfOsM2XC+Anl3AUEBAQErF4ICkhAQMCqA6846HXBggXSq9cN0rZtW+nWrZtkZmaW52gq2DISwinnuDflA2GXMLgGwXeFgulvGRmZNu2qcePGsummm9pIFZsDXHPNNfLzz79Y+aQsB8rIm4CAgICAGoeggAQEBKw6UIGUqTtz5syRK664QqZNmyp33nmntGjewgTdBNQdC87nzZtn07QaqQBs2+3GFY+ghKwYxPLUbvWH0Y7c3Fqy9VZby1133SUbbbyRnNmlizz44IMyY/oMV16FxVJSVFI2JSsoIAEBAQE1FkEBCQgIqP6IBFF6zFE+7r//Afnl51/kvr73SfPmzd2C8riwqveMkBQUFNiC6Mz4gvOgeKwc+HzWskAByVAFMScnR8ujnm3Re+ttt8qzzz4rnTt3lrG/jrWdzKwIQ/kEBAQEKDwzrJlMMSggAQEBqwboGVcJ9Z577pG33npTXn7lZRNmk9cSsOYjLz9f8vMXSV07aDCzpvLv6guf3xi0ishQVoxEsQXyVlttJf2f6C+bb765nH/++dL/yf5SWFigpjCxwUBAQEBAQM1EUEACAgKqJ1Rg5RwPFAo2TGL049XXXpNvvvlGbr31VltXkJOb4876SLgXyc/Lt1ESttrNrZWbeBdQTaBlYVOycnJl7bXXlksvvVQOPuQQm5r18MOP2KgV2yhz0rqtEaHsIuUzICAgIKBmICggAQEB1RYsZEZYLS4ukjFjxsg9d98tl19+uey4446RC3XDjlcKhNWCgkV20nndOnUkOzvbCa2+Jz7gvwGtjDdaDpRXenqGu2akS6tWreTEE06QJ554Qt57b7BcdeVVMnLUKC07LVG/XW9AQEBAQI1CUEACAgKqH7zMqRyKKTm///67nHPOOXLMMcdIp06dJDMrs0zxUAGVcz6Kiopk7ty5+i5L6tava73oAdUMKCCqUCZmzdl9mtRRhbFjx61sQ4GJEyfKeeedK2N/G2tlixJaXFLsPAQEBAQE1AiEFjogIKDaoqigSCZNnCSXXnqZ7LrLrnaGBFu7JmCKipNm582bL7m5uVKvXnTQINaRoBtQjZCiTNhEgMML119vfbnv/vtU2TxXDjzgQOnevbvMnTfX1ozgz6bbhQGRgICAgFUeQQEJCFhuIAktzSwjlsNLjQJz/dXQ882IxoQJE+TU006VXXfdRa648grbRcl6z2PuyDS222WXJU45p0fdwCWFsBtQDeDLJaomNhKiCggjW61atpLDDztMBjw1wA6QPOqoo+Ttt9+2tUBWtqFMAwICAlZ5BAUkIKA6YXUVriJBlKlUTqlIs/Mhbr7lZmnXrp10OaOL1Kpdqyx/uCr3Yqckpl0VFxdL/Xr13bSsIKCuGojK0Az3Wuw2wqH3tWvXlo5bdpTrrrtOtt7anR2CErIof5EUFymNqDvbJAtSCQgICAhY5RAUkICAgOqDSHmYPn26nHzyyZK3ME/+978H7RTz0mIkVPfeKywLFiy0XZN479eEBKyi0OJLy3AjIdxnZWdLixYtbRrWVVddZaenn3b6aTJjxnRz4we6AgICAgJWPQQFJCAg4L8HwmRMoOzXr589X3f9dZKTk2128alVjJJw0CA7XtWv38Cdgh7zH7AKI1IyWRPCAZIsUN9t192kb9/7pKioWC688EL5YMgHZeWNXmojItxEdgEBAQEB1RpBAQkIqCy8cJMQcpCAlmYCKg3N1xIVIt9880159dVX5dFHH5X11l3PDq6jx5ttdi3v1aB4zJ+/QBo0qC85uU5BCaghiFUfP6qVlZ0lO+ywg9x7bx9p124NufSyS2XQi4NshMxP2zODEhKmZgUEBARUewQFJCCgsvD6hL8G/HugU0QCIwLke4MHy71975Ubb7xB1lhzDTeyEQNuFi1aJLPnzJb69evbWR9hLUANB/VNyzcjPV0VzgZy6aWX2NqQu+6+Sy6/4nIZN26cpOs7DApLidJIQEBAQED1RlBAAgICVj6QEVEcuEQ92COGj5CLLr5IunbtKnvtuZe5ifdscx4E6z045Zw1HzmqfGBnM7OCUlizkKxDaPlmZmZK7Vq1pWnTprLfvvvJc88+Z7uinXHGGfL+++/bAnVzGhaHBAQEBFR7BAUkIKCy8EJRVXewxsOr6rCrMfhUFAu2z/3662+k2znd5Pbbb5f999/fDp7z267aX3qaFBUXyazZs2yrXc77SKz7CPJmzQQKqjcxcCYIu2S1btNarrn6Gjn4oIPl3HPPlYcefkgKC4tMIUVpDQgICAiovggKSEBAZeEF3aoWeOPhrS7CtMqHpYx86O3YsWOlV8+ecsThR8gBBxxgwqVXOkyQ1DxhlGTWzFmmeGAS50GsLvm1OsKXry/j2D3rgRgRadykiZxy6qly//33ywdDP5DOnTvLt998a26KVBkxmKbrbgMCAgICqgeCAhIQsNLhJaLVTDKKf7IKkigYM2fOkB7X95CNNtpILrzoIsnOyU4oF7agWG8YCeGgQZQQ1n2kp0UjHwE1F5TvEgw0gm5aWloijRo1lJ122ll639xbmqpC0kOVWTYxCLtiBQQEBFRfBAUkICBg5QBh0OkUBs7wOP30M0zp6NWrl2RlZdp7p3goc2JRsV7nzpsrBQWF0qxZM6ecBK4VoEhXWuAP1KlbWzbcYEO5/Y475IQTTpDbb7tdru/Rw3bJCkpIQEBAQPVDaMoDAgJWLBAAo3n8bkG5SKEqFI8//pjtbHTDDTdIbq1cUzj8lCsES045Z+SDhedst5ueqQoJCkhAAGTAQBj0gNJaXGprgurXryf77L233NT7JvluxAjp0bOHjBw10vkJCAgICKg2CApIwKoFhFlvlgXL6j6g6oCw6I2ipKRYnnv+OXlqwFPS976+0rZtW3tpIx70aqthjn9eXp4sKlhk066ysrJdGUZhBAR4eKU0Iz2DJ2narKnstONO8vDDD8uvY361Beoff/SxuUlgdeIHKP+B/wUEBFQzBAUkoFqDnk0a0MR87iRhdqnAj99Fh3tvqgrJYVUq7PhHVPZDagY4o2HQoEHy4IMPyt333C0tW7aMznAoywdGQThokNGPxo0bu0XncKrVK6sCKgPowo+E6H96hrvm5OZI23Zt5eFHHpbjjjtOrrjiCrnpxptk8sTJiSl+hqrkBdURfJ+vN3qf+HYuNf3bAwICqjWCAhJQPaGNI4uPi4qLbUtW33haA4pCEVcqkp8xAKfqvqCw0A6vY4vOhCITd7esiOIq15h7+MY+oAyaP0VFRbaI/Nlnn5GHHnpIbrnlFtlll13caIfmoz/xGjDyMX/+fGnevEVYcB6wnEiTjMwMadKkiZx00snyyKOPyKhRP8ihhx0q33zzjS1gB8XKYxL1uKZBPwtlnrpXDB/Vb6UOFhe562L8j2fPS1O98wYkX+NI5Q4syU9AQMBqh6CABFQPxBonFA9Ag/nIIw/LlMlTTEBlTQB44803HOXiR4VTputUBHrWP/vsU/n22+HW027CrKd6vCV7TWWXBBSiqZOnSr9+/ZwgQxpUiImSF5AClOnvv/8uN910kx00uOsuu5oQZNOutIwY6SIvsVu4ME/q1K7jerMDhwqoDOJKaqz+IoDXqVNbNt5oY+lzzz1y9NFHS7du3eT111+zgwvdyFvcc80CdYvtihlRfOaZp+Xyy6+Qnj17yI8//lj22RHP87wsgVg+JtwkKWv2HLPy7+n4sftYeLa+K3YtF35AQMBqh9C8B1RDpNki5ZHffy/fq3nsscdk0aICE1YRZIe8P6Rc4+WnX9DgIcD69o1eP7DBBhuYsV1zcBvza27jBsQb4Thibv7++295b/B7Gp/GoYqH7ceDv3g4yajIviZCvzUhnGi+fPPtN3LeeefJzb1vloMPPphCc8pHVB5cCwsKZPr0GXZfq3YtF05AQGVA3fP1Vq9WFxUcWgg9IYg3adpEzjzzTLn++h7yv//9T87scqaMGzdOeYobYU2YGgTq4C+//CI333yzTWU85JBDZO+997ZpkG+9+Zb7XqqgurMsi54T8PmBnZq0DDdiadBLYuQysrJn/iPrBHw4imQeHBAQsHoio6ciug8I+G8RNVocIMZox5AhQ2THHXeUr776Srbaaitp0KCB7Yj07rvvSpvWbeTTzz6VBfMXSNMmTa1XLS8vX0aPHi3ffvutjPnlV2nUsKHUrlNbpkyZIjnZ2bamYNrUaXbQHY3o3+P/ltmzZ0tOTo6MGPGdKjvfydw5c6Vhg4aSlZ1lioWlSa8oKgsWzJfPP/tcRv3wg8zVsMaN+0v2228/m+LATjtM7aBxbdSosWr20cfEG+L4fU2H5pcf4Zg4caJce+110qpVK7ns8susRza+5gPljVPOFyxcqO8ypG6dugnBMSDg3wCB2BQQNRkZmVbX11hjDenQvoO8O/hdrbPfypprriEtWrR0lRw/0F0NIb3CwkK55557ZOuttpYjjjhC1tRv5/vbtWsn3w7/VrbquJV+b7r8OvZX+eKLL2TO3Dm26QP1b+T3I2XatGkybNgw+eeff6RWbi27/+nHn4znNWrUSIYPH24jSZ9+9pm5bdy4iWQrr0Xp4fkztf/j9z+kbZu2Mm/uPHsm3Hnz50uzps1smlxAQHXFJx9/InPnznWdZgrkjIJC1xkKnQf8O4QRkIDqAd/g6xXhf/LkyfLll8Nkt912kz333FOVkaE2+pGVlWUC7X333ydbb72NKiOD7dAxGsy/x42TQS8NkvXXX18FiuY21eK7776XN954Q94f8r75vfGmG2XqtKnaAM6Txx57XGrXqm1KxcsvD5K11lpbnnr6aXn5lZctKX7KF9eCgkXakPeRadOnmSB9c+/etq6EXsWBAweqAjNC1l57ben3eD+9Hy7FzLFejUGeuV2JRLqc0UUFnY629oNygnkbVN5D2GMK3cwZM1VYKpBaWh6UU6JnNSBgeQD5eBKCzuzPXbMys2S77beXxx9/XDbaqIOcduppdpJ6vtZnplcmpgjVAMBH6ZTZd799TdjH8HnrrLOufTff+8nHH8vdd9+tduvIe++9J48+8qjVy6eeekpOOOFEad++vbz6yqty2OGHGc9r1ryZdO/eXX799Vfp06ePHHnUUcZv58yZa9O7WL9FJxFTLddcc01p3ry5/Pb7b8Z76ZzZbLPN5IMPhsozzz4TpTIgIGB1RFBAAqoXtHGkd41tM7fZZmubRkXv3e+//SZ5+XnWMLIz0vnnna8Kw1py4gknyAcffmAjGyO+GyFHHX2U1KlTVxYuWCjjJ4yXGTNmmJJArztTME499VR55eVXTCk5WhtO3n3y6Sdy0YUXSYcO7eWSSy6W0T+Nlvy8RdYzSHoQW/78409LHMrQ5ptvJmd0OcME6d80XZ9/8YUcpWFtsskmcvAhh8iAAQPsG0ziWZ2geeWnZ3AmA4JInz732raoTH1B+WBuuAeCHlPtZs2aZXlJuWYz8hR0j4AVCDo4GORgk4OTTjxJrr3uWuUHr8vll18u/0z4xzmKyNTomb6EVa0/IUo/fIh657+DUUnXCcA0x9o2QsIU10MPPVTab9heunQ5U8aOHStTlZ9mZmVpve0i6667nuy1916mTOyzzz6yvSpvjCyzroTOgus0/1AqdtxxB9sue+TIkdY7fMoppyiv3Fw23WRTKS4qli0230LatmljfIH3P/30k0tkQEDAaomggARUD9BgagOJUIpA+sorr8jwb4dbTxu9k198+YV8/PHHNgrSsGFD2WKLLWz9xRprriGTJk6y6VVMh3ruuee0QX1UfvjhB1s3Qncf07asAdZ/Gs9ftYFlWleHjTqYsMt6juYtWljcbAs7f8F8C7uUERD1w9qRGTNnWGPL9Kz09AzZdptto7TOlkmTJlqaCKylhvP7b79HH7Q6gjniYidQM0o1cOALctutt1mvKcokgp8HoyT5i/LtvoHmH4KRKR9BAQmoStDKxU1EXxyC2ULrO8L3ww89bHX+oosukg+GfmDTitgtijpOTeY3oYysQlUbxd7VKzfNEVgd1G9YpHUPhWT4iOGmZJAvzZo1NXezZs00f61btbZpkXTU5OZwWKgb1YQP0xmEPdNkudaqVUuKVKGZPm26KTYbbbSRKR50/rAGD4WGc38+/OhDmxZL3gYEBKy+CApIQPWCtknMM95v//1seJ/tWu+48w659dZb5c4777JREHreOKAOLFiwwHrj0rWxvOOOO6xHs2ePnnLmWWfatACmQtEII0AsXLhQZs+eI/Xr1ZMG9RvYdq80qOy4hLLBHHEaVW8SU4UUNKK2s4v+0XvIGhDssrIypV7deiZcFxcVmUCdODgPYWU1A/mIEHLHHXfK4MGD5dlnnjUhzwQhFWTIV3Onecl0DsrS5VdmUDwCVhqMDvWfusy6EEZT71Sa3X///aXbOd2M5+Qrf2DKFjTteYIJzcjN1V12jtLXvFlzE/6/+OJzq3N8gx3wqXXv888/t3rZrm075Y0LzD0jJigPTIUkixgtwg5FhY0hMjLS7dnxwQytv4tk9qzZli9MbUMJYW0I9/l5+TYSmql1+7XXX5P3339Pbrn1FlXyLraF8HPmzLE4AwICVk8EBSSgegDhU6lxgTaEv//+h+y+++6Sk0uPm2vwWNexxx67y+RJk21aFcoJIyUvDnxRdth+B1mjXTtbvPzT6J9k4qSJ8umnn8q333wrmaqYcP4Hgi6N6IMP/k86H3usnHDiCbY4c86c2bLtdttKn3v6yITx46X/E/1tgWa2KhDW+xn10m226WZI1zZHmu1k79X4WfS+4YYbytbbbG3rQOjVG/jCQDnyyCNt1GS1Eqg1m/yi8+eff17eeutN23kHwY6sSM4LFEc2EGBDAASU1SqvAv57eJqM6I41R3Xq1pHOnTsbb/nkk09sRPWPP/8oxwesC4J7Hp1V9YV+G50zBx10kLz++uvy0ccfydQpU23E996+99o0KEZ1TzvtNHnllVdtbd0zzzxr/K9Vq5bGd+lYoU5Tt+fNm28KDH7IA9ZsFRcXSc9ePeWPP/6UL4d9aetobOSDEWT9o5MG0OGDnxnTZ8jIkd/bFuZMuQwICFh9EXbBCqgeiARYetNYTL7HnntYw0ejxWLm3NxaJuyz5gI7ZIBevXrJButvIF1sfUG6LSzt/8QT0u+Jfta71lIb0e132N4aQRaOT58x3aYVMGWgRYsW1hCDTjt3ssaZaRj04HXt1lWFkbrW2GJoyImzrTbMr7/+hjz99NMa13a248tuu+4q6667rrz00kvy5JNPmv3xxx1vPX9euKmxiAtg0bd++smn0vvm3nbqdKdOnVz+6Uu7AL3SM8omAOQxO+v4PA4I+E8A+SkNMsKZk5NtvGJn5QkzlF/874H/2QgJHRBuCqEbGYUfmNcEYVczkDySptfWbVpL69atrWPgsUcfk1GjRskhhxwq22+3nSkT7Tt0kAkTxsttt92ufDZHzj//fGnYqKHtZMXC9LZt29qakHnz5soOO+xgh4Oyg9bOO+0sw74aZpt3cF7TpEmT5KqrrrLDH8ePHy9t2rSxvASEQVycSP/z6J9tAxHi2mnHnULdD6i2CLtgrVikaYbGxYiAgP8UzBmGJK3njIaJaUxRA4UAQIPKe9YP4DZbBQaUCuzoxWTuNj13mRmZCQbhp2Fhz1QfLzQUqX+mYPDMtANGSvDDqAn73fu4DFzUqmBRgfXukT7idWGl2S5ZpAcFxpSPyL1Pe40E30ge6R/58P1338sxnY+R66+/Xo499tiyMoyy0Ocf63Uon3r166s/tbafyE1AwH+JqN4WLiq0xdKsKWPUc+ONN5ZLLr1UGjZskNjdzegex9BudaNfz3/0SscO6WTaKnyOupdbKzfiXQ7wQtaEMA2VjSBwbyOayss8f4SH2noSDbNIeTFrQ9jUg2myjGaw1o4NQDhAFF4I8EsYTP+Cf+MGO8LJzMwqGymubvkXEKB0fuMNN9pmNo88/IhZUSdYIwr9MmIa8O8QpmAFVCuwTsCm5HjEKNS2kczS99naSKriUatOLbMDvjHNyc0xxpBTK8eUCEym+qFRzM6Jbe+qF2fvTuImvDp1a0uWhm3KRwQaYvuLFBXCZetepmghiGBH1CzQrFOnjjXS1vivBkA3Q0Hj5HJ6PxmR6ta1m+0IZoKKB9mppriw2Bbt866ujTC5/LX3qwugjX9LH//Gv48/2YBUdslY0ruagIgWWfvQqHEjOfHEE+XiSy6Wjz/5WG677VaZ+M9E64AoLCp0DqszonJixAI+BY9ivRqdJFbvfDnqlU4X1sLl5ijfNJ7mlARzp2D0wvNagHv8MbJiSo0qE/Xq17M6DYxXqzF+qIB/cs+IJwb+GZSPgIDVG0EBCaieiDdKVd1IVTas5DSAJOGLBto30qsNyAM1XthgiPrqq6+RTTbdRC648AKbspIMlI+Zs2aq4JGlykc9UyRNGVyNsq401Q5KUV4akt+lgrqhF87fLwa1s92aqgo+qOS0c1+F0VQrxL4LoXrHHXeyaZesPWP92EsvviTFxeyQFTmqjqBeebMkpPiGxfhZqu+MwqbTgTUjnheguCTcVyZ/kqIKCAhYfRAUkIBVGyoY+Z74xYSkqoJvJJe1sSQtpCluktMX2a8SW3xq2rxwS35j2A2sa9ezpW6dOjb/23pNvTTCJyGoFZfKrNmzbMTIn7Kc+M7VQQDhW+17mbSjv5pvKGQ8eGWCfGUNQklRiZmEH/faQZ/pbTZa9+8xHnpPGOaGcuLf0xbuMOR3svFIZa9XtlSm19+FH21N68MjffE01gT4b9fvcyMB6baegalGl1x8sTw54Em54ILz5eefR7ts1Z9Vov5WFZAaIhph5IPvTygekX1AQEDA0hAUkIBVEzR2CcHHtfpOvLOb5QP+ltfvEmDBIrRx9YJKstC2AuJdEUDQ4FsQRGfOnGWLT5nWwcJVpnDEBRDW6eCeObN8X916dd3Ix2oooJjSoBlTisKht8wrfu3V1+SZZ56RQYMGyZgxYzRPixNT/TziNP3551/Y9qnvvPOOzaW3fFZ7aMroSp9Z04SC987b79hGDPn5eRr2r1ZeKREFn7gC7r1Rb2zbyq5yH330kRQVurMk7GVNLke+LRK0mabJtrJsabv/AfvLNVdfIzNmzJRrruluJ3oXUhYAP9UxT6o6XZ6UjEbctuSJURNPNylgdO3TUpXpCQgIWCURFJCAVQ9RA8eiSoRchCJ/MJbJeXH4BtGbZCS/o2FMtgN6T09+ObsKYEJj1Mg6wZOdMwrdtpZsT+kTSUOubvgGDFOZLHxvqiM0XSZupKVL3773yoP/e1Du7dtX2rZrq98QS7TeMvd8wYKFtjEAC86ZR26I8ma1gX6rKRZ6y+jEL2N+sTNr2ImN06HZovTm3jfLV8O+cs7VbUKpiMDIBltIQ0MdO3Y0WseOQFnc62mKexSQNdday+b6//PPP9L33ntt8b9BnREu9QWTAIkjCDUWLrcaJn933XW37fL2xZdfWBkTd0LgVPjREUZbfBg1DrSUasjTbbfdVh5++CHZe++95JJLLpEBTw2wbb4N1fHbKSpMFbb2njb9NEqjFOjFDA7sdRldcQvdoISA6phPAQEBKxVBAQmofvANWMzEhTFAjy6CFsoH502wCJrGjn3pTXhDWUgB68H14eGE9jBuVIhKxMVzDDb9xDwtGXHhjAaaHuQePa63ffad4IjCUT4OzsUYOWqUhe97q/1OMom0VgTeebOi4MPW9LIDzvPPP2c98m++9abtDMS6D3pCDZHbufPm2tadDRrwPtsJK6sxKFv+XnjhBTn++ONlyy23lI032Vh23W1XpY8eMnXaVKMPaPStt9+2qT6jRo6y/GR0BMUAmmB7VK7kN7Ty3XffS//+T8qPP/xo/iGtfyZMkDlz5spHH35kdMU5NYTLWTUvv/yyDHhygPzwww8uXeqBaVYfqlvWOowe/ZMpOoSNwrRLp06y6aab2ZkuHMpn0KIkHaSRkRFGZkhjOeGzJiH6JpRqNslo2LChnHDCCTYK8szTz8g555wrM2fONAUwjnJK2X+RL1G8xhOjovOKZSrE7XGXCrhhDcyff/5l26LbNEvisB+x3cOGRcp0LDijJ95NUNp0KUgdfkXWAQEBNQtBAQmoNvCKAw0ZDTkjAjRarvHUVkkbUIQoetSdkO8E2q++/srOlSgsYKvIDDuNvChSRKw3N2rQEKZsm14NA/9e8LKRCDXEzUgFPbq4s/g0HBOutJG17STVT6Jh1ugXFRTYjjgcoIgSgWLBYVzEgTvSz7kXRx5xpDRv3szs3A46pbYdLWkG9erVk5122tHSxW4x2NOr6nqu06zBz1uQ55QSPolv0/QSNt+FwGjJipuqRhTmG2+8Lt27d5cbbuhlh46BxJa7wPJlkaWNbTnZUWi1Rqw8WAfTvn17GTBggEyeMtnKjZGhdddbVw495FCjl7ffeVu++eYbyz9O5P7yiy9t61S2R2U6W6+evWT2nNnOrSoqDz34oNStW0cef+xxGTJkiNJFsdzTp49MnjzJdoWrlZur0ZfaOThsJzlu3Djby/6Jfk/YNDDw8qCX7fDIhQsX2nk2X3zhpnt9+MGHdigfCuQvP/8i99x9j9WZP//8U+677z6jxzfeeEPefPNNo1vr4K6JrQrfRRnq9f/tnQWAVdXWx9fAEEN3SymIBTaigvpsRcRuwe74nq3YYisICBa2KCY2iigooj4DbOkUkG6YAL71W/vsO2cud2YuMhKy/3f2nHN259pr7SSdDH5UrVpNjj3mGLn7nntkxYrlcuaZZ7pZrIjRByy5s5km3x5jdeEfxVphQEMQYt1sq3/6Nms0Td8Tgx76bV5g7tOO0nfqLPtivvn6a/lo8Ef2zYlWNsOhQjGDQJh7YczPDhHmzBkzVTj5umD8/Ls+jc4HBARsEQgXEQZsMjDhQ38w74PeGqRM2gsyZMgQmTNnjmzXajsTDK699jpjeDgWE2aJW8/79XtMma1ZUk0ZglXaGT7++OM2ygsT1bRJE7tUi5Hfvn37ydvvvCNfffWV9O/fXw4+5GAZMGCAdcRsMoVReOaZZ2TmzFnKJG4rr732mrz44kvayQ6Wv2b/Jdttt50x2tY1a0dMh3rVVVdbRwwDBvM3fvw4+eD9920kGSZt1912leXKnDz+xONy0IEH2Vr63r16yw8//CCDBg2Sd9971y7povPmNuKddtpJ3njjdbupmAvDuIeAS71Ya85FYrjfb7/9jEF4/fXXLL5DPxkqf874U+PXquAyp5ICjIGGx10B3333rW3GZdaJ2+otKyLGw6A8DTM+CGPcqVJFBSvMDSUZp80Nnq/SPEAAQWh86qmnbNaCmYgRX46QlttuaxdxIkjceOMN0qFDB6ldu7bVEWZJ3n77bTnkkEOsbp940kk2mty3b19bBtShw37SSssfv1q3aS0DB74ix3Q+RoXeujaj0e2mbjJp8iQNN8+Olq1bp478+NOP8uuvv8lee+1l7e3yyy+XDlq3uDzul19+kcaNG5sA0qVrF9lmm22kfFaWPPTQQ+b+cRVk9t9vfznu+ONkl513kUFvD5IG9RtI7bq1o4T+SxHjj2G6EUbq1K0j+++/v0yfNl0GvDzA9t5ss/U2+ZdsRoi/b5C2oGFQRyhDhN1vv/1OKlTIsuPCx44dKyO/HCkLFy6SrbZqZNZp41OnTVU6NtRm42rVqqVtuJzpT/9zuoz4YoRMnjxZ62QdS/eECRPMHgNF6NPeGUhh8IT2X1frHvmFgDLs02FaD38zGs7+pRYtW8iSxUtMYPvmm29kwfyFUXhlt2w6EbBJIVxE+M8izIAEbDLwTCyMO6PAN1x/vVxyySXKqL8tk6dMNqaNY1x79uihDNqNxsRzo27r1jvJNddco8xTB3n1tVdlzz32lB49euKjrV2HWCB0ZGWVl0ce6Sk779xGvhz5pY32LdIOGMYAoYdRTS7jYlPp4kWL7QKySy65WK6+5moZ/OFgWw6D0GHn6usPYjRhwnjJ1Dj17tPbGL9PhnwiNyjziACB0MFGbUaM6aBLqf8w59//8L2cffbZ8uijj5ow8d5779vdIjnZ2VA4mTd3ntm/4oor5IILLpDu3e+WQw89VHr2fMQEJZZyMYrI0pv7779f/k8Z0NGjR9tGZuu8S7IDVwbClv6sWqVMwny55eZb5LjjjjNG2MJRChIXPpgRgrGAOFdSZsQQY9q2ZGjRmqIOMNsBM3/YYYfZrManQz+VDz543xg0lqggTDNyvNtuuxmzmJ2dY/WN+kc9ZSnUggULbNkPl+Qx6tysaTPp0qWL1U9GknOjkWpmXZiR2mnHnaS2Mnm3336b9OrdW7788ktlUJdYfKibderW1TaWY8utqJ/sUTnjzDNspuPhhx+2mS/ihwA+evQoada8mc3iIbAQl8Q+iH8zovZlwkRU7Vl+WL1adbn2umttFoS2f1f3u+zYafKrwN6oyM0/jigcBmaOOeYYee7Z52wZHrNYU6dOs7o38NWB8uSTT5hgQBudNHGS3HnnnfL2oEE2+DL4ww9tNo1K+8QTT8jLr7xsS/2efrq/pb9MmbLmL4Mk2O/Tu48N4iDsYJ84wKwNfGWgvP7G6zbYc9+995mAwuzaKwMHyosvvaiC9TsWj+++/dZFOtCLgIAtAkEACdg0oJ2OZ+q/V8GiaZOmxojNmT1Hdt11Fxny8RApV1Y7+hrVbYaDZSF33XWXrcVm1B8mgOf4ceNl3/b72kzFLTffbJtwATMpp5xyijHSHTt2tBENYwy0I4Wpy1AhheVWMGOM2DFazMwEMydcPtamTRv5WP0waMdKPNmIzUVcZ599lmnDiO29995SqWIli1etmrVU+FHLGgY3DLsR0AwTLBo2aGj+MOrH7ewwgCzNwg5LvU466SS7XRimcq+92qqQ1VrKly9nZ+6zHIu7CJil4UKvhhoHhAITQP6BzptZJfLhpJNPsg24Z57ZxaWFsKLwWM3BTNKihQttjTyjrKU1T80eVIakb+EgK8iPPn362ExF9erVLT+vueZaeU0FZWbeEBz4URcQnKmidnEby9j0nfqLH9Q/hDzL3wjoUVcNqs1N1TCEMIG0DUaamRXkxLI777xDzjrrLJtFZLkhAg3Cffny5bU9rLL1/bQdBH3azVX/vUquuuoqE5QBQg3hw3gTFnFl6eO/GmR1kvL5X0bzokKFCtYO33zzLdM/8cSTZMSIL40GmJAeay+J5wZAi5YtpVu3biYAtO/Q3g4zYMBmwEsDbDlfzx49bdBnyCdDTIDq//TTNoCD8PKrCifM6lBPmbFj5pi0jRgxwoTePfbYw/T7PNrH7CCksAy2QoWKNmA0etRoGTturNx77722tO+A//zHlmTOmDHTBlwYQGEJIUtUmeGjDgcEBGwZCAJIwKaBqEOHkWEWgin83//43QSBJo2byP4H7G/mJ554ojRp2kTGjh1n+xAYwUVwYdQXwAQjGJh32unzDVMHwwSDwBNmzG7ihUFWe/bUF4QWFB0sN3UjmDAqOHbcOGnWrJkcpYILerZO2eLqGEHOwgeEy+i0MRt4jJ69uJODYPL4coxlrKN13jmmJHKHsOWZGx9X4EbAS8m8+fMsjgB7pImRxRLtwCOvZs6aaXd8sMzkuuuuM0GIiBKW5YUKHzAjC+YvsPyDsYYJcYk1L7Z4mFihWcWyncMOPUye6v+UzVpRjuOUQevx8MPSrt1eKmDXUIGznXz66Wcyd85cZdzusbpP+VKXKX+e1AeE39123c1Gm+eoXUaiGWmG8WP/CHYpD26qnzXrLxNe2CtFucFwvjrwVbsdG6G2vAo573/wfrRUsa8MHvyhuWeGA4EcAZ3jghFKCPv8C843hnbO3DnyljLcTZo0kR223yFK7RaGqFyhQbTb7Vq1khtuuEFOPOEEubt7dztggKV15D9qQwL606hRQ6lZq5bdXs5M7xeffyG9evWSCy+6UO5RwYDlf7TVCRMmyj777GP7faBtF198seyww/Y2A8ceoUsvvVSuvPIKG/xhFha/9tl3H6tj0L2GjRpZnWbAAkC3Jk6aKFs339oOokBgPeKIw41eMWjCsdysAH/ssceM1q9YucLRvIgGBgQE/LsR2IOATQqM/m/VaCupW6+uHHVUJ1s+wDp4OnDAyNqRRxwpZ591li0pgEEyxkyZKt6ZNWDzLZvJR478SmrWrGnMH+vuGXXG3tSpU5XpG6e+uaVFrEmGqWI99K+//iqlM52QwnKnIzseqULPCVI+q7zMnTfPOls6SBMslPEw4ScSOBAMeBrY3xnpm/Cg4bKUyTGiKpCUdhZtuUz0g8mD6cNP0uTB8hmAPm5hCDmKFSbAmE0V2H74/gepXae2Y3AiwWG9oMET1rKly2zfDWEyalqpSiXbEE0gmJM+4u4vq2O/DfG01LkkBihWqEBQSsucOtFm5zZy7DHHygsvvGD7N2AG69WvJ21at5HKypSdeuop8t6778rNN98sWVkVpHPnzsaYudmyMiZ4UJeY9Tv1tFONcbzhhuvll19/sRF4ZqDY1M7dFbQH1v3fd9990nLbllK3bj1liB3T13zr5lbHAXX8nXfelQsvvNCWJSLos6eDJYC9Hukl3VTYnz9vvuy8y85an0vb/hQE4CuvvNJGzmmTMJklUvc2J9CDxhXtXZlx6M7Jp5xss53/++Z/xuyPn+BOjLJ2gfJ59U/lWeQvNMU+NEzaarXq1W3p37HHHiudjjrKypf9GvD+0EJoCvUM4XL5suXmx94qmBx/3PFWv1ied+CBB1pdZsaYesbADgMT0LqyKsAYvVMahtDBgQnQCpZdEQ3iM3HiRPnss8/k6KOPlqM7H22z0ggsAQEbHMntL/ZNHYf2Un+tvwsoUWRopoZcDdiksHzZCundu5etTaZD5KQlOnI6sBtuuFE4WYbRMmYl/u/K/7P17GPHjJGuZ3W1U5f693/KGAA6uZtvvkV22Xln20jGMgSYAwSU77//3k4aGj5suDz51FPSpEljDStXvv76K7nlFrfPgeUBY/4Y404SysqSm268SWrVrqUxdAw2gsF5551vy1mYlWGUkBFAlq0wErr7Hrvb6DBCwSWXXiqDBr1lG4jZCHzG6acbU8+G+q+/+Uauuuq/MmDAy5rOyy2epO3cc8+V2bNnywnHn2CdNR0367b33LOttNhmG+nevbstUyutQlENZSpYIlO1WsQEeiZnXaFuCYc4w1zccccdsnTJUrn9jtulTp06lnJIho1UKlgqxEZXRtkb1K+f0A9DG0XAl0/05PCFxKyZN1PArMLQMcuEuaPU+Xm/FrxfCLfYjfzi8ACWY3l/PThFzWbxIv/ZVIyQyTIbljomYOEqIveMfCOIEx8mHhPxg7f2YSSFtcUgynffrbL8jeVGL730ojzzzLNyzdVXy/nnny+lMqMGgqCvPyv/koZGYfz4CXZrO4M1XBTKwMz9998nVapUkYsuusgGZe69517p91g/GT58uO2r48AC6Cu08+STTrLZk76PPio33nSjDZhAZy697DKZN3euzaCwZwT71JuuXbraUlZOWLvt9tvsABH2lVx22eU2E8PS0osuvMgGmB588EGbtSOeV2u+LF22TJ566sktt+4EbHi4Zppf56JvljkzoNj9ru52MMNj/R5zBgpmkRmEqVSxotPAbaizfwvhFKyATQ6MvnEaFEt52HvBfg06TISAHXfc0UaCeZ504knGcO+0045Sv159O3mGk6CaNWtubrlroUWLbWxGA4VfLMM66OCDZdmypdK+fXvZdtttbTlAs+bN5T8HHCCnnXa6tGzZwk5z4XQfOt+mKlwwIsxNyDB/NiKiP5Yd4D9LWJgVqF2rtp2UxYwNgtNOrXdS8xZSsVJF2Vn9YlNvPY1nS9WrULGCjRAiKG2//XbSoEFDadx4KxtVbtGipcahpVsGpoRwl113sVFveBpGKnHDKDd5RJ6wP6RTp05u9iGKGxSxMD61MHhGGMEIcOQqe28e7fuoxrueSzuU1vy1N2NG2URdnb045bbQiwbXFbG8MeY9mg2DaXVMvX7zjAowP88jRpV3Z5T/joq5NfgReWbgUsD85y9iftlIPmrUKKlXt54tezQ/FSZwRnYAs5TmLvr2Zvaff95gS4Wm39qKKhh2aA60h/b85ltvypSpU6Rdu73NomVXVP4lDcpt4cKF8uOPo+XII480oZGyYknUsOHDbHP4Tz//ZMsr2b8GfePkvVcGvmIn+jE7wcEe3PPDKXsvvTTATuNjHwczKFOmcA/IOPnuu+/stCBo1n/UjJlo9uLZfrjK7IerbgIYAzTQQmZvoV3ManMs9MdDPrYZZvbNscwzXtcCAv5RRLTSaJz+7KntlieDMyxXXLR4kfEg1qZVj4FQzJndc31t1JJDtV1nhBmQgE0OjKSyX4KaaTxSRBCcoWOAOHGHaX9G/xmtZ4TXiMPKHNVnWRMbQzPNvnML8XCjyvh3zdXXyPU33CA1alQ34gEh8aPN+MdMCY69W94Z9SA+5qf+8Id3ZgHYZA7Bwi2CCUtkbHRZ3Xt7CBx8+2VWxsjpkzXTCEiWTnXn4+LSre5WR+vG9d38JoP4tLhpfmjCzK7TND3VsPSuEyKngMvy2FvA5tHdd9890k0k3tLA0i9OYaqlghcnjJlxwLqBoqScXJG6PIznI2WCirI+7Zkl78Yj+TuOKAz2KlCm7POpUbOGMyNeyXFKBW8PFGd3CwJNleZP/jIbMGHiBLnj9jukStWqcvfd3d3gRWYZl2Xr2l7TAPvCWP7HPTEAWkFgzFpixmAPM7ye9mHGCYAMcGDGAAfgoAKOE1+pz7p165hdlmpBwxaoIMHyqyqVq2gyqUzuziWWCEInIEnLly+zfUkc5VwBP6FPGhb0A9pVuVJlY+wqV6kc6k/ARgHLDdkLB+/heIpMO26eY/A50ZKqzWzyypUcVLNKqlapYnXV+ncQ6u06I8yABGxy8O3YmHBl4qM+zRo6ehyfaxuztfPjmEg2V7qOL8MEEd7pQPNy8swOfkAjED5sDbaCE6oaN2lsRAbgJ/7nCwZuRAS3XhiIw3+bEKCvXESGgGL7QRSJpS3Yi5xaWngqE5Bvj3cEFhV60Ce+6sbcmh0njHiFXz6ePM2+aaLPw+nj0v1LA2Sdyz57ckQxp+Cw7p87Iiz9GpcMNbPkqj0YDC5fZKaoYoUK/wjztMWAvFcgWMbri4H3uEoXyXaLchv5zb0uBx98sG1Mt3goYCAp8OizaHg76djdQuDzDZpUsXJFqal0p522Ke7T4TLK6tVr2D0cZcuzbwIHzn6B978L9YMBCwQB6BS0AsYKj9HjxDOejh5xgIYKIeoGYYIlpOjxnZfH8edlTXhAkMEfo0f6JIwqKjTgD/E1PYJWh35QBVoHbWMGCGEHGgzNZuaH2SE7HIR4qpkh1J+ADQmtw0uWLJWbu3WTBg3q20oFelDqJAcucKx8xyM7WpOkLnPS4AMP3G/HmlepqkKIR6i364zANgRskjAWOmrQJgRox+YZeAiDGet3Zlm3rMAxyVhWc+34AGZGNZA59EknyIwJdhnVt02Pqo97lg9ZGNFG4fi7i0rBn/kLCE/jw1KDzDIqgGgY3twzcQm7Pg7qN/7zjlUeCEwWlsJ12qqJH5FfKBN2ondQIB48o+AM8ffigDfqN8zJ//73Pzvt5qyzutqRncwyxYE9ll3Nmz/fmA7SHajIeiAqJ/IVRnCjgrioSiwJ4l3roq/GRcLbScfulgbyMWrbWRXK22EADz/0sF38eM89d8u111wrf07/M799R/RqvUGQkTLBQP2kPXNil8UperrDEdSembt7Y6A/LCvlGzpp9QCvfGUwd2qHARx158xVM3pnY7qBdKhiNsV/+0GfRDpRIP4eELChoNWWGfyGjRqqEHKzzQ5aVY7qI4MHrm2ikWF3lHFaYI2aNc05dk0FrDMC6xCw6aGoTihVQ18HAuCslhC10Hj6Ttx/FwsXAYfk1hc3S4GU8U4Osxg/1gLuUeoGonqZMkUnnnCinZBjwgdxxD+1AxFmpmbBwgV2WhPLJtJKc0BqxPMuYvB8edhymKJQiPE6uSvMakzfC+AFkIa7gMIBzciqkCWHH364XUa6YOFCOfrozvL9d987Rof8TqYNm0reJsfD1w2vz9O/u8nmBBLCS0DApgKtq9BMBgDZMzpm7Bj5cfSPibpKezRlX666s5eJk+D8jGHA30dYghWwaYEGnaoDjgPzdPsyb7colQ7StesZ9qJUcUjlJpVKJn5xM+CfhUHd234UJbZjx4yV8849Tw45+GC7+T2xHCIJHFXMpXgcCpBIa8C6gXxnLxIzDfr+xJNPyLKlS+0uDev4yFfVt3dfxjxR5Ld/94iXgeoXcBc3i0CH6jvYZP+M/427icxtX1Q0Y2fQp6UBAcW7x8ybBxQJm2VQBoblHm3b7im1atWUXr172QZuDsZgCRSwslrD/i59krl/J3+9IBCVsSH+7lEc7fIozp90kMr/uAoI2BDQuuZpYaVKlW0fExdicoACsyIc1rB48RLp1MltQmdf5Nx5c+X88863U+UStDLU2b8FSE5AwKaFv9upbSwQ300pzj4u8Tj5OMYVD2VwOCnn4R4PyzbbbCOXX3G5W88dmRv0nU13XIzHBr2qVaoGgvt3EMtTy/cFC+3OjblzNV/1x1Gmq1QgnDd3nt25kZe7ys1o4I78jlFrNgRzUzUMK5snV+ettn1MbCyeO3uudZrs08H9imUr7J4WwrIL8dQebgjH3/PASWZsAl68eJEdWW17BQha3XMXzDK1h3uEDsy8X4sXLra02K+42ZeAAoChYf/XVls1luOPP0G6dOlit5Nz8MO8efPsJD0EQn/oxHq1ucKKBv2/U2x/150HaSlMBQRsBNC3cZrkjJkz5IP3P3DLuvVnh8BoXf9r9mx58qkn5YgjjrBT2xL0mDrr28P6tIktEEEACdi0QGPelGulj18qtSl0nkoAjRHUuDC7wZ0qBdZaJymYHJaCsI/lgQcekEoVKxVkJEmTKhhTLhpMzHwErBt8GSgQ5t4aNEgOP+xwOePMM+0uGo505MShESO+kFNOPkVOOvlkeeP119VJ5CgqL8AJcFwsyCWd3K8wZsyYxB6DZ555Rjof01mOO+5Y60QRDrir4YILLpQzzzhTDjroIHnllVfsThtG+bpwb0Nenjz/3PN2LwR+0gkPHjzYypkLO9HvqszxiSedqILIMvnyyy+la9eucuhhh9pFndy3AxJ7RzYmyCPy2qsozzYpkE0RvbD9F/rKRu4jj+woj/bta/fv7NVuL/lkyCdmboxQgWmpdYSnT0WpdLz38S4JFRCwKSGirxxlz101zEqD5cuXa7XPsMGcvn0ftfu5OKiDftPDBnm0zS5atMjobUD6CKQgIOBfBkZMGQmHFrK0hxFrboB3PyWY0fsKZWT79esnzZs3l0suudROqUHfRlw9HdUno+y44VZtGOWAv4/c7Fz55uuvVegYZkcdX3PN1XbZJPjxxx+N6ez5SE95+KGH5OdffpHff//dUemIQczJzrFLKbkzYcCAAXLZpZfK88+/YCPmnFk//c/pps8lciO/Gil//uk2N3NK2wMPPiD33X+fXbR50MEHydChQ2Xrrbe2usJR0r/++qtdDvfII4/Y/S+///a7CUVcxHX9DdfL448/YTMpXJ7JLe2DVIjq3au3PPzww9YBc+rcRmf6k8PemHFJBxo/hAsOdmBfFXdpXHH5FXKyCqAPPvSg9Ovbz47FDQgI+Aeh9DVDBX0GY7jLhtUA0DlQpmwZuwfnww8/tIMjsspn2QENgD6WGWWOmMYThBE/YRlQPMIekICAzRXJzFXEpDJiw0lg3Ph+ySWXyN777G0Mq5lAaPVftjKy77zztrz44ovy2GOP2eVkCB9uWYibemY5UE52tgkgFStWtGM7bSQ2CicgTfhy0nxjVurhHj3kpJNOlB123MHugZiuQkLTJk1svfFfs/6Spk2bmnA4efIku2F+l112ThwTzQwEN+Bfe+21UrduPWnUqJEKkM3scso+j/aRE044QbbffnvZqtFWdqgAy6S4+K59+w6y3377mQD53HPP2Q33derWlUkTJ0qr7bZTQec3uyCOC+u4iHDxksUya+YsjVdTOwWp41EdpWrVKna6EbNgCDzcos3N/whOxx13nKsfvnJsrDqSSuDYlOsrcVNlp1QpOC2qYqVKss/e+9jlgAipCJxccFqzhjt1ByZno+dzQMC/CUo3WILFSgCOlmc/3nXXXS+NlT5zQevo0T/qe2PpelZXG6zhtn/o3Sp95uTm2PJVBvD8CZzWPkPbLBZhBiQg4N8E6F60HIcLlCZOmGib5QAENjc3z2ZEnnvuWXnooYdsyQ6MDsKHHQ2sCkaX72xlghmdZ+aDUR/nuXkVsC6I8oyZCDqmhdqhwWh6ppPlNzm5uTaKNn7CBHnjjTfkzTffsONKd1OhgFkTlr/hEUsB6BAREjkilc6PZQF0hgiKHnSQbGTO1HAIl3sX2ERu7jjGWkF9gF8vV66s1onV1oGiwVIq7HEpIXGnU/XusnOyZcCAl2X48OHSsGEjOeOMM2w5AumxO0M2V6QSXDYwrN1pWXG6TlbFLDn00EPtlKzmzZrbjMibb75pI7SufSo2gTgHBPwrAN3TdgUd5H2HHXawAZdRo0fJ999/L598MkSuuvoqd/u50dNMo40MDCF8lClT1szoe/EHs4DiEQSQgIB/G5SAwgwygt1qu1Z2xCCAiSyjTC1LbZ588km5+uqrpfnWzY0xNaLpoa/sM2BjMjdiQ1hxu7GvqdisoXlHx8XyNmak/vj9D9ufQ+fFLEKFClmy4047Sdu2baV3797S65Fesueee8qSpUtMEDGBQMuEGYjWrdvIuHHjTSih7FgGxY3SbdrsbPr+luvp06eb8AgI18KPCQl2qhV62ukijPz0408mYKxYvlKmTJkijVTAIFzc4JaRd2ZgsMsNwR06dJBFi926ZzsRC/+oI5tjPdkUGAb4FmVgyHNAuTdo0EAuuPBCOf/88+XOO++0JXLz5y+wcksgCCIBAesFmhD0jTtyGHBhsOXqq6+R3379zQbhOh3VyWZGoHXAZjqifpZBvcoM3ngasinQks0Em2NXERAQUBiUKEIkESg4LrBx48ZuZBsjJbBfff21nH7a6XLD9TfIsccca/pxKoAdTl+CiWX9f4WsCo6gBqK63jABsEwZOeWUU2T0j6PlpZdelAfuf0C++eYbFfLKycEHHyRZ5ctLjx49bDnVJ598IvXr1bfyRJVTQZCyvPSSS+TZZ5+xjePs6UBQZIncySefJF98/rm8OvBV0585a6a0ad3a9mewmdKVIcvvsm0WjG+EGBNkSpW2Nc99evcxAQiBpu1ebW12g1kXG3lX5piZMEb9sPP888/ZLBrmdMiro5OzAtYTlJNxRLxmSJ3ateXUU0+Tvv36ap0YKqeddqqdnOb3aq3WNuvtmwoICEgPtBcbk1ljS6ugjR988KEtc+3W7SZZtHixLF2yVH797VfbG8fy1ZkzZ7pN6NpOGSAqUybTCSSb8QTwxkKGdmyBZAVsOvC1MTC8xSOZ4CFIREwII9m33nqr7LPPvtKx45EmWPz2+28267FX273khhtukLLlyrls9nmtT0bOuesDolq1alXVUs0wTFEyiFFaRtXYNF6xUkUV9CrI1ls3N2Fj2fJlxmTmagfHSUisRTaoW79HB+GBfRcTJky0jcvMlLDHhxmISZMm2owKwuPuu+0uNWvVlJ9++sn2beAXHScbzA8+5GCb2eKUK/acPPPMs2qWbe/lypWXdho2Z+KzF4Rjmhs0aCiZdLKKyZMm27IEOt2ddtrJZl0OOGB/WwZm2JhtNxUTsLnW3xgtZIaJjerjx4+3E9Q++miwCiKn2clmzHAyYktbteWXGzP/AwI2F0BTjf3NkAUL5stbb70lAwe+Kl+NHGntiP6PI+m5swdhf/fdd7cTAFu1amWnBXIcb40aNZXuqR2WuDJzGdreOiEIIAEBmytSCSBA9bkj4pprr5Fu3brZRmXuhbjowgul0VZbyV133Wkj5pzu4bFmFeytyIL58+1pG47LROaBqP5ziKgvQgXCRYHL/jxcH+mUp9ZJdmwZlQqZ/GyPh9rj5DOs0TGyJ4SnX97DIQRltXyNYVWw5Ktps2Z24ZYHI+ssSaCL4IdbZj+8H6ar4agVBUuH9CUpXhsc/zYBJMpPK1vNbJbhcRLa0888La+99pp0ObOLnHnmmXZxKMtBWKKXwOaa7oCADQQG3Jjtv+eee6V//6dsppeTAQ855BDbd1W7dm1rbwzcMFgz9NOhdvgGdyO1a9dO/u+//2eXifp2FwYA1g1BAAnY9PBvr5HpEKh08iDZjmc4lAkb/vkX0rNHD3nqqads9Jt7G+o3aCC33HyzMboVVAABGRlu8zkCCMtuiBv7BiALxmjG47qplUty3DZHwq/xJq8pE4SIUpma56oHM5kY0fZpKyx9Wt5GxtUcP5iZ4NtRdle+7hQtBJB8/xB6KGPC/uOPMbYZvUnj6DZ2VYUF5+EFEGD+guIc/dPYXASQKN+KRFROBn03gVK/yXOW1U2cOEFuv/122xPSq1dv2WGH7c3QlZ+6QSX5sRa8WTpI5f7fjHXJm4DNB1qPPW3kWPGLLr5YXn55gNSrV8+OFD/ssMNkyeIl8sWIL2TUqFEqlKySJk0ay/7772+nFjIL+dJLL8mPo380Wtvtpm7SvkP7xGBOQPoIAkjAhkPU6NPCmuIbMwzQpgTl5YuBpildGpVO0grzS5v0W28NMiI5QAnrE48/YcS0Z8+etpGOKeWsCll26tKkSZNsORDHfDJyzhGg5bkJHcT91/dio5R2caxP4vIBn5UAXvrv4p3+M4jHIV1EWWFCCI4j9yaAIAT4RBblr/ph7o075c9HxHmOPiPo5j12sKbf3n4iTNtI7j4KdKbOm5TIb4PE1R4bFxtTAInlpaGIfCvSrBB4J/TY7Lfh5DSYoV69HrF16eecfbYcdvjhtk+HcvH1KSrS1GEWZZYKxbELicCKxqZGuwsWnENCJ26UXvICNnVYG1ptfeRll19mqwQ44IHlrP3795ePPvrI7mCaPXuOWa5YsZI0bryV7NdhPznjzDNspvrxJ56wfXCdOx9jp0qyXAs67GeIQ10pHuEekIB/DvQx8UZo3+l0PDgquvWaL+l4tQFRHL2h73bjysVFHIZRH1grRFlYqQLUQCCCLw8YYJvqYEzefOMN6d2rl9SsWcO+f/n5Jxlk611fkVdeGShzlMhy7GCd2nXs6NYEY4oqgDWyOma0ttLU8VIiSJW4JMSsGEPjmee403h80vByvfB3/MeNqkSeR+Db9CLzIuHdR3YzVHh3r+5nVvCP90Tf6PTt21lO2LEbzSO9IpU9op/3Z2MjVf1LEa84A0z8SwSRlzamV+wASqqIxlG0e8qqbLkyUr16dWnffl87MQvGafz4cbaEhCWUFAq+RIf2EjH+JSkQhWXm6w/owOYHF+cCORAlo0BqikoajjfHpG+BoKqPHTtGLrvsMimvAjv9JceKX3zxxdL/qf62LGvbVtvKXm3bWt9YsUIFmTFjhoz4coS1vb333tv2YH00+CPbM8KqgV123cXaodWBUA/SQpgBCSg5xGuSNkAbZfVLPhJINUSZDNwU3YLNy02s6hZLc4gujGLBDEmN4hgYjFNZIU9UnX766TJ23Di7/6Fvv35GUBFEvvjiCysTRm0OOfhgabntdlIhK0syy2bK6rxoCRDwxRQLh1sjioq5MaJpFYlaKiZ56cyAwTynCo4sNteFxSUNrwM2U6SsENEzhhITQPAG57H2snaXimb0Ciy4VBFNQqo2oFpGQjz0ffWqNbZ2nXXq1113rXw54kvp1buX7N1u72hzukbOO4rHLeERbV7104hS8UiIO0Wj5EYqSgiaF2SBj5Z++txJzu8CSP4O2HQRq3IsYeRo69dfe91OvDrn3HPl1FNPkU+GfCJt99pL+8/TpE6dOmaPtsUTAeSLL0bIxAkTpEHDhjaAxwmGV/33KjsI4u2337aVBHa/U6weBRSOIIAElAyoRaqsOinFXh3dUbBw0UL5fPjndpIOx3WukXSO6qTVlmTL3TBVvPgYuxHJ4jvf9NJPx8idDKlw3333223VbdvuKYsWLZYJ48fbSUkHHnSgjeiwwZxTPqpWrSZTp05zS3QUMGYmSKiQ4hkzRnzWaJzhh8y8QI/sQLm7kffi4+25tcJJj4ZnRsX4VUotRXHxNrlUcc8995Ca1bn/IsNtyI74K1MgkrECNmP4skynuqXAegsgkXOWcbCXhgsff/npJxkz9g9ZosI+zdIuj8Seev+3wigCNssQxWHNmlV2oMSSJUttpPa7776Vjz7+WM466yzbIJupbZn2ZNatYamy9l1K3zSiJuisS/yigFO6Sdev1HQrGZ5GFKAV6r1RmhR0KB3gl/kW99OghCHy2x1x7O6/4WLIunXryS677KaMZwPbT8UpgRa8VwGbPqhyWlYIFHPmzJVWrba1JcnvvvOufK2CxLXXXCO169S2G9AbNKhvQgcnQi5fvszaORezLl682I5H/+XnX+SEE0+QRx7pJRdccIG8++478vDDPeT444+zPZd2dxbTwqGvKRJBAAkoGWgtspoUVSduaB74ykDp0bOHMbhLtOEa4dfOsvgKV5JU3SLlXv9RrEmD1rg0pZeyNHxTj4yBSAIdM3sI2MacWYoTkNw9D622bSn1lCH5+puvbZ8HozUzZ82QKVOmuiVfxEzdrtKPSFTKB2EVIziZsTEzRcH5EecdHCOh+hhZojRVKf0pGL4xdZHTyLFUqlxJttmmmZx5Zle57NIrNDpqiyVFGHvnoVPY4rG+AojfQ8Nz8uTJtr/q9ddfs4GWFStXOjOtx/gdD6sk4RlwC8Gqv9b/ShVtMzpHg44c+ZUKR9qwlRYkKr+Pim831jQQRNIDYaEAVGItqFGpYhsYSznTDdHZi7oVg6W60CIrzCApPP2M68T9LMgSZQjko4IKdgghR3U6Wq699np9r+2MAy3ZrMBR1gxKcdT54YcfLkceeaT06dNby/Ram8E4/fQz5NBDD1XhY7ltUOc4+2XLlktOtj5VEGEQddq0aTJ48GA7SdLdkv6JzaZ07NjRLmjlriaWRrLPMqBoBAEkoGRALYqI+vz58+Smm26y6c1V2vkdfPDB0qB+fRsVsBmQYkFPUFhHsi6IIrVBQMcMyx/r7JPgdKO0FdHsOJmquFYJ8+H4Dyxi3zmw//qOAEI4nE7EpjguWKpdp47d1TB9+jSp37ChVK5QUcaNn2AjNYzy4R+juSjcM6pr3tkPIca9Fw4Xl3z4tPp3oB/+lXc/+qpPE3osXbBtGn8n0ZhzJ/xgH333yqlA9P8cFYvQRF37c/os+fKLb7TzyJBTTj5dbuzWTerVr6fOVrnZEFBSTIPG4eWXX5a99tpLmjVrZt+BIdnAIM8T9WnDgeWKhPvLL7/IueecaxeV7b7rbjaqWqlyZcmwjahOtCGK/r8D7/HvQpAGk+6Snn94AHSAX/PmzWW5Mk5//vmnlMksLaVtFgS6gJ0ow9ZEldXcQi9Sw9GaVHH2esmVvph4a3CpBk4KADs2KlKMvbVAXDQHfNoU+XFPHS/ySxkhDZKwlNJpuBkZmaqHH6VllZb1ggULZfjnI2TuvAXa1pvLfffeL4cddnho75sjtBowOHrqaafKxRddbEfpcuzuvHnz5ZGePaVsubJ2ChaXt+bm5dkMyMqV2fZkmSMXE3IcL4e3jPphlCxYuMBOyNp3332lX79+NthXo0Z1qVWrlpsFoXlFTS6gIIIAElBy0JqUrQ2V0yGuvPIKadGihVx+2eXS9ayuNlrg4Ka1SwTFeWONns7kn6/idJbKBuvbqohZLgpFUSN1q3+uMywaPh95egYExPPXaTumftmyZZGeMvvKlJTNLGdChQkcxsCvsunpVapKq0GFShVNeME/0gfTUNiSL4JxI6P5YQMXlfy4uXgm+5HvJj/u2InsJfIz7s6PxKoiThaB0jJ39kJ58/X35InHXpaffx0v9913n1x2+eVSpmx5ZwcnJcQ0MPrNHQx33H6HNGseBJAtBlrO3JHCKCkjn4MGDTLm4+67ugsbVxFADPnVPgWoLEUB8+LseERtxbcda2MZNlq7Ki9XmaA1dtM++tZ+EUDMqqus1iatjcXbVwy0fx8XtZcvPDjGPQ68Kk64IHbF00iFzZarX+nYNeCzIiZ8OKj7DOJUuD8uCGdOfkCHbAxHUbp0puStWiPDhn0hffr0kyFDhkuLbbaXDz8YIvUb1E8EG7Dpwy81fv75522J4lVXXSVnnH6GXTJYXYUGToxEoGD2Y9HiRSZwsBSLu0CYAWEgj9MjR3410mZCuJgQIWOfffeR1q1by+uvv6GC/zKbMWu0VSNb6uzalwUbkITQXQaUGBg1X7hokTz6aB+7wKdXr15y0cUXWWOMgwZZtFI7pWCqER6KUKWKURncfeCEgvVVa9bkFaksHFQpF2ZRSjJy1M/CVK6Zr8nILVZJqTxVOcp367O0fqNK5ep3vlqj5msysmVFziJZtGSOqdzVy7RDXS5Ll8+TufNnyIJFf8nipXMkW+1klslTwSPTVCkNY/WabI1PtuZnrgoluZKpYaVSpVWVMqUMT0yVzsxRlZ1QpUqvULWyUJVvL9LL5Om/cwoqTZspDcN9r5Q6dSvI+ReeJo/2fUAqVyotTz7xqIwfN1bzVTsfGCkYJvog1w+tF1jeQodm68VB6GS2DGg5r1qVJ59//oV88MEHdisyx3nutsfutgQwIRB7GNOPou6hqC++EhaizL7SirQU9dANDjgBQ+v56lU288FeruUqKM2dO8cEJqOtcNtGh5RGaJuGZuQrpUHJStuxpyeOFniFmbcXuVfalYG/RShnR90Xp9S/Uih1U7jSdp9QSidQpZTGxFWGplvWVqVkWUJlqD3SY2my+EGLHP0SdV9a6c+BB7aTZ57pI9dcd7GMHfub3HDDDcqg5snqPMorKrqATRcUU1ROFbIqaBln2OAbl3iyH5K9PcxqIHCsWLnCBuyYBUHgWLpsqdPXdwR73hmcY1UHM+/KtdjqAtoXM+0IKgsXLNR2GKsUoX6shSCABJQMtHFx+sOwYZ/ZaRGMKhxwwAGRYdQb87ApSesFi1YJ+4WpiJKko1RYWT+lgkMqASemEnZj4dp+l7WUCgvGgBSjjEEoTqlfXkmk7Dvfjgk9KhStXp0rS5YuVGZkqRLHFbJypQoheSukXFamVKlaQapVrSiVK2dJuXKlJTOTs8yd/6VUrVmjjAPxRhjTNBSqzFzteYUwZfHi6RVm+lxLaUcfUxlqz+LO05S+G3Ol+Y2yfIrKNpHn5Bs3fufIzrtup4xhR1tuNmzYcNWPrABvvTAkmyfbjcwzlcE77PDD7F6V/JmbdUTk11oKFKYfsHGh5ZCXt1peffVVmwk566yz7TAHVz5a0Wz5VQwJusZ7pAoUagpl9nCTjnKPuP/uHpc1icMmKlTIkiWLF8qihQs0ztqeGOApre0laueundKG/btTa7zS9m20y+wkqYhGotZYe0wyX0upHdugr8+ilLdblILu4FdcxWlQpBI0JKZcGpX28FT6WIAGMRi0ZqVTskKfTlWrliWXXHyu7N9hH/n4o4/sMjqX1wGbPLSY7MJU/WO2A3ABa80aNaXd3u1M4Pjmf9/YiZHs5bLZjpUrTSGIoLKzV6owP9c2o9OuqlerLnPmzDYhpGHDhpJZOtPt/dAwEPwTg1M064C1EASQgJIBNFgb2cSJEyU3J9dOWmJ0gJGBAq3PRgB5FqHSAv6mBwsyTZUfj5hmQtHhxTq/tZTaiYMoJgtcpq/2vHIaaynWaaeMQkJ5AYdRTyfc0BnbtzJFCWX2Vku2ElFOJqtatbKdlFNNiWeN6jWkYvkKUjazjLAHxNHmaFkFijSpW7dFFaUoEE01jyvLgxi8P9555MXaiFuIlD38M1L6r4DcCWy5BcpHSg2UoWL7yg47ba8dTqb8MWasnRDEKSaMXuWtyrOOwedRoui8n4rETEkMSxYvVQZukZ2MwuhWbm6enQdfq3Yt67C4kXrhgkWySNVaSPKrSBRnF/Nk5ZHK7O+ogNTQvGGklPb03bff2Uhqy5YtXT3yVXAtxAwK5G1KyzH4wihKaeXVusw7MxvmI99eT82ZHcmqUE6qV68qq1blmgCyBqX0giVaNmuSgI+rU/7Hn6mUIB4eyfErREEXi/Y033rCXuTGlpBFetb+o3evvLkp1QLx98JgNM9eonfNFwQrBBZ7Iqysklo1q8kubVrL4kWLZPSo0cqMLrWZkER8ceuyv3AVsNHAzEfDBiosaL83adJEo91t92xrfcL//vet0Xh4GJZdIXwwG0K/gUJI+Wv2X+bHrrvuKpWrVJaRI0eaYLPTTjvp0y1ZxhwBBn9coO4RUBC03oCAkoESVhodI0JV7CIs/Sut3Vc06pCPZGqcpIz444DqWYjCylqI+eEt4Ne6KOcoX/nOXBXLGtxIv76rWh17NyHA3OTDjrlc7eLrtljzTrroneI9FPpskHbKTqUh6Cg+ToiIKXPDTIBjyP0TbfvW14TCTJ81qleXrZs3085ThQ4VQDJV4FAji1UC+GGP6JcIS+0krJmvkcIsrhQmaPH070kqjuTvBDRvzCiFuUtw9BHBMxsR1iijULo0o7/uUiguXTzssEPt4qjLr7jclk7ce++98sgjj8hzzz4ng94eJMOGDbMTTSZNnGQdEp0PddlOQtEnp6dMnjzJNpuzwXeXXXaRX3/9Re655x4ZN26c/PTTT9KyRQvZZputbXOj8XQ+W+LvSVHPz6uYojqAVGYgyQ+YX46JRFFmBcLydv2zKMTtp0I6fpQUNmRYcRCuL69keD2tt9C0lcqYMMPAGnCra2kh4Un0LArJFSdJQX+sokX20LZ/fEObGOlXOmGDA0pVMjOkmgohPK1daxRKZ3KcbPFxMRtGD6JgDNA+/3N00JkWr6yaplL+px/uBwjd0VEbmNFvR9U8PVUVPZyKfwB9IvCUUvpqgk8KJKwToiqfJ562oGUabkaFwbVcOyFpmW1QX7Bgvg1wuBhHyr+CmHbARkRUrFs13ko6dGgv06ZNl0+GfiJdu3aVHXfY0Wj6hx9+aHY8/Ufw4J2ynjJ5ikyYMME2mD/55FMydsxY+fjjj232Y7/99rN9lFxGiNDOknROA00gCjsgH8qf0OwDAkoAWpNuu+1Wue++e+XFF1+U444/ITKIwaqbq3JUPTstJqqC9m2EX7+Lbaz5/uTDd4Axx4kOuihE5sQj0Xk5v93aakbAVM+iutpGOTiBCXACEyg4iogZfvGg01M/bITUyJI+YQ5ww38uCkPwcP440I2xPKDweNseGMI05kJhDHhceWDHxRVYc08w63Tj0bs5w0zDzrfuoGaJcikAFbpY/4q299L8UaX6BaDuzW6ivNU8/u7zz8LhHUYBs+QwiwJ2c2V1Rq7yCZXk0T6vSrcb75Ndd9tL/nPwQSZYMKLlR6lYx7tkyRJZtnSZmxFRPUO9jc0AAGoBSURBVEa3YS4ZuWJJYbly5aR8ufJSRhmOihUr2BnvuK9QoaKddFKvXj3bqIg+96yw2RdmlG+YUxgVz6SyPwC3KLsgjvoQqXSRsJvKSWFZhV01I6sL478M3n1h0cE8/ahuntA05mkd4BCGxNKaKP982jkVaanWm912282O6fzm62/s/pm1B1ri8JkbwdquvahK5Qh9VNQukmHtRhXt37/HYXo8eKodK3cVEfTbaJb9wcibpejb2UkFm1lVf4zOQXtUj7ro6aCHiQa+LReBNZq/+cj3w/oAfVrrtzDdd4Ytc8w3t3aAiuIT98PAp8UNcz5NAxOF04ssqdKcMCNv7uHNATGyWKnzTLnj1r7SvXsveahHH+l4dCfJXZWj9KG8MqY1pXRGaW3j0HULxIUV95rvyChgAyMqB+j8Z8OGySmnnCzbb7e9vDXoLfnxxx/lkksukQnjJ9j9ORwswj0hCCAsu5oze47MnjPb9nrceedddms69358/PEQOeOMM+weES4kRPCwgVj91albx/qFUN6pEQSQgJKD1qRiBRBAp0Gt843SOhJXDa2Dsc+IWS0U2E+uunREAI9RmLtZCkNiup4OKObWd5i+KRAB7NEB+k5M/YLBsA4RLo6ROGOymUPQjphOmYvxrEPEur6bP3SYatf8Qot/Ljx3VG6m7SFAEOFGYyxhZw0bzDVc3zw94+me6MEE4N75FXEYaoS5swtgGtwpYM4fl7/O3ASr+Ikx3us4sIt7m+3RZ+TWwbllZoiZFu1184NOjM56MBukYStTb+5Ym03cLVMwj+ya/7xjj8ig0gV2c7XEc5SLrCy9Hxkgt97ykJzZ9Tzpfs89MmfOHCuzGjVrqoBQ2bkgP/SHAMJ6fka5li1bakctsvGQM+A5fpElXAsXLHAno2TnyLz58+yoxoqVKkqjRo3k06Gf2qWbAAGDPKZcS2eypybT9HiWKVPWOjXua6ip8eDMeJbxlM8qL9WqVrMnHRwCTJbqc0s9hziwrhhhiHerh+QlDK8m2WZANP6EYd8aB8K3rIzKwwRgBWk1vUjfWY6e/t3DOXHwdooDxVYcfFhFIZ3w4nFNRlFmxWDa1Gny5JNPyrnnnitbbbWVVVG/dhww00R92HXXXYzR+N///if16xUlgKgHeAK8BGh0Aj3qOo7iDn3CMfPmSTD3jqbQ1qxN+zCAvud/qV2CxYrWA3c0qJp7O7jT7xShFIAXQvAPJ5Ynpp8fEjqOLhUFbWtGA729eMjU2wy7Y9S0LZ1O32Bxda8OWFQ7nj4ZfCV0/pvglJQ+bHrb6Ft4ayFuCz9R+q0CyJ239ZV77ukjPR7pK0d26iQrspepR6ttT0ANZThLqRCSiCiPuP98xyMTsOFAldC8z8vLs/73oosusgMkzj7rbHno4Ydk1KjRcvXVV1mbhn5DV33ZUS9ZbnvdddfJBedfYKffIbCwDGvgwIE2GGXtUMFAF1W1LgII+8N8lQwogCCABJQctCalMwNiwoV2gpxAMXHiBGnUcCvJqpgVma2RRcrIlSvnRo5h2tSymVnnbU9V9sz309nRTsie6NFxYYGPqCOCCYuMMTFi4a3wUIIEUZo9Z67UqVtXOxE01VBfjHFTfyZPmmRMCSOk+I8YoFRKX1FqxasofrOV6S2XqUwnDK8RoZhAZHACDN3jGhVAHH+CX+aJTfk2YHOb5QNB6j/8tuUVpDfmV0z4IB+dH3iIHZdq0pebm6P+uZF4QjYjgHWflwXiiAXsqSJT7FNDV8FjyuRplh9+uZPLNMwRQCKmwBJVSmb+OdNmEkqXytSOuqrqY6bsgcbJwlOnZKvLI14sIDTSBHbzBZBePV8yAeSMM8+RO7rfZQLDsuXLjYmvW6eOVKhUwZyQV5Y0jTtxId+svKOkeHimH7vYYyT5zC5nyu233S5169V1J6RExzYyMu43MHKGPBdZmR528nItLgsWLjThhs2Ntq9AzekY/QVYMLcIRRQHcSqTWcZmZRBiuGguS4UTZmeYZclCSNFv2k2lipVMsEFx/LUTXsrbRmQvDJVVPxLvtDXbB+QEJmNQAemP5wHZm5QnayFdOx7YjX8nAzNfhT0i/ykH/vGzErN6q+BRXBxSIYrHvHnz5P7777cleaedepocccQRVr4GtQNT4gUQype9IMZ8UPfXClcd4EbbCnm9WMud06i4yM7fieTqmsvz1asQzPXT0sJsnOpbQiOgH9ExsNoE+cgPtYc7P8uBK5SK/ho+J9qtkfkL5tvm2XJly1k6MM/AP2turu4DLvBM5K17RdeCpb3AnP0580+738nCUT1zq89SWljmr7k200jlw2ywaV3DhB44/3Gh8dd+gcv/5s+fa/tWMCPvsGIUN4qj0Q8GP6JPR3tUGT0Bas4fM875Eg0aKgBZgk1Z3dFXl2NxOHMH7EdubAbkUbn33r7yYI/e0vnYYyUnb6W21xXW5urVqattKVqSh/Mo2ASiaAZsHEBroXHU2QnKf5x11lny3Xffy4knnmDCBf0D93swQ/Lj6NFKi3OUR2ko+x9wgOyxx+7StElTear/U/Loo48azeUm9K5dutpeEfgaiha6QPtq0KCBDSaF8k6NIIAElBy0JqU7AwJjtWjRImnTprU89thjcthhh1knA2P39NP9pXLlSnLSySc5eq96qExlmtg0aRfKUW2158lT4sB3nnZExgRTm7Wx0+HzYicmaW+WhzslDnTC+AUjjHtOtcjUzhThg4v3YCDffOst6XRUJ3eaBdE17idDmcgVcvDBB8k7b78t1WrUMDP2BsD3c+O4dZQ2wp+hxChbmb4ycsvNN0pDJUIXXHCRlFKmf5UyAn5NNh0p07uJzkqh0VXiqOnTznTZkmVyVtezpPs9d9udKiwNIY2uU8/T7pA0qqL3BHSsxrCqcLCKjlrTo8JG2bJlEswz4SL4cYITWKXxh8cpRZ7iLkfjU0btWeeuIUVlxSb1HDVjiZGdoqNxXLWmlDz91FNGuKtWreT8gyHQMGBkLTFRWbz+2psycODr5scVV1wpBx10kJqpqKD5X0bjl6uMl5WfposTaxKdval0gd2CAshtCCBdz5Nut9xsnQJCAmmBYbSOIQbKz81qKTQv/PK6OCCX/Ixp0fw884wz5c4775QmzZpENmKIRx+vkr0jPAJV4J/5bPXTOeSdzpJN85SZP5t+wYIFlpalS5mZWWxPzp5nDfr8efOtI0QI4jQXlpdxM7cdwUoESJfGG+EeJpIlA7Qf2h4zM+QJAgwCMx1xRX1HiEF4ySqfZTM+CC7Ywz4dsBeEXP1ySKRLw+OH/4Tts9TvV0Hf3Kl1m8WBMaTogcuGRFVIzOJ4T3AW6cVh5t6Pvwn8Za33f//7X5vxuv2OO2VPZT6IM4q7AriAknz+7jsVQOqmEkCiuGm7hP5kaj7f/8D98sMP38srA182WkY7hy5RVtwfwnI+ysbSRVvSumo1Azqm5aUGFh/Csh/u1V8vEAPqiukRHfI8co96QMM/7tjjZJsWLZU2ZGtY5cxPaJzaMn/whQEWJkdpr+XKIiDgB22ZNq10VMvv4osvkqe0/ZPKXBWWKUviUErprTuaHDeRkEX5Y1HNaWPQa5Yq5SktsTqgRhhTXytpfWNPxXXXXWtHumNOmyVso5VqOXtljpTPKqP0nzQoLVrFZnrqkxOguSdytQrzCNfQMugM9RY/mA0hK2kHRhctjzyi9m8gRihAhYoqogogt9+CAPKozYAcdUxnbaPZWheW2sBAgwYMyGgZRk6pFgGbEHyRAi0bTjJjORVLKRs0bGDCxIEHHSht2+5l9c5qh/5xqefwYcPl2WeflS9GjLCrBuB19lJ7zFxDq2l3tD9oMTSRS3AxMxBuqAsFEASQgJKD1qS0BBAsarVjXSUbt0488UQjACxJoTN45pmnjZCffPLJ1qkwEszIMKNLtGA6Spb8rNTOn0aPoFBaCX4eHWpmGevEuTSoeo2aGo4b8YfJXbxwoTHejAY7mkJnWVoWL1pssapUqbJqwsQrgx4JI2W004IBXKgMB51Kx45HynvvvitVq1XT8HKV0HBmfYYxa8SVke5y5cvb0h06vB4PPyA1a9UyRrVc+bKyfAV3cOSagAVTUkY7dycsOQbCnX7FBtcc7e7KyDHHHCt9+/aVJk2bWKcP40n6K1fJ0jxQBibaT+JBuCzVIQ9kTaYt5+G0JohiWY0/AhIduq1R1fAWzp8v1atXSwgk5HOZrLKyYil5ssZG1vVh+UJ6s5X5IV+qaVnRV3NpoWMgGa3VHNXXpeoWoptZBqYDpmaVjB83yeIDX9Vim5YqoKiZxh0mbJW6JY4wuXbPgAoRLE1zzMC6kCfsphBAupxrN6KzIRABBKaxlsa/QkWfNpKnHQ2RVw2OUrSZABgqY46oJ6VM34A1BeX9wQcfyvbbb+cuIjRNp+8s5cfd+R1DZAVhwy9lKYDIqXs4xhBmKVPrS6Rl7tFD2LQZOQXlR1yJM2WOQEjeImhTfxB4ST/1iPyw72jGhdNf5ml94M4I9sYwW0M7QsBhwzUDBrQVdyoMjGOG1htmKUtbPUM4hXmkvvsZGE5bQ1Dh2EuEFtp49erVI6GmorVz3JJntBcSRZtLCBCxdJKH2PMCmstTV+dIL6BtAKuT6wrn1EB+k5fkwZtvvim33nqb3Kq07bjjjtN0VLaZjN13381mrwoVQJT2ODiaQv5xaMHWW28tnTt3krr1als4fsaJPUrMZtF22IMEYw2zTtmacKZcM22PNJZVGrZSw3b1p7Tapc5muvao/lHeMP3QAvJnyZJF6nemPPxwDxvYad5say3T5Uq/cqxdV6sWOzRE45K9ItuYKOpMzVo1LN+p1su1rjBAAqPFJW69VUAgjghFlvsaT4tLdDw5cSU+uMff+So8lyuH0FpB6aDSJKXLnCpHPKGH1JWcldm2XPKYzsfIJ0OHKiPnzNzgjlIGzReENujosqVLNO7QbY0cEdSKQ57QzqF3xNNlr2tDLLEsU5ZZP/KLNuJmkKC9Vp3SFEBuu7mP3MsSrN79pFPnzkrD8tTvRVp25aRevUYWZ4sOrszfteF9BoVYCfgnERUAg4gzZs5Q4fxB6d//KavLlZVWNd5qK5stpD1CI2fNmmVCCHRzn332kUsvvdROwoJuwYdQiNQ36Cvtpnad2rb/A94jUa1cFQ6IEASQgJKD1qRiBRCrbnRUa2ypAyPhvXv1lpmzZlrnDsPXv/+Txqxwwdezzz0rkydN1s7BzRbccsut2sGVka9GfinvvvOOreeng+6sdlu23EZGjxolr7/+unVojBSfffbZdiTwM88+bSdccHoFzNcRhx9hnV3//v2VIappzBqj4uece77cdNNNcucdt5kg8fnw4fL+++9bB/3njD/li8+/kE8//VQmT54sb7z5hq3fhwlp2LCBnHLqqUaImNGBKDFK+vkXw+WC88+XrmedJT17PizTp00z4aOqMv0XX3ShpgXmgov8yJrV2vHOl0d6PaqMXBWZPWu+fPjBYBn80YdSu3YdGw1cpAxgbl6OHH10R2m7xy4qeLnRQ/KH/OzSpYu0a7e3Le3Zf/8DZaedWsvjjz9hdkh3x44dZe9995ELz79A5s6bKztq3mSvWC77KkE9/IgjZGXOSnn9tYGa5xOVAVmh+VtDhcNL5M/pM+zkKPY7wFBUq1bVpq7PPe88K7969erI2LFjLI4NGtY1Aejwww82Ju3X336TQW+9J5Ur1dA4zpdatevKmWeerkzFSunT5xFjnJYqY9CkSWM57/wzldFHqEIgcnUlfWA39QzIjVqmdBwmwGndq6P56Wa4fNfvwsGMugDDC9PnNN0DwFB5BtgDxgZQBiawOE5Gfdafch/8vOCHmRd2sJZvxqZ05wcoQJb1lXDRMnN98cxYPC6m5z+dN84f/fMMOd/mB5/erj1cmyQtpB/wNKFFmVrqJgy5s+MEbfLThH0Vetk34wWWbGUgYV4RcmFYyXMGAViKtkLbCjMyfNPxsxyN+CTSqw9mKX1e0I7oxBFSbDlZVpa1OcoOoZ93ZmswQ+DBHno2e6PfdhS4+mUCjOcEfdo9Iu2EHs/IDnWAfPjll9+0/t+jaVgh5557nuy1V1u7/ZyZi8JnQIDzlHxk9gH607ZtW22TfaX73XfZbBMzmy+99KJMn/6n5cvvv/8m5513vl2Q9vHgD+SuO++y/IEBGvjqQLn8ssvljTdeV3r2m+ZDRZk7Z660b99ejlZG+NRTT5MmjRtbmmnr2267rdx3/73KSCE0LZKvv/5aXlDaTP4wkkvZsKE+Sxnns87qKj+M+kEGDHhZdtl5VyvjOSqMdjzqCDngP/+RUd+PkqFDP9X8cLR7vgqrz7/wgvz8008y8JWBxnxzz8ixxx6rNGh3FWaiDNUHxfvJJ5+Y+/IqgDDbc8X/XSkzZ8yQ007rKoceerBm3WpZovnJ0rZKmq4rLr9STj7lFNl9t93koYcelEMPO9Tq14UXnm9MYp9He2t+1tF6tFK6djlDttJ0z1+wUPo/+YTWzVwTrAYP/liefPJx7U8qycuvvGx9CLPQVapWUtrVVetMRaW9tBtmjCm8dAWQ3ipMPio9IwFEa4nds5SlZWYCiD491qoSEbzPoDA7Af8sbNkz5a5Fu3zZCvnu22+tjf3+++/y+2+/25JdlgQihNSv38B4if3266ACyL42A4IACz1ECId2QkehifAfvo9J0GUQCroAouG0gIANBzpTlJ+u3H777eX3P363Uyg4S5s17jAeLIGAENxw/Q1GJO6+u7vqjbd1la++9prqXy/19X3Qm2/K+++9L1tfcZky6x+pUHOwtO/QQZ5/7jntgAbLTm1aq9Aw1Drypk2byrdKZGAWxo0fZ6MV9957nRKNXPn8889t9G6ZdoLGqGpc6TTbtWsnnY89Rl55eYAJIMyIDBjwkhx22OE2g0NHfLwKW3TSU6dMNUJ03fXXyey/ZsuIL0dIWSVGv/76q8ydO0+uuupqZZaybFkVG9722HNXs28jdZrGwR8NVgaiiZxz9nky7LMvVfj5UONaSr744nNbAgNjAiPxWL9HpUb1KtKsWVNjykBm6bKyeNEyFeROkK23bm5pevLJ/iYsXHHFFTJchakhnwyRvdrtpYwC+2zKyfWahz/9OFrz7z3poGmZNGWyfPXV13LLzd0kJy9bHn74IduUy3GF+HfTTTdb549QBOFlxNUYTWU+X37lFWMY9mq3h/zwww8yaNCbsvMuu8qzzzwvnTodK3vusbcybMvVj27G9Pz+xy9azuXk2uuuMyHlueefUQFsrtSvV5NaYmkqmmLHu/D0QV6TdhjVAvD8hTKL1mlo0DCuxhzbn+usGJ3mnT/KDoYZBt3DhBfTV7aEkTHs5WjnpE9LTcxf1VLhwwkuNhKu/vNNOHybAGN6RM6Z2bsNuDkz56n6SQCmx4f7NrvRNzD7wMtWUaTQ9+EkZnrSReSlQd8t/eSh+sUFXX75jIuPG8XnIi8u6qIuwcQjrNPmmIVBnxFHdwiA2yOzXIWcmTNmmmCDIGRCIvmH0vBINEkjzyhblt4gkMBoI4Qwkml7ZbQNcRoZ+rSbisroMtqZpQyG31tjy9M0DxgV93ti2OfUvXt3eeGF5+XOO++QzjCdmsZioVGzmVJNG/Ts8MMPlzp1astff/2lQv4U2W677eQ3ZXT+pzTp1ltuM3u33HqLtXmqFMKclY96RV5Ar3h+9NHHcvnll0vzrVsYjez76KMmgDBzxajsUUd1tOV10EXWr19w0QUyZfIk+fLLLyVX8/z9zz6z2SiOpqY8GDhgHTx5m5uda0s/6zWoL7/9+os8/kRf2VHpMseVHnfsCbLNNi2k/1NPyafDPpPlWnbPqSDTUcNrrwLZQKUBQz7+SHbbvY2UpT4rMjIyZezYcUpLP5Orr75WalSrLg8/0kM+/exT2bbltkZbDjv0CKUVO5owy1HZ999zjzLydeWmG683AQ9G75yzNU4N66ugu1z69HlUDjrwYDnyyKM0zAHy5huD5IILL1Sa87Zs06KFCkHH2YDTW2+9q3VPjI5Wr1bT9mwxsHJX99uV/v6ogts+Gj9XP91hHYUBs6LM8+HqpVXJgE0d0Cse+g8a0EGFi+132N7q66+//GI0CHoIPdlqq8bSqtW2RjeYdaatOJoJOVVarYXuVxZUrVLVlqsmEOpCSjgKERBQoqC1FdbiHBMHc8ITZhCGg5mQ95QJplEzegUTMGXKFBsh/Oabb5QB/0J23HEnY2xnKCOCPY6+5EnH+9+rrpLMsuVkzJixMnXaNNvHsVWTJspMf6Ud+Wo58YQT5fHHH1ch5h4TbvbYs63ssvMu0qx5c7njjjvkvQ8+kLZ7tbVlXSwPYvYDphpig//KEWinfpSdgkHc77jzTjsJiTXdN950o3z73Q/KbK3R57dymTIGMId04IccdIisVGbqqy9HSqMGjWxjKwx+xpoM+fijIcZo2BIFJWEQwl9/+dVO38ksXUYO1Dxp0mQr21+CIMQyhOHDP9OO8wf5XAWSn5VAMgJKZ4fKUWa39c4728VoTPvm5GbbWvN6mk/vvf+ezXgQvxUrlyujlSUnnXSylClXRvZsu4fUrFVTRqsA+JsyM3vuuafUV4arcePGcv75F8hkLYdddt1NhcOdjUl6deBr0rFjJ2X0HCFm6Q2nRo36YbQKH+3gAqXNLmr3trs0r7NUwHtYy2yOPh+Qm7vdqnnwgwpxq2XU6J+UUThB87OstG69q+yzd3s7Uz+//qSjkkHOe/1U5s4GrL8JDtHPED3YqwMYHQMwoJQ5eyZ4wuCyideEmIoVlKGFia3sVOXKdgdOtRrVbPaI+lKrTi07jrFuvTr2ZBS8Th2+66mwVc82ODNd75YnVTM/GNFnNN9OYtH6y6ga+zhg3GEymd2j/nEpFiPjqL9m/SVzZs+2EXGWNzJKjcIue0cWLlpkbmHobZ+IMrswvAhUnqFHqCRf1glY90rh2zdguQxCFIw87Y4wyDfS20TbJ+2vdZs20qFDBzn44EPkxJNOknPOPUcuvfxSufba65QBvcmWLfVRBnkAjOZbb8o7775jjPUHH34gHw7+0GYoP9T2+84778i7770rLw14Sfr07iNXXnmlzapCW7i/hZkUZm3++OMPO7v/xRdfslm9a6+9xtZ9H3NMZ4sDM4i7aP3de5+95ZBDDpFOR3dS8y52Yg4Xz7VUpplTstjACkwASgUTSt3MC+VAmY4dO9baMjenv6dpYDbh559/kdY7tdF22kDbXDO59JLLbKaTtsUSUegD9IclogwCMHuAMPTTzz/bEqjevXvbBbDQuUaNGsoxxx5j9Is9c9DOy//v/6SMMlEtt93WaAq0tUuXs6WhhvfAfffbAACzxk7AWS5HderoNskr02+nxWmZsRl36tSpst3221lZXnDh+dKgfj2jJV+OHCE779xG6W9ZOeXUU2SSCjqLtZ6ZEKVtjbo1avQo+emnX2zw5wMtM5b8UYbUk5Ytm6m/LdV+aVvaWqMaS75U0Fd6xx4SNnfvt197FUiIU47MmzNbvho50trxh0rXEE4Gvur2l72p6dhjDy6VE2UWt7fLVqnTF198mTRttrUKTs8oDbpFBbH/qWvqKDQiYoOKrff5lZw6boic8En+8+LoSXF+uZC9Ctg4KNBbaDsF0Iltt21pe7w4gALhmj2q223Xyuors2jUFWxT9/g2+qw0FfoGfbfl4lSBULhFImp5AQElBVocylctbYV0xF5BqSHS2lBRAEYLZhcmBAGDDj07O1cbe6ZMnz5DhYrx2sFOUaZqvuy2257W0TimPdrsrP4tV8EBzPxrpsyYNUNmzpyhjO63NlKptuTAAw9Rt3toB7tSnn32eRn26TBlAuspc9FZatauLV+M+Fwee/wxKZtV3hgw2xRdNlOylWGBMLGmmiSxaTI7L1t69u4pv4/5TRn+neTK/14pO++6o6xYvsxSzuYzhBEA8wgjwecUFYzGjZsgP3w/yqZvDz30EGH7Bx0vjIgjWNG65IzVtrSA2RJG7ODnpk6bIuPHj5Pff/9VOnU+SnZSgYx10Ky15pQXmD06a7sgkY2WykiXVQFj7PgxMl6ZpUlTJsnhRx5m+wJWKMHMLFte/dWOXv0QNo6qH6u0g89d7Tp+28ipKSpdppzUqFFbjj/ueNm6+dYyZtxYue++B2ykNDOzrKURIly6TKblFcVK+eTmku5MebTfEzJ+wmTZoXUbuV6FNWan8qyzhjllX4r6sYrlNmWNwBfK0BWAurcMIzD8QvHOSJR2Kmzktzq4dg9gIoda9XWQ+E//c7ox5rybt4rEJZpxeDMtp4QZepF+ovp7vWSlII24pSkUsKvvmMGowyQy6oaAw3JEOsUaNWpK7Vq1bTSffRQ19dsEmTp1rdND4EHfNogrs0onCLNPXEkXszTs3bDZhaXuuGGEf4QSZvGYfWL/B4rz7merMDOH8+9VmUCjAg+CDMtkYFZZnuAEGafohBmxZ1YDppN2xJ0ZzBR4Yc72/uifLVtQczZmM0Pi0uxmHVarG9xhjiCNGTMnCahXVnbqp59pIe/Yj0K9Q7hmH8qOO+5oS5MQKk4++RRbMnjZpZfJbbfdZssGn3nmGRNoOE7zo48+ksGDP5IPVJh5X5nat99+28zvuqu77XU448wz7UQsBikmKbNPfnCSGGGT1rVg9cq1f/KKJalVKlfR9jtBpk37Uxo0aKQM/XTLc5am0f5JD/5RRszMsG8EPyQDwY19YdkaZjnN31x5+OGeMmvmX7LnHnvajEm9hg2iFkG7hya6JXQqVspqbZulVABZnbdGypdl0GCNfD5suHzxxZfSsOFW0rXrWXLq6WdYFbSZP9owaVBQZypVqmI0jeq+Gnrj256mkTpMWehD2y10izJWekZ9Uz3q+WptlzkqcCxbzqznb7ZUsyIDO0cdpWQH4VTL3za6OzrCqUP4h2dr1lA/ytlgEJvinX8sC8yRiZPGy/ejfpA5KtydrUJr2fLlTGBbpf6QD/qhbpTGaL14Y9BbKqwOtmW2V/7ff+U/BxxodNCEBo2/m31Upe8FlKUC5aHvtN2of7NwImDd6bu25lVawBusxlXAPw8qmivKRJ4z+wn9ZIAIMPvKzCODnW65leszqD/siWTWg6WT0CgGkZj9sMMPvL8BhSJkUUCJIjEyVBSUUkPC6Wxco15tTAZLnUaMGGFLFZgZgaliSRaj8Cw3YLnTvHlzTR/GipkSeI8xKgg8+WQ/9WultGm9o10OxAax00473TZ25uWsVOYy26blb7/9dtvH8Nlnn1kYVZUp+L//+z+55+57bAkCHSVgMzvLNFiW8e13/7PwmNJftmKpMf2fD/9MGZP/SqdOHVWYqKmMxBxLQ/OttzYGhi6c9e6khc22Deo3kJ1b7yznnXeeXHvdtTYiy34I5Qosz0xpc2zZoqUt21ql+tOnT5fpM6ZJuayy0rrNTrL3Pu3k//57hVx//bXKoOXKQmUGOXHGdfXRmn3NWxgQ3JfVjn3X3XY2JuyySy6Ts7uebRtX2YzKJvtvvvrKllktYHPx0kXSaKsG0rhpYxUwxsl8zbdFSxbLO5qWSsrQLlMGkxmmcy+8WK699noZ8dVImbdooTGdcCFZFStJUxVOZs3mro1SsnjREnngoR420/Hhh0OkS5dz5ehOx2rY5VUQm6qxzbDN6D/88KPazzDhEsGsWtUaSpXKqLnfA5LcK3uVPgrUSGMSnA7MLks+GEHv1KmTvPvuu46ZBXFHvKej4khlvp7K8UhuXwTLiWDOEVR4wiCiqKcI9LZHQoUXZmXYAO4VlyciqNREqQBTo4YKLaZfw27LR4DhLoNqqhiNZr+SbRhXvzi8gfyBMWYmAaEcYQbBjRkwNhgz28JRr6h5yqTPZxZm7jybfYNpn6/lzDeHOrApe8nSJdHIe/7GeGMMYd6MOdS0K3hHMDGl78b4kSfQG2s7rlTjyqyoGUI2Qg55xr4Ktz+kom2Yh9GwzfG1atoeJGYPW7dubfs0OrTvIIcfdpgceWRHFWIOtM3YnJRDHjMrc5zSGdaE2yZTD+KrbdAxnq6ejh8/Xkb/OFrb/fV2zCenOyEEsfyKARf2aUyZMtXyglPNmLVFGAfMyJLfpZQejRo92vKJJWszZ86Uc845x5aMTP9zmjJJS+C3rY4QruWfih/bb99KhjB7qrRyqfrPMlfqz+DBH8q+7fe1JUnsucA/NoU7oRqGXPPTliStscGd2nXrmFqwcL4y9atl5NcjVBidp3QkQ3bcqZVMmz7J7P+o6azMMb+aRx6ZmveNm24luygtOv+C8+TyKy6TNrvuLPMXzZcVOe4gkVUaP5YsQpMtClrPrEz1aUcCW4GKzeoqfyi77NpGOnXuJNffdIMcxCWjixdItgolu+65m9KXKep+jcZvqcydv0DzT2y2uVOnznLciSfbHo1ZM+ba7CJ1h7pk9SkauEko9YMTs0xRliaQRMAcxLQSHwX00kSUvoANjBT5ThuCVkAP2ffBQA5CNvWU9siADW2Vdsg+KQAdYWl49eo1rH2F8kwPpZUQ3ha9BwSsH7TRcUzdiBFf2kZETgdKBRsxU8JPQ37h+Rek61ldbcMoo6H16taXF154Qfbeu50db/fpZ8Nk5MgR1imPHDnSNqYzewCz8v5779qmsS+/HGkbFBs1cvdzcCnQr7/9Iq+/9prs3W5vadWqlbz55uvyzjtvyy+//KICyxhjyunkWLP8w6hRMvzz4dbpsuTikyGfWMfO8iuWJAx6e5C6+1k++niwCgXTpGuXs2wm5d1337ElS+yt+E6ZZ0662q7VdsbQjlZmAX32leyx5x7S+ZjO8prGh7z57vtvleGYrHl0jBK3ihoP8mS1Eb7aderIM888a0s1hnw8RH786Xc56aQTlCnayZaXfK0M0JCPP1ZhoZG032cfZagco4Ljxcq8EN4RRxxuzACbu5s1ay79+z8tY8eNtVHeli1ayM5tWstrr74pv/36q3bSC2TIkCHGdDHlzEg7y8RY5vXtt99ZGZ100okye/Zf8pQKeT/++L0MG/6pEtnScvjhh2oevCeHH3GkMrHVlGGtJE8+9aSMU4br/Q8/1LxvK81VoMlTIef9999W/d81/Z/Jzz+NlqM7H6HCWhN59bVXTID8QvXLlFkjB/ynnZQt40a7lQ3S/4UorWv5NJ63fEXa16wpq8ziz1p/RkqbnXeVDvvvZ8ISnQhMKGWLEIpAyqVTnMLG+nxjnPI9dijofb7aGEgVh2Q9rzwjxLuHvpuwyyguymaLlElXJhEFA8gItlsy5Y7pNUFHFaN6CQFH8w8hx28GZ8TeNoKrIOr3XWDXL1XjG+X2Vrjll/BzCM22hIGRRDapa7viAAUYbWZVmGWho7fN7CrwuDtVcmzDO082sttmeNwzA5OTbUt3YKZhG22mJJptQXAx4YWAI2BHc8DeiRfx8XHD7p8zZsjQoUNV4LhX28Qo6dz5aLnhxhvsWGwOdyCtbPbGH/IFN4n8tXSWtgEJ6lbz5s3MDDBzw14Ulj5B0xBS2OtA+2UQZvfdd7c9EMM++9TuHvruu2/lW62nhMGSMpZWEZ+ffvrJzGZoPE8//Qylce/a/g/iAy1EsHxG2z/LxT4aPFhpz/dy/AknSI1ateyb/SP4++knQ42pR9jhaG6WXJI7c1RY/EXpxInqhvx55ZUBMkqFJpbELl68XE5W2sAs3BtvvSW///GH0siPTWCD5vpZSdJcr059O0Ht/Q/fV5r2k/yg8eCUQwag3nvvHY37qVo3yJk8+eDDd+TAg/dX4ex/KnR9K1WrVpQ//5wqhx56kJbLquiQgYry1FP9ZdLkKTLyq5F2KhE3WjffupnNXiFojRz5lebR93LccZ0175vI4I/flXHjftc8Hqa04X9y2OH/kQYN65uAyjCOCVyJmVRXRygtp6A50B6QKcM/+5/mAX4cKa1UkMQ+BxSwHJV2ABPqy9o/i0V+tXRI01lACYC8jue/fkMPGYCsWrWK1TlrU1pJoYXQNPQQTqpWq2pL/diojnlUYQLSQDgFK6BEwaVs9957X3QK1rGqo9Ur3uHH3unsGeVnlIEL1JRSmz4no8CssBaeE2JmzPjTGBI2kEPcmWbPVUZj2rSpsmzZEhVIakmtWrWV6LsOghO1GHnFbpOtmlqYjMTDGHNrd03tlFl3D1PD0oapUyfayG7z5s1t3TSjgfXVHGJCB8lSlYmTJ1pnlafMDkteYHCmT51q068IRDlqr07tulJWOx4YIk7Jgsmoxpp+JVIVK1exm7QXLpwvSzXOW2+zjTJnZbVT1w7fRt40b1ZzyhBHZi634/5qVKup3WJpqVu3lo10c9cDjAancnDsK4y6LbfSPM4oxRG3q9Wc/KyvWemWpuTk5MnypctkmvpXqWJlm3nJy8uR8865WA465GDZddedpILmU6NGDTRftRtWv2Hy2BhKh9xE87xsZllNN9PMK22tOeXWsmUrLbMKsmjhYhtl19LUOJaSP8b8Ibfcervcd9990rRZQ2Vm3KkglBWJ44LHFctXKtNSw5i0xYuXyrSp021ZUcOGWoZl8zQrGJV0QkjhUIbB6pKqiFngvgWHHE1Heen1yIty680PS9ezL5T/Xn2VzWqxhIhTzDhalXrRrVs3Zfb2UIYmyzYbJuB5jX873CD9+qfXBojz2zb12Y2mJ8GHBzBWZbMajH6zXCaiAXT2XlhwCs3oPbKBOe0TDXQxi7uh/XFgBP4yq+JBGPbzDKLFM0OylLnHP2YRZykNGTBggA0mIGxcd90NWudbqOBV3sJjc+q++7Y3hv3tQW+7pXLaxjkJimOE7cZ/9Yfll8z2sCSMtkWbJG4WtKpJEycZA8MsEjNDLEOjjTETtVfbtjL7r5kyV2kZAl8d6IzSllq169j9R9AYTaU03Kqh7TFhBJa9QOwrIkksg2IZ64J5842GctKVOwK5kpRT/yZNmKBCXbbSJ2a3ymnbU+aqXKYJINAKu7dI4z/7r1lG46AP5Aszt6QHWldL9Rk8mTlzlt1BY6PANatb3meUWqPhUzhULvzKk7Hjxpiw2LjJVsa84f9fs2ZI0yaNTXAsrTRthtKqmrXqyIqlS2zJWsttW9oMT4MG9ayekP8IATNn/iXz5mveKv2vp3SF/J44eYKlhcMMoE/dut0o3bvfaQMh0/+cYheAZmVVkmpVakm58nl2GanNMCkNsbgigKRClAaHsnLHzX3U3152D8jRxx6rpGeVlvM8TVNlyysERV+/bHlXOkgOOk1nASUEn/+u2BIDF3xTltGr0RoHaIj+93QObRSfkVZA0QgCSECJ4vbb7rDRQo6VdAKIQqtYfuMtOAKZYAKip2cg+KYTsz0eCvS8vuvEGbFCiOEiP8dgoIcZcCwG7lyHlaGdpfZe7ls1IC4IMi4urLV2bpnyNyKCrjEvbgmATdQrsw/D79YLE1dGGR2zTCcGGE2DQbcLjEgD/qtya9jVD/McxsRfWsQeE1xqejDTD0bbLAqrNVx1Z3lGWOonT0tY5A8jd3Salgy+1JxOmmQQFwQsfi59TqBiZuS0U7vIqaedKkcecZi6I0/IA02DumEmyO1hwX/9WfqVSSSuZLp+WRnok+zkHUGxtDIoy5YvlSuu+K9t4r3oovOMqXd5o/5pJEmLS0CehWOXq5EBaob/pTiCV43d7EdRsNDt6RTAH4SIbH2Wk549npPbbu4hZ551gdzZvbsMH/65XXIJg8eoM5fMIeTaSVWKxFKayDtia+m1/E4TPipxrIv7zRXxYkgFnwfxvIjcWD4nZ5J+UqdNl3/eOCmMOC0pFBaGe6EdWBsxeoF7R2/Qo01yOhubutno3qZNGzn//POlTes2NjDBkjOWghFf2tG111yrVTfDBl0Y7EAowbyGMuAw5gRgG8nVjqMrxALXLkJGX7R9cEIfm9p33HEHE/6hC9dfd50NUNioPO61jVjY1o713eJM3DUdDDZYW3L62MEPaI/lqwnotDsNVtMJHcBfBBSyFVOqOXmCvrmLwjN6a34rTYhoJwoaxSAHZMKHZ0ZqwpIl/CNMR6dpy6pB+tWAi0yJJ3Z4Wv54++Y3cdGwovi7mSRMXBqwj39aXBYkCjssM+MIeGbM6tatJ7Nnz5H9928v/zmgg5TlTiKlcZRxmUx370wGdyipV44+aTxVADF6mhKetuBPGbnz1t6RAPKodFJaQpoRNBGq1hZA3LNYJAdNUAEbDlZ/i4AvRsopXqS8x8uO7zSLfEtHEEACSg5ak2679Xa59z5mQF6S448/xhqi9VsYWk+R31Ktk1EY42+9keo5y/btOomCLTlfD8+wqyqyC6zDVTPrQOn8MLdwvZsIpude8/X1iT371A6vQPhoYq6KsKxT5Z0/7NBR6od+0VEmx7sgnN84MwbC4u6Wfpg/kX9mJeYP7+QPOl4Q4tZwOj8XCy4uc3lIZ6oOzG7cr9xcDUd7tp9++lmaNmliSzTyTAhidNYLT04ww1cDbqO8ttgRJzxWO5Qhy0zwHyHwsX79lMGfZEvwOnTY1+yQNnxzMxbAPFQj4olHTrnbkwknDeDE4oSfkb9rYIJYf4sAUlZ69XpObr7xIdm3/cHSuFkzW/bG3Q2HHnqo7LjDjjbL5vxxSOS1PvI0n/CXeoTgF7dXKHzykoFbzLwf8XePZLfphLepgTQUlQep0lyY/eKYr6LcFodUeRv5xQwDS65YVsT+DjaaU0epurQJ6juCA0zu4YcdbnX+jTfeMEGb+gNZYEYWmmbt05jreIC0feoWegTq2tzESRNl4oQJJshsu20r2+eWQfuwfLN/RED/ktqHtRenV5BeuW/isCaDy/ZcWAXyTD+x7Vu6uYzom9nGL3238E3D2QPOBgKDUYTo2/nBm0tjvn3T51P9MmFC04Eg4qNLfmGfbxu00fdSazB0+Yd9/DT76h49NtOzuT43z80sMcPEyW5//PaHHZjAzFLbPXZXM/zHT42T+akaSmsIw71r/pGPlr6k/E1A3SltWbMGmpspd93eywSQhxFAOOhEjdlvyN4i7n8oKIDYo3gkB02WBGx4uOq3Nnx5eLN0yzWgUAQBJKBEcevNt8v9999vS7COPe4Y6zBcFaO1+pbtOhD0Ubz77/QR+VUUw4rfcaqOkzjR8N/J+oXBOqroHfj4WiJ56j9OpOIjMkogVbi8WscajfxFei4v8FMtek2FdfQ+Dvq0fFMBhG8LLnJjI5hRr2fOiU7kFzIfR/wiwKzOyxNODrJ37ZDdjElUHurMGAHnDYRCX51ZHPEy452lcjBpMFKMyJptY0Y0YKzCoeGHduQshzNBKQqEkUjjQ4D6VVR9wBtX9moHe+YnAggzKivVr1ImgNzS7UFlKkvbEaRncY9A3Xq2B4QlX5xYwlptBC5GohFI2IcEWDZG/KtUruwuk9J3P/NluRM9LT+i/DI93tGL4KPm0u4Uo9C+fAxqxgi8G9l13+vEfGA/GTHvA9KElYObYXCCxqoCa/ktT9UO9ZJTwxBkqefPPfucLW1iKaIrQ1d3UcnthU+baaB8zQ7hKWOrPxhoZidpx9YWCjp1SPIPP1zbQuk75sl2GOk3s+hbYWTE7OLeg/f4dzKSzfw3HsfSGwkYINGG/ROrCUYfIYRBCEcnvHtzo09ojrY6c4Owgn0/E4I9zSLJ0HZrs0wMEgB1yk3t2KEN2yyS6eMnT/vSJzQpgmWGjxPPGCLrTlvjpgXHvqm7bu8td935iPTo1SeaAQkCyL8GSVVgLaRbngHFIgggASWKW26+Te679z6597577WQhqKpVMf1jZJ6OifYbHxmkE/LVkKfXzwd29X8BfTq5iGFdy776qZ0SdhhFBLj17uNV3sLT3iOhF9lxDCL6Lm6unyZuzi8HNF3ccM5MBGlkKRIaZk8VSxR42hpwZXDRx888FQD8Ua+kg6n6RMxszXFqmC3tfbG7WgUQhCyYWnNL1NQfunQECPLWIoe2hVPK9q0QD/T5Ji5WLrEyMZi+U2QH4cbz0HzVJ3pen5PJYNqMkSc/NI2OGcE29ljGoE9x+eDy2cXP57WDs184/Gho5LcxFk54YAkWx3f27feSPPPUq7Iie7Xs0XZPu0zOndnu4sgoth37uXKlnfTDJlKWwPg0IZiwtt8EE7Vvm62V4URxcpJdNqXvLLvgZKlqVauZYIPAUrmyu9yO9ejYwS1lxDIvhA3W+vvkrVy+0hgo9qh4UC/WAslUZcxrYXDV3fmdwot/HL74igLxitvz8UzHbTJKMo2E7+MW9zf+re/cm8JFgjfeeKOd9nX11ddo3WpkjLAf+fdtApVfpz0oJISQggUJnaBuYNtOaKKNR3WRdsoT0K7NT63zMOm0G29u7ZK2HKskzIBAl+JLgcy9ftIS/TezOd5KymVDaDlCaMCtjxOIh+HyYW1YH2DpJ3xfWVPDxiYiOMqobs1N5E5pJL2JDbhouCjfl9B2ESARYKA1PAvmdhQHD412Ab/RKABoKWli31Gu9OvzsjzxxCvS45He0R6QIIAEBKwrggASUKK4+aZbbAkWt/Fu1aiRdg75nahVNeuAPJx+uvD+RF+q4h1GQRAUVumiPJxevnu+gafzLo72gql2Qe4JbD105JfzA2EDO/6bwCIb2knDGMSBFed3FA97JXYIEuqKzlvdY8U5xUZq0KGp2KDhw5iQn1FnD/MSeU6360QUL2Dw7uJvApKCDtribm6i8kkJ0qlmau6WmeWjQB6pOYy63WNCJPhv9r0bwoBR0BzHO9WJh5nIR3uHkSi8B87IyNH/mGvayW97hwkjP3IlLzdDpk9bLL/+Mk122bWtlClfzo5fPqrjUdKiZQsTEBAsYNYYKfW3bVu5a/xgNjgelpN7OImJk5kQVpjh4eQlBBbcIbQg0JlS4YX0IEzkqeCFoANIFmmDqeQkKU7KcTduuxkX8ozb8sujVGgx4UYFGWZcOCCAUVzsMHMDY8WJUzzxi8MJWP6DoAQTisBDOJxexbdlZ34Wp0Y6dgB2XPGkhprne0OZOMvkCT+bQQKRH1b0/LNyd47JJ6tP7s9g+ac/X8/icHWGF/dYL3jveUZRsmqlzYY9Ua4O5FjZcsT2Mcp4cqIep1IRDxcFl1ZLh6aNp5VDDG6ZYUEG3eeWcxcx0tqOnHvXZiwfLdMczP/o2+3rYFBBhRgblNDvKEarta1AI/DLw/mDv+5bLRgTbfr6F7OagOV/gfZPq8svU7csVOOifrhloeghlOSn36UBykTsHD1KBVwXyDXiRb4xm2OmPJjpQJ+PeITxl28Nw6wizPncUF1LXMwfhQkf5rePkw/d+YNdaEXp0kpdtPzHjZknE8bNlAcfThJAKlYSbroPAkhAQPEIAkhAieLmbjfbEqz+/fvL0Ud3ss7T6Lw+bDQ+AsQZlTz7ARW2ToW/QqomdB1voetJfXtBN2ZhbTpuocTCpO+ho8S6+xfBrMDUwkioig/JpYCNTFrEo47Z/Frl+hVlYMwPXvWdk68cf4ipi2EiLyxv/Gh+QdChmrcJwQP3LtJ09Nbp6V8iG+gZeRAt0qgeuBFIJxg6gSCfWTL3BYAe8XZKfXHahpQ5Gz0VFpXIvwLeqk+aVhsNJV/wxtLNE3P1I3Lr07N2vBxs5kfduk3zTgApVSpPhaBS8vTTb8gdtz0iZ511oVx0ySXS/+n+djQyRy2fcsqpdrqRn/2gnnJkLIx8Ih/wkmCj5LiyWTsuaLu8dfqMkHNkbJ4yKggm3JXhjpBdabMu6LujZZfbjAuCDOfJc4wyZggumKPcPRCuXthBC6SXCNmfS7uHHQ1ZoYIJJyaw6Lffw4DQwt0vnKbE7Aub7xHAEGD8OwpzjpfkHXf4haJucSAE9skEjuiFsbaTq9QeDLDtlSE6lg+uPgEbiVa79u2MDC7qpME9gc93S2P07f0x/Vh6Pcw8uSquDwgiChKQ5yy5YoaDi0E5LWvBwgV2Yzob0znempPnQGIJFj+rk2vDvI6nQ+OPM0um/ksEj57WK4+1084whGOk7QQ9XFp7R+k7xMKePPLdEg711YNvKBaANrj6Zp/5wC/T1PIokNfeH2utPPQv2XEcambxckuqLM6FACEqH9hT27F4GyLnLokFaRhPsw/9UrqAOXRnrXxU69Rf6rgbDPL6aqD5SRyNTvGp8WZ55713PSY9evSXHr36SqfO0RKsBdEMSB1mQLgA1HljVSIdJCWtROt0QMAmiCCABJQobu7WTR588EF5/rnn5NjjjlWmhE4A4g01parxDW1PosqJb0+FsVtE1bSOKN5ZJP7lw9spAnbClUULe/pSoIPTuKqX+OqYdjU3y2vD7ERNybxLikui4yQv1IY/ptPbzgcBqioQjzi8Xdxhh448H4k4RE86VhcEnbl3w5NTr+iM6bBdkPxz8fZheHh3IB4+Kg6vF7ej7wWsRXYsv5P84tPiHYVFHpieffBvLbh0ujpFj+1Gl3OVWSwr/R4bIDdd/4B07XqB3HzbrcrQL7P7TO64407544/f5d5775WDDjpYmUo3ewCj7f2z/IiAlssjp+nz1sP09c+KTM1s+ZRawV68nts3FvXPzT6pmAp3onYRxhyiElB3MD4Iq1gwBj5ya8CZmuEPQIhB0GG2ZpkKLozGmhCzbKnd5cLsDgIO79yhYTeaL17i9PTJcazU0TwEoOwc1V9iQgxHytrlfSqUIJwg1LDEzMxMoMm/qb16dZagVbMlZzDpzATxjhtGhEmDF4Rg0LixHP9JC4KM3T+iZZAPlxf2L8ry5LwHlsf/ILNGPtNWCMcLGAgk3D2RvTJHRnz5hR0/qxawrObUWyqAOS8e2DP7vg7EgV9R4jTtjg45uNzxI/lqRv3SPM4PNqpvMTcOzn5BeD2XVpu1wGlKpIqnIpH+ZL+T4cLxwlNh8EJRPnATt0/6FBpfLRjTIY/WBnHSsDyNLwpmzD9V5idp0jyxfSbUTfVjTabcfktvuefuR20T+tHHRDMgJoD4GZAggAQEFIcggASUKG65+WZ54IH77TJBLtqzDtsosafC+qTK2Z/rIAt2Kn4kGb3CqybMErMHhY0yJlCKMJIpez5c7dcYFNFxGjNI51WI8OHhOxyaVKGMkobDKBzMmFtTnA9jSNWOzc7Y39rxJr8IxsWJ/RUF/YjD7NAzRuCbKLiejvjBbPB0ZcCRw6lgjE1kv2ikaSfObPnoWX55t3Gzov1zcQPEXZWVU656wTG8z2h97CFnnHm+3KICCDMTnjH/ZOgn8uyzz8kZZ5whp592mtSpW0dyc/OkbNkyrk6ppy6/It+jEX7Kzb61rMw8mbvgU6Pgy98LFramHzMURnFnPomRmRtt1Y/k4ojbi7BmlatrZt/iq5qRP8BFw9nxcXLvTj//W9nBvFV2wy9CDRcC2u3ZKsAgsHDvDceMYmf5iuU2S8PoP2YsSVmgDDlu/XI2f7kgS9aIm4ZgjC1BYt+Sp3nJcrasClzoVdGEFFQWggkXH5Ytm9h3g5CDwMJsjV2CmFXehBnscZIbAhLvCEU2K6MBkA6EHQK1ctMwV3G6mT5N0CGfigLZE8tLe9c08Dl//jzZf//9ZYEynd9887U0bNTIrGDZTnPzjhIFEgOZT17EEKc/VpbA6la+PSun6N2g30YDIxrg6oD3JR/MYBYE30l65kckfFgdT4pzArgrGPe1UZw5wE7R9hL5kADpZ8AlP+5mg/xMxDcpXcDTG2iD2S0E5J2Vr7fj2pXzGVqqD8pkdRm5/ebecvc9fe0Y3s5+CVYQQAIC1glBAAkoOSgBvfW2m21k+aWXXpLjjjs2YtC8ipCocSmqnu8sYx1ySmAviYFfC9YD4E8yZY8hqv6sXy4M5o3Fqwh/gFlUe0StkGYFY1KUQAQczwpzm9oP9dxyc00p4lxMnGK9mOvQ1U9b65wPE1I0vn6gNRmQCLcUpJD4JIDfxdkBRfml+omywL/otTCQz1rHjGlnyUZMAHmk5/Ny000PShdmQG6+xW7JZgaAO0sYlWdNPxuJucTtkUd6yQ47bG8MNSP+MGKMehrTp8ovFzPmhKhrvGDUyFOefsTY8gpB0pg4oqaa+mf7MjIzbYQamLb+8+5d2Tj37kVVZMf7ZWYJY8Jx7g3Rw5sb4nrJ5l4PxXv82yOur2AJkgmpkZt4XsCm2e3jmk/km91GroIGAgaXAWKPJWQIMAgp6JHHCAlz5syRpUuW2mwMl9zZTejLV5gg4/ff2M3oWjb2VD2WtnFkrs8bzzgjWFC2LKfjGFZuZmdZjBNusowx5NAAZmx4IuAg3KBsdkeFG05EI8L4hxDE083gsATNCaKLFi2S9u3by+LFi+0m/QYNG1o8XIYU1ybJN+xF0Li7dhPTA5Stjdo7mJO4O6BtJT5QkTgNqgCS45MirKh9O0GIoCnkqOALAHfJ/iWjOHOFpas4e1FFSwD70IbkuOu3bwepYGmKVJF2saPm3nuf92adf9AZajr3gPSVu+7qLT1798s/hjexBMvvAcGdkaf0EAWXQKqiDAj4FyEIIAElg6gW3XrrLSqA3GMCyPHHHx8R7zglLa66YR5XhUHNihAa8hF1PEWBJmBRLCq8qHMq0o5DgjFLCRjl4v0oMizrRHnROKViXIoEdpPzjcQX44+RiWLyMa24qHmRJMeHEz0LE2jo8S0PnLmbNdB0YH9Njn5nSa+eL0q3bg/KmV3Ol2633Gyj9mwsZw9Ejeo11OUaZSQX20VwjNifc/Y5xsAmGHv+9OkZf578YHZ5hxUxHX13p65hzdl1AmjkTt+Y7YLZxq3TcwKEB9a9sIK+DwPm18+2uPQ6OIGHGOi72nHmKqygpxwP36hUbs2V/uEurm8gsnE9/SYuuMEf0mXewVV5M8LCEVpaDgb71H9R1bLsIM368/mIHu7tRDCFX07GrBz5hT3n1uW5E1rUXeJdBRgVaNhbg2DCPhsEE76dyjZ9Ti3iiZk/SIDZGQQiBE63Pwe7yy1OJkRZvNyJZcSFeoEehwYQd2bK3nrrLRNcTABhCRbQJGsK7LVwkBkWkPs0+DofAxldgMatTTkyMC+m3fkN4fngu2AcbYChQHwKg9oprE0aMPOqCBhzX5w/lpkK7x9uvIqhmKAKui8MkXmBtHl37uGP4OWOobtu66cCSC/p2esxOUoFEOZNFi1iE3qFsAk9ICBNBAEkoGQAgdaqdPttt8o9KoBwD8gJJ5ygBkp9I0Kcj6KqHGZxVRjULA0BhOUJxc04GIzYFxUefhQdJxiTIr0wwIQVZwlzwksj3sUwH2v7gd3kfPPlU5g/qm9G+q8o5iMaRS0eRfXIuFd/7PK0otKPHz4sfYfxNaaYEeFcWZ2XJY/2fkW63fSgnHHmuXLTLbcos5onS5YuNYayQYOGUqFCljG9tk9G4RlhTpVKRJEn0Yh//x2oHzaLom3EGPaoTUB9/YZ8GFxbEqeaMMdueZzZMsbeu0dhFo8Kdc/76QQd3EYnT6m2CSKRYKLa9jThJhJe4kvJ7BtH+ucEMoQgJ2yh6cNx+yEKwoRAbFrw0dIngFXn3CnAt8KnG29tqVq6jJe6x63FF8feXxD5DXyer2Wu3yxhW7ESISXPhBYEExNeVFjhNLflyzntzAkyLN3jnaVnc2bPke53d5dKlSrbEixOWHNQj4ttkyBuR59WtgXru8vngv5YvsZhNLCIdoIXa7VZvpP0LOwU+ilRWHhx90XESVHcgR5ru8c+eUR6893Gi7RoqH9J+VsAlk/e77XjRr67uq0WVzMD8pgJII/0eVw6Ht3Z4rV4yUKbUVtbAEkzlsnRS7cdBARspggCSECJ4q4775Q77rg9WoJ1nBFhNzKNqSfERVU53wF4VRjUzDqjohEEkGQ/sPs3BBBUgkkpDJgVF2fCKqpnjcJiGdVaYRURtuMQ9MlpQDmyKreS9Hv0Vbnpxvvl9DPOkVtvv93uKGEJFkto6tdvIFWqVDantm9hmdu3wAZrluFQb415J6rxYH1WrSsK88PrF1cEERy1dpa8kMCnn3HxTA+ICysw6n59u+mrnj1xbJadfYAfvNksBG613G12QjV593YsfxR+PwXOceOFgrjQww8/ndATCT8RXYjb5enuyjGvzR1/KYG+i/LaUH1LnUYK/0FcyDJ33r33o7BwPDDX/Fi1Os+WXu2xxx4qmKx0e0AaNlRj0qj5k8GMEfaL8jAesD6LbVuFABqozHxhLl0MkttkPOwIifDTiUOyfx5x94XZiRBbWpYaqeKMHiqdOMZg9dq7LwxqZoMehcC80NykTNeUlTtu7id33d1bHun9uHQ+9jjJyctWAXVRJIDUShJAiqJ3MSRHL01nAQGbK0IVDygZRH1Cgwb1hfsNfvvt9wRD41BUZ/x3gZ9FqfRhzJhGtzCVln9mrySRnJ5UCqTSL0ylQmH6HlHCimSoPOJhpVIR8CulgiTpk87eyFOyQh8QJ//t9ChDz6LkKiM8ZuxYW6JTr359O2GJ0Ws/GulHm2GwWfNfqXIl2zPASPfcuXNNGGEWwoLxQTinfw/JfuCvry9xf+P2Uijj2WHqYaZ98vVZqrQy7ypYeTMU33Z0bllOsior5SuUNwGLo4ZZq45iH4QpTT83eVepWsW9qx7Li6pWq2abvGvXri2169RW5qquqjp2i3y16tXdPgu1z4Zwlp9wvwoXNFbRJ/4jzHHvCXspuM/ETr3SdHMggF8uZbML3LmiTD3H287T/J89e7apv2b/JbNmzbJ3yoXTp1Ds25k/b4EsWLDADhZgKR3uUQiZ7B2xpVYqXNp+EX0yu8GpVTxZjkfdcJcHOiHL6FW8XJJgQpv+YCxJz84776LhLZE///zT9KwsFE4QiTwy4pFC2YNn9F4ofI1GQaMKKtoMD+9tsjIzH7EEkr8VCS1eilIglX5c8dBnocpZSQ8koIj0p6MI08CzMAVS6TuFN94f6tcfY8ZKrZq0hzpuxjGqR17oCAgIKB5hBiSg5KA16aeffpJDDz1UmjVrZidhbd1863w6nhZ8deRZVNVUszRmQLDj2NKiUXz01I8M7fTMoosXjEYc6TQlbXDeuQXqT7BJhp1cU8wooXlT7EhiMnCVHKZPh49YMjQMOlc1Jy8t3QWTbnDpTx0fOmafP24pQxzJ4RJeqnzBnrdLODCzPCM9jRMXO3I08bQpC+XII86UWTMWSr9+T0n7/Q8woYI9IIxI1qtfzxhs4uTixeh7hm2eXrRwkenBkLMxOcFcxoMvDMlJ25Thkl0QPn0pyrcA4vlQiB9kq8+2wryjRln+6x+zOK4s3DeO+DZBQYVBY+z124SFSBhwf7jDbrSELdL3MHsRXN11LdcENn4Icwnwns9I+pka7PrlZJihnnjiCbn99tvlmmuukSuuuML8MkFQrSX8tPQkwev5tmufKdqNeuGOqnWw/QcWv3y4/R0pwoghfpeIg9pPqqfcI+JeCvcr0YYLoTkuz7xZajv5KMY8EYZ/unS6gYPi/F53uFnywmZA1HSV1jvqnKbxww+GypWX3iENG7aUvo89KdVr1JScVewtWmonttWuU1PKlwszIAEBxSEIIAElAyWerqPPkHPOPluee/45Ofmkk6XfY4/ZaCGnzxjUiuvE6MSdlkfBqsh7/DsZjiEuGoRDrIrvsJKikgL4kyJOxgCkD9evamg+rVFH6zrWZL+K8JvMsw5q3cJ3SHbjU5/aL8rFZg4Sxvri010g3j6P1obThbGj3GCqnI7dlI++fUVu9cMEtUKhLqwOsXfDx503MqS0/Dn9T+nevYc88fgbctJJJ+h7d2VgxZZFLFu63JYMcewuAghBuvAJ1PkDc7tqtSsXTn0yZrKo6MSxJTANyXmRXwT5iOyQlwUYfF69+yLcpTRbH+CvKuoNyi8rgzk04SYiRmZO+auZ7cNhZJtfVB+9gIM5I+E9e/a0e1SOOPIIOeCAA2x5H0v72KRubdTCw6Vz7+GCc/4SXrI5gG8lbA+ro0mIm6eEGVOXo3aqAXuhJU4/WZ5nzyidHoRI3tgvojd2JHmxKOhPHFHSi0GyBb59uPnhk/7C8iA/j5XeaJxd7rm27l249LqctToQGfAwM1UIn5C5nOw1MvCVQdLtxjtk0eIcefqZ52WvvfbVekJ9WmWntVVQAaROXZZgsYzT+RU9ikdytm4JtCRgi0YQQAJKBhBPpbSMVo7+cbR06dJFJkyYIDu32VkuvOgiad68mQkijqjz554F4Cm2obhqiXkxdrSjdbxPMmX/e0BIKBii79TSBJYZxVTlmp2qiJEvbCakMFhWeSFgAyA5nX4mqAATE/3WhtMlzdiPC1vG3ERp4d2To4jXSY0oMhi7pTNu+QNHZE6ZPE2eeeZF+XrkKGnWrIXcd+990lrrIIwjx+ByGSFLglhSxJ0SBcIgUL4jPR7J6S4WgWkoiL+Vif8QYmUdVTMXNV+fqJ8FaJAiVhfsaXUXZjRHypYrK6+99ppcdullklkmU4Xdk6Rdu3bSqFFDty9GYeFQN5MCZ1DE1X0fXnImqf0Sat+M7hcIX98JNt52ncCttlIE6WNmadc4rX2q1t9AqoBSIZE/jnYkD0ysLkQY8nTEDT4hYLo0Ax5WAib4OSCCuJkKJ4xg2QmGzq85c+bLywPekOGffiXLlmXLueeeL1dccaWWeznLO8qRwwy4w6aWCSD5x/D6FBSL5KQEWhLwL0cQQAJKDIwWeiZy9KjRcuttt8oHH3xgnTH6vlNW2s9fopOAUEP2/Uip0y6uWpoP7rVI5Hc8JQ3in89AFA+XXrWPAOJ01H30FuVFsaAjjV5Z7rHxUTDeRaXCZ5Xv2BOIDOzh60Qa2aHyhgKLyk7AGzGarXWQPR277bq7LY9p1aqVZGfnqvBRxvJ42bLlKoCUl3p160qFShUKdvpeAAE+a/13sr7FNVJxbCymgXj4uMVRmH6AQ7xck8sy+o5noWfkGWhB6OD5VP/+cvfd3WXmzJlmxvG96NsSL63U1DuqNfXbvmH2tYIXTT8IJ4pACSNVmK7ZuXjG4awiKPm0OxqfQGHR/wfgglo7TwrLpYR9IybOlk9fchaY2AFdhjbFzdQBWtCXnByRFttsI+eec54c2fFIqVKlqs1+QHcoS/Yclc8qL3Xq1bEZfx9WfAKwSAQBJGALQxBAAkoOSkCtk4KGK4WfPWeOfDVypLz77rsybfp0JdDLbYM6FqwTi2oebtZdAAHp2Pknsa49hE8z6Yzing6n7WFWyS3nJrkT3bDwaUjOgzTSY9JC/iuln39je5S2xHfhsPoSWaP+cJxu3bq1ZZ9995bddmsjW23V2JgC1u7DJHA6E/c9lFMBpH6D+sYspBRA4sny30DDom4WyHdv5rGxmIZYHA3J33Fghr5/bsnw+aTPhEBAGVIvo8K2LPL5FcG3QeoUe4umTplqsyGjRo+Sv/6abQxoXh57CtQ9fqj7gl1t/D0ViEv0ut5IrpR4/Hc8J87xTNB3jeSGYSHi8U2OezrhF2XHqIfRHDej6nVJnhs4q1q1qtKVfaRN652k5bYtbQkeZggn0B3KmnrAHpAatWsEASQgIA0EASSg5BB12vwY/WNGhCdHnHJaDUSa0UFg3XpEmHHDN+68YOI7+E0X1j2513QRZ6rXRfCIg7yJmmzxZ+n/k6B31FJy0xAGK7s00uWWm3l7uGczMP6tY35in/CoP9HyCU58WqmCbm7eSsnM5PK4NVoP2WcCs7hK6+AqO5mpQf0GUqacCsN0+j7OxN+jkGRY/YbrUDjGMinOG4lpWJXHTeBRfIgeD+KqijaYgJqRJ8yecQdGxiYxi7aRES/reHZ4/VRZZPXGvQLqBPSNZTic2MVyUxR++HJAYKZ8eE8HrmqlZ7doJFdKPFa1rl5bOynoKN20rD/imR1PT7rhq72YF3GQBBUzoiVYfjma2/+FGRdZunZEL7U6+nY37xspULqO8IH/1atXlyrVKif6OYwLCXZtBAEkYAtDEEACSg5xAuqpblS7Fi9ZLLP/mm2dMMSZ9fjJ+Cdqol+zXbKIJ25j9hL/RNrWBaSdPPAFR76k093G4x1377AWU58CuIAd4D8kjLpjQog+YQrWcBu6lb1bHmEnKakgUqZsGWnQoJ6U45QaGAxbv42PCmPeHbO4SplzLsXzG5R5VxN751hX6rCdilQw6hunOlh6WdOuTFG0HMQ2zurT8jKWnQgdpJPL9FinbvGPmReJdO39W+HL2ucZKtLTrNb6JJK9MtuOC164YKETQsqV0zJhcCU60IDySBOUX8m0cR9ZDx/x9OOSjyjBGw0+7h7JaUsFn4+Fx51bzq0AFX48wo8X2UP1aF+rV+dpuXB5qZtRZZBtxfKVdkM+syQcW10uq6yjDR6Rv8UiuajTdBYQsLkiCCABJQdPQOP9QVS7YNrmzZ9n5/QbY1Rsp1EccF+MH2rsTl1a37BKEmRIvMn5XiaN9BRAsj+bCorrNTXO1sMXzVhx3GWxgBnAP8sGRpcJm9J2zLcnbf4/m89r1Kgu1atXNR1gddGHxRM3+pedkyuvDnxV2uzcRrZtua0yFeVslPu3336TqVOnyuGHH25OCtRlHnhhw6L6qsK2LTFjtDQ+C6GIz6IY+IzcG6Jv3Fuy+PZ2koBfPh8GvjpQTjzhRHmq/1Ny9NFHS906dSM3/FtjM5H9+/eXiy66SLKyKginNnnBJZXfBVCc+b8d5H8cPj9i+sywrVy5QhbMX+BuWM/Ns3qAHTcD4utBwfqwNqi/63YwxZaJ4vIRUEDQm+QCjIF2WEz9tnYe0RUjE9o4S2eUNn0OtOBOkNKZmUq7kvfJpBNHRTJJTNNZQMDmiiCABJQ8qFHJtUrpMSPQixYtkqVLlppAYmxTxIjx39HsiMiv5UEysBwj8oWiaEZ3wyM5c9JlSFJhU0tbGmWiSUcoXLPWXST5oPNm0VSCsU8FNeJ+A6szlp3xsF1eeuGANdzc58GleTAKFj5myhjARKwlgChycvLsVKPtt99err3mWnPLaOcnQz+RN998S/r162t+AOq122fiTtJhKQ4zfP5kIZt5KVNWVkX6RNMxpn5EPL8+xEdO/TpzU/qzVmHxdrMwNoOh4JI9C0/tn3322fL008/IkCEfy3777Wc3M9PGiBOXErJRum3btvLjjz+pIFbN8oZ0AWOQiZx9uEcBpNILKIioKBFEuFCRo3r9vgLKzt1Gr/DD60ViU2vfmyLIx+LyUnPcTsvKb2fJwMQGDFJaoeURitIS3x4jlVk6U6pUqmKXeZbLyopIT8wTPAwCSEBASgQBJKDkQY2K1yr6h+gbJilvVZ6sWL4iIviOqfLVMPEed58SaXY8xXu0YWGj/7E4JdYzp5OeZGxqDErxaXAdt8bb8iE1KH9jF6I6kRIaTBlV+AecVbfUxffcmLF0iuNSbcmUMgJmv5CjO9XQe2QCyBlnnCH7ddhPGcg1cumllxijPvTTofLxxx/LAw88YIz9Z8M+kzF/jJG999lbtmu1nUycONEu4SQ8GE8u5mRdeNOmTeXDDz80AaBdO7W7XSvzz0bHFaSVY6unTZsmc+fOU/eZ0qF9B7txHGSrkPHRR4Nl8aLFsqcKEE2aNLYwYIq+//57+fa7b2XbbVupcPSm9OnTW4YNGyZ77tlWKihTRBjDhw2XP8b8IXVq15Ebb7xRRnw5QqpXqy6//vqrfDxkiOy9dzuzb/tIyFyilZz9gSEqGuSXzzPNK+oHN67n+MEWLWOnsMDsWHIGx2DVYlNr35siyOjotTAkZlxTW/T1fU3UFlPB2qo+WUbngdBfJpMb/stpNJwfFkSctlHY6QggOEmOXmhvAf9yBAEkoORRVI2CSGtfAFMHs5MS6n5zrJYwGUWmHUT9VD78V76ueVFs+t1IeHFIKx/Vn+J8Si9tEfNaDJx4UThzRboIKp6+VEHbDc9qYNb4lxhVdj23HXeqr07ocGZuzwfmFkLsCfJDgXE85ZTT5IYbrpeJEyaagFGvXj0ZPnyYfPD+B3Lf/ffJG2+8IX/8/oc0aNhAvv32W2Psf/zxR5tVOOLwI2z/yB133GEX1OXm5sk333xtm9+//uYbOeecc1QQ2cvKxzNA9957r7z44kvS5cwzLQ4I6pdfdrnNirzyyisy669ZUrVKVRkzZozccustUqVyFfn0s89M2Nh66+by1VdfyZzZc+SVga9I586d5bHHHpNGDRvJy6+8LNOnTbeTvz755BMZOnSo/PbrbxqPr00oatNmZ5k0SdOogtEhhx6iTJUKNrTN5EwPDFHRiOeXr1qpoPrpNEvXTopGOjQgPaRDA/L/F4V0aMCGhNGuNPKyuJRZVqulBD2hEJOFC++JzwK+082O5Aik6y4gYDNF6FICSh4QzsIU0Fpnd1gkm3ml5pzO848pRnnjzxJSrPMvlVmMUjsZBZR3T5qdKoXKVP+KVHG3hau1wk+lUrhLVumlDbv56ShMmV/KpBemWJrExl06eq+Sv01pRmWofXWkHlOptPJQf6wnV8ae8k2h5+pZ8jN6R4iJBBlm67jReM8995Tnnn1OVq5caTzH8hUrZN68efLee+/L2eecLeeee65ccskl8tabb8lOO+0k76s+sx8sjYKZr1OnrjzxxONy8UUX2xKpc9TNqwMHmn8ABonRcISU1ur+6muuliuuvEKqVatmMxVTp02TkSNHyvnnnS8XXnShHHvcsSY4zJ03V95UIejiiy+yOHTt2tWWXLHcDMWMz1+z/5LPP/9czuzSRc3PsvARaBCOEFhOP/10E4bOUrO333lbFi1cZIMDYVzqb8BVm3xYnUqhjL4Vr1w7SVK0jdjT1/H1Vy5eRSnspHYbKWuTmsAkdxtbufiRV0Ury9MiFAMX2DM6AaKnoywRIqME/Le3EGtW3l0Bt3EVEPAvB000IOBfgjhJL0DaC8IT9/Um8qnCK07900gV5oZU6SANe76TX1fgLsZ8rA8QCvCuXv160rhxYxk27DN0JSurvMyfP19mK3Nfu1ZtY9a32257+f33320teIuWLWTKlCm2z6Jho4YqyOSZ/YqVKhoDg5DCZvbcnFz1XwMgO/TBa8uWLS1slldxW/ukSZNM2Bk3fpz07NlTunfvbpd7Tp/+p/k5ddpUqVu3rnC0Lns7qlStYp4h/OSpAMU9KOx7qa9pYMZx++13UH/rWJjM8rRu3Vrjv1qaNW9my8MWLV6s7tUwitP6t5EtDOuVZ2R6XKWA93u9yyU5rHRUMSgyTqn8Kwm16SARo/Uum4CALQNBAAkICChBxJmDwtTmAdugrr9yZctKp6OPstOvZsyYaevBETRYasVGc4QI7gZgxoJlUR07HiVvD3pbXnrpRenQoYPNbNhmb9b8q7CSnZ1jx3UaYFZUeUEklzsG1B52eXKDO1YaNmwoXbp2sRmLyy+/Qo7p3NkEC8JEyCCuCDQoPCI8Zo3YJMsdBWxCZ+N7nr5zLwqjwraePSoSzDkVi5FeE7wYyY7iZiogYJNEVIGLVRsZvg2FthQQkEAQQAL+RUim7oHab3Fg6VBc/U3ElyDxVrlyVdvL8enQoZJVIUuqV68h22yzjXzz9dfGvD/00EOy11572Yb3Bg3q2wwIt65zNGezpk1l2223lV9+/tmWPrFJfPfddzN/EAqop6tUqGHZ1tBPhsr8BQtk8uRJ8ssvv8jBBx0k27TYxh1jPW++Has7aNBb8uNPP0qtWrVkl112kddff8OO0n36madlzty5tnQM4B/hI9wMHfqpZJbJlFdfe1Vmzpppy7O4p6Jv374mbLCkq1GjRibocFpWwMZGoF3/GkBAklVAQICUvk0RvQcEbF6AkNNP+6eBF6/+ISTCi4eVripBxNO9XnHaxJTfhxFXqm9rzGO/tdyhIrsJxcxC/NtUESAfI/z8y692YlXVqtXMWZ3ate2SOWY/9tlnH9u8/c6778hbb72lQkcDOf6E423vBYw9QkCHDu3t9Kty5cvJzjvvLK+++qq8/fbbthn8tNNOkypVqmj03BgQsRo+fLgtt/r9t99k/ITx0vGojtJSBZcKFSrKrrvuaidcvaXCB4LHKaecYvtTWmzTwk6yevbZZ+20rXp168q++7aXn1RAYVN5LY1zm9at5auvRsozzzxre0SYNel8zDGyww7by9hxY+WFF16wWZpzzzlHatasYXKbzcgkZ1UxWRewDvDtNd6G7cWrfwjrRSfWEYWm7d+kknRIc7JKRmQ57i4gYEtEOAUrICBg00PyoTXpztX+XXceuI84grzcVW6jLxr8qWL5FadTsVSJGQW35EmDKVXa9lgAmHduXscO7iCxfDPTwHKoLO4LQJ8lWZF97Nx+++22af2GG29I6BEe4XhGhpkO/EHAwdzfO8IN7+gRV+yjx/Ir9IhHdk62CUbu6N9SGo+cxNHEpAe7tuwKEBav0WeCkQrz5QEBxaP4A7dCWwoIUIRmEBAQEBCHMtuc4JtZhlO5lAt3f/YPZp5lVn7YhrsAYN7Zb+GBYACTzxIoExKi04qwm1U+y7k1JiXfDQIHsyfMitg+DLXjZiGcHU6msvAzOY2HU8FUACJctYs7BA0ECrvoUK2iT/icKgbKlyuvzvWn8bCwypbTp/PLjt3VJ3H1QpEJHIB4+veAgICAgIASQpgBCdh8Qc2FP/PPdLGh3a0L1sXvuN1/Mk4bA8mjiKStuPSRB6g4/s4MiML4fdwSJno+/Mh/m4lQph2FHtpmHAkKnqHnA39s5sEYfixF9gB2mXnQMBYsXGCCRZWqVbGQ8Ac465EbA+JEhOjFNo8jMKlfzrrzIxE5/pmeixte4wvHAHvfElZTIQxXlRx8RheZ4Smwod2tDzZkWJsKSDOqOIS2FBAQBJCAgIBNEMlUKV1G5u+684jI4ZrVTnBYi2mL/LeZAuXgI/kgX19/JjQkuVuzKsk+8OYoExqcJ14gSZih7e3G3Xh9eySFCyK7TtjgJd+eJ/s8cJJwWxSKMw8ICHCNqgBSNJzQlgICggAS8G9COlW5JCl/Gh1NSvxdd+ngn/R746K40l2/lEa+e8ZcBQB36Zh9OmDEtz5ttiGSJrx2AnxE9ryBW9oUCTVgLUeKuNARB3ZVJQSUuLDgZzsUFh2U99sbeHg3gLDi8G4DNiKSCywZJVlARVWOorCh3W2O2JLSGhDw9xEmAgMCAgJSAT4iphirQZBARkELvsLNLrgn8EJCMhIbvAHMP9ZSW81HZM7yLcfDJDEy3pwNK3xExibseAEDO94Z75GbgICAgICAjYkggASUDJJHVAMCNlMgTLDp25Qy9xxRy6lSPXs+Ip999pkzV302fnOvhxMAFEyYRLMiCSjDbwKB/mGEMGGCTKRW5ar7VQg2Mfss19I/u7jQaRlWa1jccO79I1w2mqNfwJ36m5ObY+aEAYhr4ju01YCAgICAjYwggAQEBAQUAi4AnDN7tt3/sXLlCvu2FVCqFi5cKPPnz3ezIiYBqIO4UmB/trpfvHhx4khcZiTQn/HnDFm6dKkTJFSIWLR4kdmbO2+uLFq0WAWTVbJ44WJ1/5eF5Y7cXSXLV6wwP+fPm68hIPBkmMDBjeizZs6SWbNmSulS7vSrBepu+rTpslj98xvNDc5ZQEBAQEDARkHYAxJQMmBUNYizAf8UoFLFMczp2CkOWo8RJpjxKF26tLzxxpvy3rvvSsVKlWT2X3/JhRdeKP858D8yZMgQeemlAVKxYgU5pvMxcsB/DrBjcC38mB/PP/e8fKx2uSW9Y8eO0qLFNjaLMeTjIfLKwFekatWqcvHFF0vzZs3ltddek9GjR9u9HHPnzJWTTjrJbjz//rvvZccdd5Srrr5a3n/vPRUwZsmXI0dKrVo15bxzz5Pddt/N/Pvgww/svpFZf82SXr16yYL5C+TFF1+UyVMm263t559/vjRo0FAyo6N5CyAIJAEB64eSoD8BAVsQAssYUDIINSngn0Q6HXsJdf4so+LI3GGfDZNpU6caM3/OOWfLuPHj7E6P7777TgYPHiz33nuPdOt2swz/fLhMmjRZbCgnNpzz+utvyNJlS+Xpp/urMHGi2Z84cZJ8/PHH8tHHH0mPh3vI2WefLU/3f1pWZq+U8RMm2K3mXEh4xZVXSM9HekrnozvLgJcHmPkvP/8sY8aMkUGDBknfvo/KddddZ7eY//TjT7Jk6RL1e6Jcf8P1pseMyRNPPiHnnHuuPPvMs3LYYYfLXXfdlVr4CAgIWH8E4SMgYJ0Q2MaAgICAOFSI4Kbwt956y2Y2KlaqKG3atJHDDj3M9lCMGDFCmjRpIsuXr5BFixZKixYtZcQXXziHIKKqb735phx00EFSoUIFaVC/gXTp0kVq1KguQz8ZKsccc4xUq15NdtxxJ31WNyGitAo3e7XbSypXrixbN99atmu1nWy//fZStkxZadiwod2izm3mp512mtSqVcvi0K5dO/lh1CjJXpkt+++/v9njkkHMTjjhRJk1c6a8+9678sEH78vMGTONSbLlYiAwTAEBAQEBGwlBAAkIKEnERsDXQlFmARsHhZWJ6rPUCea/VKnSklkmU2rVrmUCCEur2Ix+993d5eGHH5YvvxwhW2+9tc2ceGBv/oIFdku5rXJVSrv77rtLVlaWzJkzx4QS7JfJzJTy5ctLdk62helvNyc8BAS7QV3fETBY4sUMDMIF7ywRq1GzhsyfP08tZkR+uhvQs7Nz5PPPh8uHgz+UHH3v0L6DbZgHa22UDwgARdGnosz+Dkrav00B/8Y0BQT8gwgCSEBASaIo3i7wfZsefJnAPMQYCJj+fdu3l5kzZ0opZdhzc3JteRSbu6tXry5HH91ZnnzySXnsscfkjDPOsKVWtgQr8o8N4/vt10GmT59u36vzVsudd9wpY8eMlfYd2ssP3/+gVjNk0aJF8tdff8kOO+xgm9FLZ5a2zerMYiC4+BOvAHtDVqogMnToUBOC2HTOcrBddtlVhRYC5oJBd0P7xIkTZMqUKXL3PXfLqaedqvFbZvomDDmrAQEFUVSdKOn68m+sf6FNBQSsE4IAElByiDFwAQGbDai3Xtljjc0unHVWVxk2bJg80quXPHD/AzLyy5GSk5trS5t+/fUXefCBB20G5J133rGlUEwsJAQGfT/++OPl3XfflWeffU66detmG8GbNmsqR3c6WkaNHiX9+vWThx5+SOrWraOqrs2CLF2y1MJevmK5CRnMeBhjo4rjgBEg3v/gfenRo4c8/vjjtiRr773b2fKsFeoG+QL3zJLg54P3Pyh9eveRl156UZYtW+7uI4niVwDJ3wEBAQEBAf8gwilYAQEBWzaggHEqGDHjzEhMnTJVvv/he1sWBUPfqGEjadiooR2fyzKsFctXSDsVAJo0aaou1qjTDP2vPyOrGTJh/HgZNnyYuT3kkENsZiOjdIadcvX++x9Indq1pcN+HWyfyagfRkv5cuVk2223lVUa9nfffmt7QvBn8qRJUq58OXnqqadsnwfLtmqr2/3228/0mVlh5qRVq1aSp4IKt7hzfDAnY7GnpHXr1jJt2jQ5+OCD84WNeLrDUFRAQEBAwAZEEEACSg6O5woI2LwQZ8RBnEFPlzH3l/vhNu5Xsns1Q7CxOzn4i92QziWFBe7qUPj9Ggg1q9T8jjtul9122006HdXJLhwsHd0r4uHJeYGb1+PA2Bvx7uMaBJCAgICAgA2I0O0EBAQEJMMz5ukCpt4z9v7df8eheiyrQrBICAmEpQJMsvABEDyiF1Vr5D//+Y80bdrU3PpLDRNK7aBfqPAREBAQEBCwiSDMgASUHKhJgfcJ2NxgzL17NUTMvGFdhmjSoaTqt98nwlIsA+7ScMsSKzaaMCnCJveE4AGS3Xv9ZGAv7sa7C0NRAQEBAQEbEEEACQgI2LIRZ8QBDPrfYcyT/SlhFCDVGsfEjAlxjIfLe2HxTo6f/w4CSEBAQEDABkQQQAICArZsQAHjVLAkBJC4u0ifh598KBJxS/7d++ufcfj4ertFBeLdezf+OwggAQEBAQEbEKHbCQgICPgnAbOvlLYouaAAvDARd+DfvX7czAsR/lkc4m4DAgICAgI2AoIAEhAQELAhsL6Mf1z48Gp9sL7uAwICAgIC/ibCEqyADQ9f41IxQEWZBQRsrthQVDbddkN8UNgPbS0gICAgYAMjCCABAQEBAQEBAQEBGxSFsd9bxqhQWIIVEBAQEBAQEBAQELDBEASQgICAgICAgICAgIANhiCABAQEBAQEBAQEBARsMAQBJCAgICAgICAgICBggyEIIAEBAQEBAQEBAQGbAtasFtG/fzdE/h+1lu3sYUgBNQAAAABJRU5ErkJggg==;labelBorderColor=none;imageBorder=default;" vertex="1" parent="WIyWlLk6GJQsqaUBKTNV-1">
          <mxGeometry x="65" y="660" width="724.41" height="230" as="geometry" />
        </mxCell>
        <mxCell id="g5a72KPIYyK6Kp0XdIAQ-48" value="GABARITO - ESTUDAR" style="text;html=1;align=center;verticalAlign=middle;resizable=0;points=[];autosize=1;strokeColor=none;fillColor=none;fontSize=26;" vertex="1" parent="WIyWlLk6GJQsqaUBKTNV-1">
          <mxGeometry x="70" y="620" width="300" height="40" as="geometry" />
        </mxCell>
      </root>
    </mxGraphModel>
  </diagram>
</mxfile>
